<mxfile host="Electron" modified="2024-06-16T02:42:28.568Z" agent="Mozilla/5.0 (Macintosh; Intel Mac OS X 10_15_7) AppleWebKit/537.36 (KHTML, like Gecko) draw.io/24.5.3 Chrome/124.0.6367.207 Electron/30.0.6 Safari/537.36" etag="uMaRLMKAJ2Tbu3d9H5JB" version="24.5.3" type="device" pages="4">
  <diagram name="PDF RAG" id="LCon9zIteA0QVJzLOOU1">
    <mxGraphModel dx="1026" dy="655" grid="1" gridSize="10" guides="1" tooltips="1" connect="1" arrows="1" fold="1" page="1" pageScale="1" pageWidth="827" pageHeight="1169" math="0" shadow="0">
      <root>
        <mxCell id="0" />
        <mxCell id="1" parent="0" />
        <mxCell id="kTUMZeFKKw9aqIYu8nKd-1" value="&lt;p style=&quot;margin:0px;margin-top:4px;text-align:center;text-decoration:underline;&quot;&gt;Web PDF File&lt;/p&gt;" style="verticalAlign=top;align=left;overflow=fill;html=1;whiteSpace=wrap;fillColor=#b0e3e6;strokeColor=#0e8088;" vertex="1" parent="1">
          <mxGeometry x="22" y="748.75" width="120" height="127" as="geometry" />
        </mxCell>
        <mxCell id="tLALr3_oa9mdHLQlwb-y-37" value="&lt;p style=&quot;margin:0px;margin-top:4px;text-align:center;text-decoration:underline;&quot;&gt;Web PDF Upload&lt;/p&gt;" style="verticalAlign=top;align=left;overflow=fill;html=1;whiteSpace=wrap;fillColor=#b0e3e6;strokeColor=#0e8088;" vertex="1" parent="1">
          <mxGeometry x="251.63" y="390" width="120" height="127" as="geometry" />
        </mxCell>
        <mxCell id="RkbI90MtC3Ka5tVacX1f-1" value="" style="shape=image;verticalLabelPosition=bottom;labelBackgroundColor=default;verticalAlign=top;aspect=fixed;imageAspect=0;image=data:image/svg+xml,PHN2ZyB4bWxucz0iaHR0cDovL3d3dy53My5vcmcvMjAwMC9zdmciIHZpZXdCb3g9IjAgMCAxNiAxNiIgY2xhc3M9ImJpIGJpLXBlb3BsZS1maWxsIiBmaWxsPSJjdXJyZW50Q29sb3IiIGhlaWdodD0iMTYiIHdpZHRoPSIxNiI+JiN4YTsgIDxwYXRoIGQ9Ik03IDE0cy0xIDAtMS0xIDEtNCA1LTQgNSAzIDUgNC0xIDEtMSAxem00LTZhMyAzIDAgMSAwIDAtNiAzIDMgMCAwIDAgMCA2bS01Ljc4NCA2QTIuMjQgMi4yNCAwIDAgMSA1IDEzYzAtMS4zNTUuNjgtMi43NSAxLjkzNi0zLjcyQTYuMyA2LjMgMCAwIDAgNSA5Yy00IDAtNSAzLTUgNHMxIDEgMSAxek00LjUgOGEyLjUgMi41IDAgMSAwIDAtNSAyLjUgMi41IDAgMCAwIDAgNSIvPiYjeGE7PC9zdmc+;" parent="1" vertex="1">
          <mxGeometry x="50" y="780" width="60" height="60" as="geometry" />
        </mxCell>
        <mxCell id="RkbI90MtC3Ka5tVacX1f-2" value="User" style="rounded=1;whiteSpace=wrap;html=1;" parent="1" vertex="1">
          <mxGeometry x="50" y="840" width="60" height="20" as="geometry" />
        </mxCell>
        <mxCell id="RkbI90MtC3Ka5tVacX1f-3" value="&lt;h1 style=&quot;box-sizing: border-box; margin-right: 0px; margin-bottom: 16px; margin-left: 0px; font-weight: var(--base-text-weight-semibold, 600); line-height: 1.25; padding-bottom: 0.3em; border-bottom: 1px solid var(--borderColor-muted, var(--color-border-muted)); font-family: -apple-system, &amp;quot;system-ui&amp;quot;, &amp;quot;Segoe UI&amp;quot;, &amp;quot;Noto Sans&amp;quot;, Helvetica, Arial, sans-serif, &amp;quot;Apple Color Emoji&amp;quot;, &amp;quot;Segoe UI Emoji&amp;quot;; margin-top: 0px !important; font-size: 32px;&quot; dir=&quot;auto&quot; class=&quot;heading-element&quot; tabindex=&quot;-1&quot;&gt;&lt;span style=&quot;color: rgb(230, 237, 243);&quot;&gt;🦜️🔗 &lt;/span&gt;&lt;font style=&quot;font-size: 32px;&quot; color=&quot;#333333&quot;&gt;LangChain&lt;/font&gt;&lt;/h1&gt;" style="text;html=1;whiteSpace=wrap;overflow=hidden;rounded=1;fillColor=#CC99FF;strokeColor=default;" parent="1" vertex="1">
          <mxGeometry x="280" y="784.5" width="250" height="55.5" as="geometry" />
        </mxCell>
        <mxCell id="RkbI90MtC3Ka5tVacX1f-8" value="" style="shape=image;verticalLabelPosition=bottom;labelBackgroundColor=default;verticalAlign=top;aspect=fixed;imageAspect=0;image=data:image/png,iVBORw0KGgoAAAANSUhEUgAAAlgAAADxCAYAAAAX6snTAAAAAXNSR0IArs4c6QAAAERlWElmTU0AKgAAAAgAAYdpAAQAAAABAAAAGgAAAAAAA6ABAAMAAAABAAEAAKACAAQAAAABAAACWKADAAQAAAABAAAA8QAAAACfY950AAA7xklEQVR4Ae2dQXbbtvb/AdlOMrPfCuxO2mRUvxVYXYH9VhB1BXEHSc8bVR39T5xB3BU8dQV1VvDkFTx3FKeT2iv4xbM4tsX/vYAlESBIkQBIUeIX5yQmQeAC+IAiL4GLCyEQQAAEQAAEQAAEQAAEQAAEQAAEQAAEQAAEQAAEQAAEQAAEQAAEQAAEQAAEQAAEQAAEQAAEQAAEQAAEQAAEQAAEQAAEQAAEQAAEQAAEQAAEQAAEQAAEQAAEQAAEQAAEQAAEQAAEQAAEQAAEQAAEQAAEQAAEQAAEQAAEQAAEQAAEQAAEQAAEQAAEQAAEQAAEQAAEQAAEQAAEQAAEQAAEQAAEQAAEQAAEQAAEQAAEQAAEQAAEQAAEQAAEQAAEQAAEQAAEQAAEQAAEQAAEQAAEQAAEQAAEQAAEQAAEQAAEQAAEQAAEQAAEQAAEQAAEQAAEQAAEQAAEQAAEQAAEQAAEQAAEQAAEQAAEQAAEQAAEQAAEQAAEQAAEQAAEQAAEQAAEQAAEQAAEQAAEQAAEQAAEQAAEQAAEQAAEQAAEQAAEQAAEQAAEQAAEQAAEQAAEQAAEQAAEQAAEQAAEQAAEQAAEQAAEQAAEQAAEQAAEQAAEQAAEQAAEQAAEQAAEQAAEQAAEQAAEQAAEQAAEQAAEQAAEQAAEQAAEQAAEQAAEQAAEQAAEQAAEQAAEQAAEQAAEQAAEQAAEQAAEQAAEQAAEQAAEQAAEQAAEQAAEQAAEQAAEQAAEQAAEQAAEQAAEQAAEQAAEQAAEQAAEQAAEVpSAXNF6o9ogAALvPvYVhInQf/lEyn36f4cPC0OSjOfXexeiN/ks7sWV+PeLq3k8jkAABEAABHwJQMHyJYd8INAUAaVIkeKUiD0qkhUo/rdN/+oK1yT4SrASJukv/3v9YlxXYZALAiAAAutIAArWOvYq2rTaBFihSuQRNYIVqYMWNeZcK10bZ+LNtxctqheqAgIgAAKtIwAFq3Vdggp1jsD/+7gnNniaTylVhyvSfh7lOhMyOcPo1or0GKoJAiDQKAEoWI3iRmEg8Ejg/d874u7LEdlMHdPU3/crzkUrWw/JKWy4VrwnUX0QAIFoBKBgRUMJQSBQgoCyp+oNaKrtZYnUq5jkXIhkJN68GK1i5VFnEAABEIhFAApWLJKQAwJFBE4+DmgKcEhJdouSrdG1a1K0hlC01qhH0RQQAIFKBKBgVcKFxCBQgQBPA379cqymAetd9VehUo0nhaLVOHIUCAIg0AYCULDa0Auow3oRgGLl6s9rMogfwCDehQZxIAAC60gACtY69iratDwCeirwlCpQp5+q5bUvvOQP4iE5hjF8OEhIAAEQaDcBKFjt7h/UblUIaN9VI6puV2ysQnrmhpyXDsXr56yIIoAACIDAWhKAgrWW3YpGNUZAuVu4HVF5q+K/qjE0JQr6ILaeDsRP33wukRZJQAAEQGClCEDBWqnuQmVbReDdJfuwGlKdMB3o3zE3QvT68AzvDxA5QQAE2kkAClY7+wW1ajMB5XldjqiKbdrGps3EStQt+REuHUpgQhIQAIGVIQAFa2W6ChVtBYG3n8j7OjnSxKhV/O6Q8nfx+rtBfMGQCAIgAALNE4CC1TxzlLiKBNjW6v7raSs9sEvxJ01Vsh3TBdXv0Z6pdyF6kwLbJrkvJsmO6gpJx0LwMf9d7nQnlCzVJfgPBEBg9QlAwVr9PkQL6iZw8te+kJNRC/YMJHslpUSNyW7pghyYXkW3XVKK5BdStFjpon9J0qcym10ZCSWLkCOAAAisOgEoWKveg6h/vQSWPyV4Ti4NzkTSG0dXpsqSUzZnoi9kr08K1xFlq3+UC0pW2d5BOhAAgZYSgILV0o5BtVpA4O3HIY0S/bKEmnygffzOxNazs1a6MOARPTEZEBf+V5+yBSWL8CKAAAisKgEoWKvac6h3vQTefaIpweRlvYWkpCs7quS0tUpVqqrGoR7hG1DcoREf6wRKViySkAMCINAwAShYDQNHcS0noGyQbseN2VuxApHI06VN/8XqDp5G7NGIlpTHJDLyqBZcOMTqJsgBARBojgAUrOZYo6S2E2hOubqh0bFT8eTZaSunAEP6STMckILKilY843iZ/ICNokM6BnlBAASaJgAFq2niKK+dBJpRrtZXsbJ7lXl+/XIccUTrhrbV2Vs7hdTmhnMQAIG1IQAFa226Eg3xJtCEcsVTgZtPjjunIDDbu9sh9c0r7/6ZZzwXb57356c4AgEQAIH2EoCC1d6+Qc2aIFC/cnVOPquOV97GKrQv9MrDUxJzECQqSX4VP78YBslAZhAAARBogAAUrAYgo4gSBN597KtUE/K3NA1Szo+ncfO/n8mO6WJ22hNjdbz57KLSKNG7S/J+Lr6fyYl3cEP+q4bi9XNWKhCmBKJskN37Z+cV1ilP/AUBEGgtAShYre2aNa2Yss352ic/SuQdXSlQe9TSeMbQc2zkoJM8nQtWwujf6xfj+aXHo/pcMZyLh2Qg/v2CykfIEOAVh5uSnKd6K7aYKsxARQQIgEDbCEDBaluPrGN9tK8k8gROo1P+L9VwMnrPvrFSuGSP6lKDnytMYZXvp5NLHt3ztM2C64byoJESBEBgGQSgYC2DehfKZKWqJ45IiTmi5m53oMk0JUhtdY2UdaDx3k3034oIqwq9oSMjCIBAEwSgYDVBuStlqD3rlKNJVqrqmPZrJ0keGdt82q9k+9XOliynVr6baWO0cDn9hVJBAARKEYCCVQoTEhUSYAP1RClWh4Xp1vFiV90vxO5L39WcD8k3sHWL3RmQBwIgEIMAFKwYFLsqQytWQ2p+2NL7VeWHffLi91zVhQfog/h9AIkgAAJRCEDBioKxY0L0VOCIWt1NxUp392/k9PK4Yz3fTHOrKlkYxWqmX1AKCIBAJQK9SqmRuNsEeBqHV35tyL8JRIeVK17BBuWqth/D6+940+jfS8vnTaYRQAAEQKBlBDCC1bIOaW11/Fd7tbZJXhWDYbUXNq9M5UeysKLQCzAygQAI1EkAI1h10l0H2XrU6oxcEPxBzemCu4X8XuNRFWzTks8n9pXyI1nb4u4Lr1xFAAEQAIHWEICC1ZquaGFFeNTq7vaKata91YF2d8CY2ibSzDkrWUKcLyxMqlWsC5MhAQiAAAg0RQAKVlOkV60ctrXCqJXuNeXn6gkM2pd1D289PaJdAP4sLJ53CFAbShemwkUQAAEQaIwAFKzGUK9IQXpKcEy1fbUiNa67mjdwIlo34gXyf/rms7hXOwLcFKecDIqv4yoIgAAINEcAClZzrNtfEo8A3N1eUEU7vELQ6ibe/oZf8AjLJcAbZ3NfFIdB8WVcBQEQAIHmCGAVYXOs211SG1YJ6s2Yr2j/wgvRk6TU0N904H3+1LYqDzvzaLkvJskOLevfpziOj6ccYsXgHHNbjt5+HFJf/5JbnUT+S/z83VnudVwAARAAgYYIQMFqCHSrizn5OBBC/mcJdTwnZWpMm0KPo26SrPe261Ob9kk+/fXaF/GcfF1xXoS2EXh3eSHY5sod4ADWzQWxIAACDROAgtUw8NYV17xy9YFGps7E1rOzxqbeZgoXOaTMfzGnuwZ+ldI02nasdxK4oGptO6p2TYrxniMeUSAAAiDQKAEoWI3ibllhzSlX17QK7JSMxUeNKVV5qPnlzJ6/pRxQkl1nMkwzObG0KrJwqrD3T/HmW1bAEEAABEBgaQSgYC0N/ZILbka5oilAedpamxjerFr0aFQreZnqDUwxpWC0+jBvqlCKn8Tr56etrjsqBwIgsPYEoGCtfRc7Gli/cnVOK76GUe2qHM2IFqWnnI5J3j7srqJRrV8QK8iJ/K+joA/Uj0eOeESBAAiAQGMEoGA1hrolBdWrXF2TfdVQvHkxaklrUY11J3ByOaYmHljNvCEFa8eKwykIgAAINEoAfrAaxb3kwtjYu67VguzSYOspjQBBuVpyL3er+Idk4GjwtuBRSQQQAAEQWCIBKFhLhN9o0eqFMxlHL1NtYUJGxbwJMhxyRscLgQsIKAektAm3HTZE347COQiAAAg0SWCzycJQ1hIJbMozclHgWtbuXyketXpDihUCCCyTwP1kKDZkeqEC1UY5nl1mrVA2CIBAxwlgBKsLNwBv3FzO/1NZGjdkxP6DGrUqmwPpQKAuAjyKJcS5JZ6mwxFAAARAYHkEoGAtj30zJStXBBE3buYpwYdkf2VWCDZDGaUsmwC7AzEDFCyTB85AAAQaJoBVhA0Db7S493/vPG7evBulXFauNp/2YWsVhSaExCZwcnlFIuf3+tbTf+BejQ0Z8kAABMoSwAhWWVKrmO7rl2Oq9vyFE9IGSYbEUK5CCCJv3QSSZGQUcf8Fo1gGEJyAAAg0SQBG7k3SbrIsXjUo5S+RivwgXn83iCQLYkCgHgITMRIbYn7PJ2KvnoIgFQRAAAQWE8AI1mJGq5liQ46iVJynBbeeDqLIghAQqJOActlA9+s0QMGaksBfEACBJRCAgrUE6LUXqQ3bD4LLgc1VMEIIaJjAJDmbldjr7c2OcQACIAACDROAgtUw8EaKS+QwQjk3IukNYCQcgSRENEdAbswVrCTZa65glAQCIAACJgEoWCaP1T+LNXolkmPx5tuL1QeCFnSKgL5nbzrVZjQWBECglQSgYLWyWwIqlcjjgNw6K68YxJ6CwRghYGkExo8l7y+tBigYBECg8wSgYK3TLaA3uD0MbNKN2HwSrqQFVgLZQcCbgBTjx7xxt4byrhAyggAIdJEAFKx16vWNCKNXiYTd1TrdE51sS4Kp7U72OxoNAu0iAAWrXf0RWptBoIBz8fN3Z4EykB0Elkvg9YvxciuA0kEABEBACChY63IXvP10RE0JnBLpYWpwXe4HtOMaCEAABEBgmQSgYC2Tfsyye4IVLP+gDNuxatAfIHK2jMCVqo+2S2xZ1VAdEACBLhCAgrUuvZwkYQpWIk/XBQXaAQIiScaKwia2y8HdAAIgsBwCULCWwz1uqeHTg+fweRW3SyANBEAABECg2wSgYK1D/4dOD2L0ah3uArQhTaA3c9WQjsUxCIAACDRGAApWY6hrKujkr32aDgmZHrzBysGa+gZil08AKwqX3weoAQh0lMBmR9vd3mazUS7bjUxEX0i5QxXdf6zsHv3dfTxO/Zmkjr0OR165kAkEQAAEQAAEQCCXABSsXDQNXeARKDnpi4QUKqH+bdOxELKh8kVv1FRJKAcEQAAEQAAEukIACtYyelptyNwb0NReX4jJrlKollEPIW5g3L4c8CgVBEAABEBgvQlAwWqqf9//vSO+fjmmaT9SrHiqj4eplhykPFtyDVA8CNRDYPPZhbj/8kM9wiEVBEAABBYTgIK1mFFYCmVT1RuKu9uXpFyFyYqdO5mMY4uEPBBoBYGfvvlM9Ri3oi6oBAiAQCcJQMGqq9unilWSvKSpwLpKCZS7cREoANlBAARAAARAAAQcBFo2pOKo4apFzacCf2l51cn+6vlOy+uI6oEACIAACIDAShLACFbMbmPj9bvbEU0Fko1V6wNGr1rfRaggCIAACIDAqhKAghWj53jU6u52SHbrr2KIa0gGFKyGQKMYEAABEACB7hGAghXa5+zH6p5GrYT4PlRUo/mluGq0PBQGAiAAAiAAAh0i0OtQW+M39eTjgPxYjWnkarWUK0UiwQhW/DsCEkEABEAABEBAEYCC5XsjvLs8Jnfr/6Hs274ikA8EQAAEQAAEQGA9CWAVoU+/vvs0ItcLL32ytibPm+fo+9Z0BioCAiAAAiCwbgQwglW1R9dBuaraZqQHARAAARAAARCoRAAKVhVcUK6q0EJaEAABEAABEOgsAawiLNv1bHPV5LSgFH+S8fyY9iy8ELzi757+/fvFVaa67CLi/ss+pd0jm7B9us7/DjLpEAECIAACIAACINAYAdjhlEGtVgsqg/Yyqf3TSPm74P0Bt56dCb2Xmr+st5+OhEz6pJz1Hascz8mLe99fOHKCAAiAAAiAAAgUEYCCVUSHr7GfK3bFUN9qwWtSgk7F5tNRsFLF9XUFtX3PV1K2ZgrX5+gK1snl2FV0t+KSkXjzYuRss1Z4aeVpxJDIU/Hzd2cRJZqi1KitODIjQ896x+LNtxehUpz5Ty5PKX7fec0nMuZHiHqOPOiRZin7PtVZkTwX9Gw5jlLXoGdKzm+x6HdYtr+z9TLbrD/IBwYDKc7E6+d8f5ohK0uIh2SQma14+3FIO4T0zcw5vyXeB3dDjsy0j2cu2a6Ert+SlFfi9XcDV3LhanNZnk6B6xGJKcKiftQe2s8oSR2uGK5p+m+Y+0IuqlfVa3o0jNvB/+oKmJZUU7o5ePnhJJK4jKTyZVZnnw6oNZF9vJGSIcQF/asjvIoo9DxYFr/Me6SgJskRfaTRM4S+Z/FJWwWr/+8l77eo+iPHhIK3Onv9YlyigsX1Snqf6WPWTJMoqaeGbP3xbqbjBL0e/0au+HAWepLuI+u3mPehsqnSZuWyML4m6IN+ceA6mDISatPJx7HzncUmKtJKv7iMtU8BI/eiLuZ9BYXYLUrice2GHri/0lfenvNG9RCILCtAQD8MbyLXlB+C9QX7gR6lJGUnGEWSIUS9rIyYsJMkGXsJ4I8yHm04ueSX7B+PdpukXCG0goBSdnNqkijlI+dihejJ5MKR2vFbVR8bjqSTbNrsb7HoA2DgEKqjEjIZCQpyKPgeRyhFAApWHib++hTiMO+yZ/w5Df/ui59fDD3zI9tqExhHrn72QRyrAP6aryfUVOe8l5VnI3q8wKRi4GmSu9srmsr5hXJCqaqIr/bk+p4u6hd+5ocHvRjp2hK0LXjqLh1kr58+nR3bU4Gu32LeBwArP1llbCaaDg4DFaRd8fXLcVogjvMJYIrQxUZPDY5cl7zjeNQKipU3vrXImPCKUBlTadcPbdfq0mBgNY002dMOwfWcCoha35uSU0W6cP28OKMTc0plWjX89SPAz0w7SDmgKHNWwZXOpSBnR6hYCUrL2lU2t3lTb3Zdis6lHGdWnW+KPcpyNc9GH9vusGdGO+5tV/s4090XUhJlOjuPmptKpUojRulElY6lPCZlcZSxE6skpBuJoWC5+vn+6ylFmzelK125OLrBk2NSrkblkiPV2hLgh2IieHQjXsg8tGOJ5od6EkuYKYe/5OMrhXkvK7PscmfjcskoFU9N3t1y+ljPi9JFr31C1wfpyWWf2p1WikSFD1dSPlIhIUN4Pdo4j5STPp1czCM8j3g1uJAvjdwTNT1H8Y8hf6RpV40yzVaSZ36LBR8AmWnOEZU2oH/z+1P2+nQ+on++YVts9oaUeeAroCv5MEVo9zQPx8bzd0XKVa8PWysbckfPyxnQVoOjH9rV8pRKnft1XSp3YSJtxFuYxOPigUcedxZZcnpQGymPScj85eWWiNhlE9A2eqZiNlFKBo9ipcMgfeJ9/OC4h2RqJCo77WfaZ7Jvw1nI/BbHs0vZg0MjKqGRNGHVpcgOzchsnJj143dktg1GBpzQ2x8QLAIJGfHFCY/K1bfhX0Nx6gMp7SBwHrUa6Yd2TMH5X9cRSnEY8YZIjW7g3hsvrA6Uq4WIWpVAj0ylq3T9OIp6lo5U9ku2rZSRoOSJHqE1lRIp9ua5U8qWjjTfE+kPJ/u3mPcBoO2G50Xw0ZMnYxqJNtvIHwSutJw+P4zoktmeeO/K/FJX/AoUrHQHao08xpcwlKs0VxzPCeQZp85TVDsyHtrVsuamrvvL1Dbiza1I2QtRDdxvFvrpUquoavWNV7bhSFeewMBIyjZSHPQIjzqc/addGcxOAw7GRl5DUbIVLJquTIfph5Prt5jkfACwC4p04N1AeJrRNZpmp03ncx0nyWea2Tm1Lh14KGqWiPU+hYKV7t9YGrkkvzcxDCXTdcPxmhDomV+qoa0yHtqhwh7zp7+eI4m0xOxZ54Gn9ssqSNx4Ye67Wx4RwLTgQlAtScAjUvbvZPLoE1A76rVGZkQ/Ss1dI00zhSk17ceKEG+Hlg6zD6fMvZ3/AZCQI+l0mDyOXPFoGpeRDnba9LW84yfPWMEyWclHpSvP6D5PVkfioWBNOzrW6JUUP1VagTQtH3+7QUAN2Udu6uyhHUnu9Os5kjiHGG3E67jgGbXvmS+bzfVSTKdi7/ZYLZgm0v7jDYfCZP4Ox1YjQl0ZaHGukSa1ZyxdNhQ+eZF5Z0yvT9PPKzieH6aOXDZmaaVnqmzNs+gVk/PzxUc8GpYdxSI55J4EwUkACtYUS5zRqw/O7RCmZeAvCPBDyv6aDKaS+coNlRhPYcmriWHEm5eodHyMaX1dmOulOK2G9jE0nJ7i76oQyKysuxZ8//GHif44ucq0RLsyyERXinDOYtBvNfNBpHZkYNGmwb1WmszfYu4HwGTgrNu0jT35OXs9J0824TzGNYolotktz8tZkyMoWNyR2qgx9CF9LbaeDtbkvkAz6iSQt42Hb5nZr1xfSeLRCaG52spfWn7OWNOQcQ3crwun9rWDRUwN5vdqW6+YK+vYzUMi/zv7J8SrTMVlr5+J84uwF7WQwmR9EM2V+gujiCTZo3PzvTRPaySlj7a+GUFn6TYm4n3muitPJpEVkTeKFev3bBW36qdQsLgHN8hxWmiQtEEn33wIILCIgMuwdlGe4uv00I4U4o4s5Vcq2jRkRAP3qeGzq9Y8esUOFhFWi0D11XK6fX6uDLJssota6LdqKVjTkS52RJwOWUN09weAy8YsLSfvmKchfVZM6lEsc7RNO4DNK6mz8VCwdNcPAu8Amhp8MQ6UgexdIeDeqyyk9eZXboikpr5EZ0a8IZXlvNbLKkSccg6ZI+D+dkBXtnOuIrqtBLJKStma+rgyyMpO20Hpq9tkx7SXSjgf4bLT2oboeR8AIaseffKqgYRkmGoDH9Y/6m0VuAqn8OSuDfTCHpwP5KkdAQTKEuBVPSeX/AUY76HEX6IxvKNHG1laAGNqxLsgWYnLNCIQKbiWs89FD+aHtR3d0CjZmeAVblJeFU5X1laFNROcHYm6cRhqk54u+9Ry80NFqlV5Z0FE+MP75NIWMS8nPcK1+eyCdgVIpzWfD3kfAInlnoElOLcP6tFqSnIQaoYBnZ6aUSXO3tDOJLzgI97vuEShq5cECpbIGEBW60W+kWO82KqV2r7Urh90jFr2nA8Ff8lS/i4mkyt/AQU57S/QgqT0QB87HnZFOYqvae/oV8WJSl3tl0oVIxEb4IaP/M5fVmF1mjqezErRew1+n70QNeY3suEcwswgIlPtDNb+eB47t9bhe5FtlsxwRKfHZpTXGY9S5dynKbctPDJU9OHl+gDQ96Yt+9rZRp32pdECVpA43su8hQcWMswM8V0/6baCpW+4w4Cb4Ebo+egAEWuS1bVvWIymqRU31p5eQXInI3r4jINExMjs2qssSK7yjn4WJELbY9gvpCCRxZnV9N64OE3BVf0CLUhQ4VLe9AuL+Pq1T0bEdQUatSK/eeGKZl31W2G5rlVyGa/mun16pIl9PKXv/1ibP1+QXFsJ0uWa7iI4jtPu6ovG/+4PgOzmzpzJ/RxgJerd5Z+ZUSffzZ81swLl0ah/J0+6bYMVuhSXh/O9NP9O3mtodJqA62s0fb3qcYypvXr2CCxoSaj9VEQD97zpF1X7yFv7zInQC70XYxRvLhFHaQJH6RN1XPS74+d5JriUtEyi4oj8RS3XmfeHbeg+lZz3ASB7/WmS2d/88jjJaJZudhAyi9M7nonBQYZAtxWs0OnB+8kwQxQRIFCGgJ5WNr0il8mXn2Y//1LZK7UpEu4KmMa+7jSFsaEKWkp48Yu3n0oZ8ZCmWKYryCJKhSgioEdj7ZEg9yjQFJhLyfZxZTCVN/2bHaWaXrmYHsz/pqYM55FkU6W2ZkrH6OOsjZkQ2jt9Ni3HuN08+M/i8P3LZhcITgLdniIUou+kUi7yHLZX5UAhVS6BMV3xf7iZYu2XiXm1zFn0PQIXFuqeNlmYbZYgglJJstjxa/N2lLTkngyFESoSoD37yviR29jYEcnDr6bwHOVlmmjr2Zn4+mVveqr+JsaZPrHtTaW1zY2dRU/N/SQmyY5xyWWzySuMe8KqN+WaiLGRl09YibQ9qy+qCytEbz9m5WcWyVicXXWdVogHGnoLGEzTduyv7Fh7583V9hv/m0dUPUp+xAOyKjOP9G7jUw9Bj1lk8kNr7F30Kpz3/o2xcoa27eTyM0nctqTWfNr7p/cozsml6/XnU9/fxJvnx7kZ45UzL0JtqfX8dB6BIxAAgXUj0N0pwuThKKgz+WsHAQRCCLiH6wMkBkyZ+Ru4B05zetpRxfTgXmyzEtAfRVktp5JFSXENBEBgJQl0V8EKMwo+zxgnrmT3o9JLJaDtbwIVlFQLQrbMcW2ImxJdcHhRcK3EJV+l0FMxc9Uo30bGlTpOHFYNxuEIKSDQYgLdVbBC7K/SzuFa3Lmo2koQCFRQjDbuG2eVTnwVHbWs/LpSUWZizzp719csne2vsBLYZIIzEACBKAS6qWCx/6sQW5Mig78o3QIhnSEQV1kPMRr3U3SS5DP11VVAf/mVK4RvPrOqZQymzRw4AwEQAIFSBLqpYIVuaIvh/VI3FxKVIBBbWfe3TfJTzrj+vK2Lf9j22nA2z3Fj1Xosxf6qaiWRHgRAYBUJdFPBCtkglqcUEEAgFoHYyrqPbyl/pUyIexq9Ct16qKqD05D62v1W5DPIThvzXC8qiCkRskAABFpGoJsKlu2PpEqnJEHTIVVKQtruEDiP19SJx9RZgME4+49a5HtnYeOq1jmgvmZdInI3BS88819UsFA0EoAACLSDQDcVrBCHinlbGbSjP1GL1SRwEa3aXve2t8G4VlBCFazKdfaur4m5rP1bLaPWIduTmM3AGQiAQDsJdFPBamdfoFZdJRDXDmjPA6PHqBeVMrW94mnCsLBXMbtffe1Cytq/JeKznTXC+aGn7VmEoiECBECgCQJQsKpSLvtQrioX6btLIK4fpl2hV8lW4eln4D61vQrfZqZqnf3qaxMpb/8Wb4QxXYcNOUqf4hgEQGC9CHR1L8I4D+j1uhfQmmUR0HuV/Ul7rH0fpQp6ley4lCy1FVGplNlE6Y8NnkYLqX/ZOisD90m2LtVjKthfsdd1Wb2ExTkOxLtPI/H6u8HipB1MwfemHVxKMS8Y2BR7RlIeVbUVf/7wsFeQJxufja2a+P6SDzuGrEUndp3S5UxE35ldTatvXBhlOxMicpUJdFXBWuU+Q93XkYD2xxRHwdKrZMflMAXYM20+m4/shE6j6RdRiTqzgXsEZaes/RVDfCBXFBvlaFZOlSQvxbvLfXGfHGUUgsrC1ixDIs+oRebemCd/Zfeu3JCnpNwfGq3fEKxA9424r1/7NK39hxEnJr/R+fE8bkKyZNUPcPOGZCUukf9VMs0r82LUEX0onFxe04bNI/Hzi6F1EadrQABThGvQiWjCOhCIuTddFaWpSlqD843hAb2KwmKIeTwpvXWVd33NUuUGv7zLBT0Scl0usUcqHvnbkH/Ty/ZMvP105DHF61HoSmQZZ2rpdkNCSncmOOIcq1VlUv4+yBQRJWKXlL5fSMm+QL9H4dkqIRjBalV3oDKdJRBzlMT9EspBmzheRDlJzegL4zR4JaHYM+Tln/jWNy3xxmNqhl/Er9JCajg+FDI5FHe3PLLB4s9rKGORyAsaUfksePqXRyiXuY0Qr9iW0hyZEkpJ4r7Qgafj7m53p6epv9qBbXqa0LVa1Z7eSwlo9JCV7K9fjqnMYaPlorBaCUDBqhUvhINASQL8IuDpAiFcL4uSQmbJyk9x+NpN2SNWrGAls/KrH5SvRwwFa1y5gg/JKY0y1a1g2dUq3492Tv/zA1JqBPXlL0rRe3fJjpVHNIV51vgUJit5XI90sJUkZVNF9XUFbZd1lbpk3zvlFNgk+TUlw+9Qip/E6+enKrOye5SsTJnKo1RxQ78CkKuNBLqqYF1TZ+x6dUhpWxEv6cjUZQJS0guFbHJiBDbWffPtRaGoEAN3e8SKRzt45CUkcH2KRhS09/PtkCJUXkkv7qqBFeB3n36P1j9Vy19Weq34vifl8j19AJzTCNuwsI9i1pPvBT2Sl5a6lz4R/DzO0a/UNfHY1657x/5IMASnTqLYR6VMAPQ9zm27olLS76HweztVbRwun0BXbbCulo8eNQABi0AyGVsxAadlvJ2H2DPRCqh00FNJN+mo6scL6mOvFKtegM6R9MZeWe8nQ69865PpQBlvn1ySckAKfDPBHmUyXXrYI1rpOqXt+lzbMaVXwabzNXUsa/Gv1lTtUU4JAl1VsEqgyUmS/tHmJEE0CPgRsJQWPyE6VyL2FmdfoNAUCXCPjplKV1F+17VFdc5b8u6SlR/nY3+lpWl7Hl511vVwIMTkf+Ltx2HtIFyjTKarhbmil/W4P7+mbbfM6haNlpop45/xYobstPiH+AVB4jIJdHOKkD1QJwk9JLzCjlcuZAKBRQRYaTm55FGg8KmCoi/7WT28DdztUYWpRFawfH9XLCP1QpyKTP3t9fbod5uK8Doce+WaZtp6OqSp0CM63Z1GdfYvr347udwXW08H9RnD9+iesvtcfRiMHz3hz38rE7ITk/L7VH/o0S4eXc3+HvLu4VT2x8MiRZJHwUopar0BKaR9JVF9pNNiBjPciIfk2IzC2aoT6KaCxR6o2ZDTL4S8QPxKRK4uERhTY+2Hr0/79xZmyn5BL8zymIBeeq7AdibevysWuOC35a0QzivrY381zy2UIvHu42Dm5yh9rZvHh+L+dkwuBvq1KFlPnoyztn2PI69q2i+tfJEyJhPT4a0e7RpT1+wb3SPFmXFedMKKZF6YqPLHeZdn8Wxbmf/OOSflatD4IoJZ5XBQF4GOThHyV1FAaM7+IKCSyLqSBEIVgHmjTVuVebw+cnnJttPknqcMdtNpbMP39LWyx9oY2Z3aXyGcy+PVcKFBjVgkP4aKWZv83C9aydqJ3iY1+kS7BKTDzA2J5ddKzUzY+2KSMqa3jpqPdLEsXzu8dD3iHe8Jl41YPPmQtCQC3VSw+IcYEuSkH5IdeUEgn0CO8pKfIf+KaatipXscBbBiy53m2IqVmipZUEKeIXucj5rraKMEb16MaETi9wWt6c5lVrLubke1NFjvcpAWfaBOzGk/bVvHvrPSge36sr8Dfzu8tOx4x+RsNPmDnI0exxMJSW0g0E0Fy22gW74/EtEvnxgpQaACgRhKyqy4IiWq6NpMgOug+OWUNTR2yciPyzVkL7MqMl+susJuMGIG3kMwho+kmHVarqzDWpSExNFveqRzP9VcrVhlVwbuP7prSCUlu6kqgfs471+2PLdkmfwg3jyXZK/2D5pe/hclyhq0J+L9o12ZWwZiV45AN22wdDed0x/9JVS922LYyFQvFTm6QiDk3pwzKlyV523PZI4QzEvTR4maovneji59zobsrsBtka4LFeKiusF4LJd9JL39xLY/I4oxp6EqVG1tkmolIa5T0snkgvxwmYi0/dWc93S1YdYf2z5Nv10ZiyOqTsNH8YP1WH3tzuSMzs5ogQD/Nd8lG8rZ6LHZWJytKoFujmBxb01/kL49x8tsEUCgDgKh9+a8TvvzQ+vI155pUd3sKRqr2IWnM/saK6U5HWRdLHnK2xHVEX7+7oyMlJk1K8YIG3IUFYJ2j3FtyJTWirvpSJJWYNJpt+lZv2fkbYv9VeLklP+bNRqBk1Ug0F0Fa/qD9O0lSas+EECgDgKh9+a8Tu6HdYiB+6K6Lbo+r1veUd6o8l5ehpLx8eyvXAWyEvDmeZ9Gsn6gy11XtA5EyD3m4pud3jXvEx65mof0Mcem0xZPcc9l1H8kJzv1F4ISlkmguwqWtnVhn0O+4RC7n/uiQ75CAvHssPSGt5nCvO2vhNoAOCMvFWG+6FIXKhzaKwn1KrDdChKySbMv6GyaGDHcd1NFSxvBhzxjYtRoOTISOYxacNH0Ltv96ZErXWTxKOo4ar18halFG/I0k33RCHEmAyLaTKDLNljcL2P6Z86Bc2zZgN3Py5JCuqoE+KXhO42XLiu74S1dZQUrSacqd2y/yFy5+EUXumm1XWe1Cky6SisfV/SCLi+lfEqtJI9VBh7NUXvmKcWW2HfCSemB2k4ndEHRlDhP725MT+y/8sKI4VFUe5PoWQIPNx0nl8U/Fh61XPhR1LMcjU7c750JbayNsDYEOq5g8Y9Num/0Ml2M3c/LUEIaHwJ6afr3PlmNPHpV3tiIs21SjItFJ9aLLD/pFV3yH3HK1DlgxG1ax61n9FtfUkgrW9Mq8Khc1n3A9Go9f9WiB8XyiArw75/StZsMKOlx6eRFCXkKNm+XA1t5vqeFFnnKWF12eEV152vFjkZ1bil+iuZGZFF9cL0RAt1WsPihe3d7SqS3PWlvq2XJr5+zDAQQiEeAl6bL5FWwQPeqvAMvufaLLE8IT3NI6VcGy5RyxxBduBrSSOk+KTPy5s5ZX6ye0hrXV0Ch5GNxQt7ohZrGq1PROqJaHBfWpNrFMSV3fBBbftnylbF67fCqtSWdmqaRyWj/NflWQ1grAt21weJu5IeclGdBPZqIIWyxgggis4vAkydjV3TlOHu0Kshhp/Uiy61M4E4J9rYm2fPckp0Xso4qnck6FcmOUree7lObs/6Y4oHYjerXye1eIc9o/SLTjKbs8JKNz5mysxHXFEXsaUeArad7gvsDYe0IdHsES3XnZERfci8DenZbwBYrAB+yOgmw8v/uMoYdljWSxA47veyZ8l5k2eq7/BZlUxXF8Is/Hezz9LXFxy5HlYtzrX8KPYp2JN59GqkprDpavCH6JHYURbSeKTgtJYsXGvgE33zpsrTdmdePLC0Gx6tPoNsjWNx/bB/BUwghQe0q/1fYSyCkfORdUwKlbZ6K259elec/3XZRXEjqqvZbRNMe3mE+Ze/aR66q2FijgVXLXZX07JE+9BmY11b/+y1PIuJBYGUIQMHirkqScl9Fhd06iSCjsABc7BqBsjZPi7ik9/fzddhZffl4eYXMVf+pH6VQQ/A22l+52rvsuIRWudURfO+3OuoCmSDQMAEoWAxcz3/znHhIOBBvPw5DBCAvCBgEoq14Mlbh7RlllD2p6kC0ukJm1mTS29ERRt3NNGXOYH9VhhI9A79lhbhOe6xy9UAqEFgjAlCwZp2ZDGeHvgc8VTj98vaVgXwgMCWgp9pCFX8aoRV7SmSIw87KDkRDDd0n+6rOk+RR0ZpCqfgX9lcVgHn4iFosXffj4nRIAQJrRwAK1rRL44xi0cuMViWmbV6m8vEXBHwIxFn5pF9yvtNtPtNsbOgeEuTjyFXoFBPvE4hQjkC0EVOjuLk9nRGNExBYfwJQsIw+jjCKxT61NknJ0qMFhnScgEB1AkmYoqIL1AqW8uBevQa06rB6HcIN3Xcea7rnU+PHPOcBebuXVfdZ99qNFoNATQSgYKXB6lGs8Icyb3FyfzuGkpWGi2MvAklv7JXPzLSt7sXpVKF5bfGZv7F9dcVsXptHpTDA43ioHdi8LjgCARAAgcoEoGBlkPWOM1E+EVCyfKghj01AGx+HuDzQEvX04FRpsUtZcF7WwaglJkzB2VZ72VkiK51WNcyvJByJQQAEQKCYABQsm49+of1mR3udT5Us2GR54UOmGYHx7Mj7QNk0+SlY+jfhUXKgoXvycORR6DzLwg1450lxRARg1oDbAASiEoCC5cK59XRI0eGrt1g2K1kbZMOC1YVMA8GHQBLBDktPD/oYHPtPmYcauvdkiILlX2+fPlqHPF+/9tehGWgDCLSFALbKcfWE2qaENkNN5H9dlz3itpWstx9/FT+/GHrkR5YuE+CprkT8EojglVf+kGk+Npo+ufQqVmXijxPfEFJv3zJXPV9PHNF9FjvEV3T5Y1X5SSNXHlJcqX/39LdJI32elUg78GVqvAeh92hvbOwe8ngEk00JbLar3i4PFLGyQMHKI8nTCyeXPFXo92JyyVVb6lz2hSA7r1X+Ibrahrj6COh7sT75hZIDp/mE4BfsQWERdVyUG2d1iF1bmawwJMnL1rZPKTS9IdWRlcBtIVkTlLq6fLhB/04urynqVOg9C/W16f8nl5yqfEiS7MewvWdjRuKE68DV+lNMyKfYk2enQu/3OC/3hD7chfzPPEIdXYs3z/esuPkpKz53t/83j3g8eki+mSmV7OSa3y/p4GpD+vr0mOsk5TGVQR80xNRmK1S7btSOJ+kBAlZ0qw5CyOQHtT3dtOw1/4spwqIOfvP8WP1YitJUv3YgxOR/9EM8hc1DdXgdzhF/JKAMzPB9/C7KFBM5TfmNqSMXvLLiNuSoprqH9//bT0fKzEIrgNsF9dwl5atfcD3sUpLslRLAI6+s7Nzd0giutUft1jOX4r+bSZcuyDV1y0pc6Igd1+3k8oo0qv8QN1KuCkMR98KMXb4IBWtR79/TF5MQ4au4suW8Uj9A/vKAEXyWDmJMAsuZ8rrOfIGbtSpxFsF+rEQpVpKxdY7TIgJ6iy/68Ksh8BReSOBno0xGJKLkC74Wb/S+LaA6T8bG812PaH3ICJSTfiZuGsFTt9kwykZViFEjafShLyq4QcGq3AqAdVIoWIuQ8VdCIgeLknlep6Fu+tLZkH/Tl8SZ4C81BBBwEVjGwy2KF3lPFw8uBmXjJNmsIZQjwCPp9tRSuZzlUoX6cdukaUG3cvWBpqx+pbr/bswy1OONPr+tXIfpP/dejtv0fD82BLjuz8SpROlsPC1qh/sARVItuMpMU6ZL4NHy3xRbPcWvBxiwKjfNqNQxbLDKYOLtNk4+/qiGUsuk90tzSF9qh2oOn3+o6kdIX/+4qf1orlsu3gvw7rbhVkUYfWJbwxBDd58Wh77UfcpctTxq6mpyStWuZ+RK8wifqs3ahdHLvtfP2LAqO6UvRxWmzc7J7qmvqxnwf9omicW8uzym6bb3lsR945yVow1ppzlQJiMZmy2eYpzQSJgRziu008ioyri7HZmR6kzbWLnsxviyPdXpEKCiytp95eVfs3goWGU7lL28v/tERn2NGIIe0o/0kBQ6bTSppygvyla13elg4O/VP2pl6+WfJWwlvMQ7M8VTVPiLuM4Xebr64S/1tLR1Oubptg22UeIR+Un9/SHlWQ34LjLKFReiFZNRDeVVE8kG9ieXQ8qUVopM1jwr8s7xW9a2VhazySBbATVlmo0uE3N/y/J2s0l7ffEzfQzlBSzKyiNTGA8FqxCPdfH1dwNSskRDSla6cP6xmj/S9NVVOpYPO6tU3VbVNVFTX983Vqd4D1V+cDd1/46j8/FZLRW9EisocCIsZSFKGw5oNmEg9LZmUQQ2IIQ/MOwwooj3RqS2tTKZSVKIEyOVEG5DeStR7ukgc0WNOhUoV5kMiChLAApWWVLTdMtTsqY1wN+uEkjkmKaRXzXUfNdLwbNonmqk0dgmgsu+pYlyUYZN4FqwaUVo4NVymRVuZD90cjkg29hT7zKk2Cl0/uxrmqGMx43RK7r15VUGg2uaMEn6Rjoeccy0ncxH7GlEI1PBiXb3kP1A42nBWKHX28vl2kF/WlCwfG4sKFk+1JAnlMCTJ+PG7LCirlpkQ3fypdNECDH+baJ+nSkjGUZp6kQO6aPiD4esA4qn0SzyfZXQlFme7ZAjo4pSikuhI+lyXwTKYPyxkETtPGB/AN2I+8kwUw33NOGusnWajhxvkjx79EoEGLer/UgzzTr3VtgyjaIIZUIjX7ou0TOAP9r67mvrGdtbz2Y10CpWsqT4qYGSUAQIaAL6y/W6GRzBDkbn1Zy+MOYxdR1dexv/1lWjLsrlUadYU3g8CsYrBfPDLl3XPqeWsQqbHW1O/2WdUpNBfnKce0+yM1I7pN01uHx6hUwPKg/tdoHicyYGEdEIQMEKQak8Bic/kgi9jDVEFvKCQBkCUVwnlCiIR8viBv56rTc0xabeVqyBdFIqYgb+mBULn7Ps3f0PZZ8Vs2x/WdfiIdkvVDRduw2Y7hoOreL9pweVINpaCKFRAlCwQnGrL7Ven0az/gwVhfwgsJBAQo4L6w8RHIxmKnmRiYkd0Qyb2LVeN3m/1eJahp+zW0/31KxB4bOW7LLKOW7mj2JW+vP+hfbLrtA+vPLl6JHdayuBXgySnnqcJXCMeM2ulThw+9LbKZGzShJuTx7T+p8BVWraQFrYYMWAzD+U93/3yT5mSOLsOfgYJUAGCGgC7EiR912rM9QyEtSAoXvTTibr7INVlM2Kz2vaXqyuoKfIT0n8qTKkTsg+K7s6dVuw7RKnKQ7k7iGCHyzeW4+n3qQyUDef/WyPdPJxXDiKJdRKSzMfK1cTslWSVgNCpgctUalTt/+tVIJKh2wPZ/sGqyRgvRJjBCtWf/KPX+1dSD84IViLRwCB+AT0/mM1T0lHcDBqt1wGbpliy8uew/4qy6TJmGux+bTfWIG8yk8rSB+yZcr9bFxNMVwPthPT+9b+lCmFN1EuDL1R5rJSrmTfig+cHiRpeSsjtW8sqzicxiAABSsGxbQM/cPXQ9mwzUqTwXE8AuN4olySalCw8h7uruJ94moZdfOpSCfzkMLfO4q6Gq0sRplkR6qSZKds9qjplE2u9XHNqxXZPUJecE0TSqVc6anCWb7A6cGZHHLzYIdEDEt7arfz4ryQABSsQjwBF/nHxjYD7MQNilYASGTNEKjb11NdylCh7UymldUiYH9VjVes1Nyn/Jyra6Uo+5Xif3lKSuIYIUpq+EAoy8ul6N99OVqQ/cy6bilXdDXW9KBLIVVe58m2U/vwsqryeJrH350asY8EYINV562gbQaG9HA4FTwMm4hjKm63ziIhuwME1BY2tfmVOq+PoLyg1WDf1yI/1guolsqtrdDfaFpwWO/IlRwQvQOyb2Xnouf0wTqe0ewpP1HZ+8m1Om+WaXawT/LmsmbRqQMfGy2l6Ft+oGSvT1JH9M8dJI1OJfKV+6KKDZ8enArnj6eTSx7FOpxGPf7dFkI5cB2S24uxmEyuVDw7DhW0GvLulv6Sc9ZFQVJ/nVz2C5Kx7Ru/BzsRoGA10c22cabokbKldkinmxoBBCoS4NGCk0ualrE8RlcUk5OclKC6ghpZeBldOo+i6N9YdNEQ6CRwTUbdg1ybHmcW78j0aA45F5Xz88Qp80PJ0TR+9s5lOUV5RLoWodge2m2xWukp+D1Hmx7UJW89HdAH/9jhJZ6v7ypnoVLqtEkKMq/O1Dag+pr7/10lw32tc7GYImy6y/nHxH5d3jzfoa+Wf1Hxv8HFQ9OdsBbl1aMI8XY8tYWapm70Ho211RqCZwSuaTTjR3p27TWiXDldFczqkj3Q05WD7IUGY7QCQpyMsLvQdUTRxtixR2f5Y0QvSOCRrPKh19svnxgpmQAUrGXeB9PVJ6+f75Mdwz/oq/CHR5stvvHPl1k1lN1yAumpkphVnUzqUdy4jnXZdtWqFMaEu5KybpQndf4YZMUqlof2MijuaeWp9uLOoztFQSt+/Bxtx0jmWaay2nVEJnoWkb8xdrzpwVlhdMCc3jw/Uu8c4TB8T6fVx3QfTHay0YgpIoApwiI6TV7TD4YxFcn/zHDy176QD+txc28+q/YC5/T3X34wgQScVS0/oKhas/Lea/dfxtHLWDwFEFYkf0TEDltPq91TsctfF3k8ApSorVOIJ4820h6SdRmvl2Gm78WBSsqjWYnYU/+meZXrj5J1jHLf9Y5LPYe3yC7t/svZtJrqL290XBT4Y/vdx+xvg5XMMmFCNl6bKfs0zvNQIq/+6BmrRQR6r8J9MUmtwmTG/M/1ceTzbF7EoUxbkQYEQAAEQAAEQAAEQAAEQAAEQAAEQAAEQAAEQAAEQAAEQAAEQAAEQAAEQAAEQAAEQAAEQAAEQAAEQAAEQAAEQAAEQAAEQAAEQAAEQAAEQAAEQAAEQAAEQAAEQAAEQAAEQAAEQAAEQAAEQAAEQAAEQAAEQAAEQAAEQAAEQAAEQAAEQAAEQAAEQAAEQAAEQAAEQAAEQAAEQAAEQAAEQAAEQAAEQAAEQAAEQAAEQAAEQAAEQAAEQAAEQAAEQAAEQAAEQAAEQAAEQAAEQAAEQAAEQAAEQAAEQAAEQAAEQAAEQAAEQAAEQAAEQAAEQAAEQAAEQAAEQAAEQAAEQAAEQAAEQAAEQAAEQAAEQAAEQAAEQAAEQAAEQAAEQAAEQAAEQAAEQAAEQAAEQAAEQAAEQAAEQAAEQAAEQAAEQAAEQAAEQAAEQAAEQAAEQAAEQAAEQAAEQAAEQAAEQAAEQAAEQAAEQAAEQAAEQAAEQAAEQAAEQAAEQAAEQAAEQAAEQAAEQAAEQAAEQAAEQAAEQAAEQAAEQAAEQAAEQAAEQAAEQAAEQAAEQAAEQAAEQAAEQAAEQAAEQAAEQAAEQAAEQAAEQAAEQAAEQAAEQAAEQAAEQAAEQAAEQAAEQAAEQAAEQMBB4P8D0UlJmujLyYoAAAAASUVORK5CYII=;" parent="1" vertex="1">
          <mxGeometry x="610" y="960" width="126.97" height="51" as="geometry" />
        </mxCell>
        <mxCell id="RkbI90MtC3Ka5tVacX1f-9" value="" style="shape=image;verticalLabelPosition=bottom;labelBackgroundColor=default;verticalAlign=top;aspect=fixed;imageAspect=0;image=data:image/svg+xml,PHN2ZyB4bWxucz0iaHR0cDovL3d3dy53My5vcmcvMjAwMC9zdmciIHZpZXdCb3g9IjAgMCAyNCAyNCIgcm9sZT0iaW1nIiBmaWxsPSIjMDQ2N0RGIj48dGl0bGU+TWV0YTwvdGl0bGU+PHBhdGggZD0iTTYuOTE1IDQuMDNjLTEuOTY4IDAtMy42ODMgMS4yOC00Ljg3MSAzLjExM0MuNzA0IDkuMjA4IDAgMTEuODgzIDAgMTQuNDQ5YzAgLjcwNi4wNyAxLjM2OS4yMSAxLjk3M2E2LjYyNCA2LjYyNCAwIDAgMCAuMjY1Ljg2IDUuMjk3IDUuMjk3IDAgMCAwIC4zNzEuNzYxYy42OTYgMS4xNTkgMS44MTggMS45MjcgMy41OTMgMS45MjcgMS40OTcgMCAyLjYzMy0uNjcxIDMuOTY1LTIuNDQ0Ljc2LTEuMDEyIDEuMTQ0LTEuNjI2IDIuNjYzLTQuMzJsLjc1Ni0xLjMzOS4xODYtLjMyNWMuMDYxLjEuMTIxLjE5Ni4xODMuM2wyLjE1MiAzLjU5NWMuNzI0IDEuMjEgMS42NjUgMi41NTYgMi40NyAzLjMxNCAxLjA0Ni45ODcgMS45OTIgMS4yMiAzLjA2IDEuMjIgMS4wNzUgMCAxLjg3Ni0uMzU1IDIuNDU1LS44NDNhMy43NDMgMy43NDMgMCAwIDAgLjgxLS45NzNjLjU0Mi0uOTM5Ljg2MS0yLjEyNy44NjEtMy43NDUgMC0yLjcyLS42ODEtNS4zNTctMi4wODQtNy40NS0xLjI4Mi0xLjkxMi0yLjk1Ny0yLjkzLTQuNzE2LTIuOTMtMS4wNDcgMC0yLjA4OC40NjctMy4wNTMgMS4zMDgtLjY1Mi41Ny0xLjI1NyAxLjI5LTEuODIgMi4wNS0uNjktLjg3NS0xLjMzNS0xLjU0Ny0xLjk1OC0yLjA1Ni0xLjE4Mi0uOTY2LTIuMzE1LTEuMzAzLTMuNDU0LTEuMzAzem0xMC4xNiAyLjA1M2MxLjE0NyAwIDIuMTg4Ljc1OCAyLjk5MiAxLjk5OSAxLjEzMiAxLjc0OCAxLjY0NyA0LjE5NSAxLjY0NyA2LjQgMCAxLjU0OC0uMzY4IDIuOS0xLjgzOSAyLjktLjU4IDAtMS4wMjctLjIzLTEuNjY0LTEuMDA0LS40OTYtLjYwMS0xLjM0My0xLjg3OC0yLjgzMi00LjM1OGwtLjYxNy0xLjAyOGE0NC45MDggNDQuOTA4IDAgMCAwLTEuMjU1LTEuOThjLjA3LS4xMDkuMTQxLS4yMjQuMjExLS4zMjcgMS4xMi0xLjY2NyAyLjExOC0yLjYwMiAzLjM1OC0yLjYwMnptLTEwLjIwMS41NTNjMS4yNjUgMCAyLjA1OC43OTEgMi42NzUgMS40NDYuMzA3LjMyNy43MzcuODcxIDEuMjM0IDEuNTc5bC0xLjAyIDEuNTY2Yy0uNzU3IDEuMTYzLTEuODgyIDMuMDE3LTIuODM3IDQuMzM4LTEuMTkxIDEuNjQ5LTEuODEgMS44MTctMi40ODYgMS44MTctLjUyNCAwLTEuMDM4LS4yMzctMS4zODMtLjc5NC0uMjYzLS40MjYtLjQ2NC0xLjEzLS40NjQtMi4wNDYgMC0yLjIyMS42My00LjUzNSAxLjY2LTYuMDg4LjQ1NC0uNjg3Ljk2NC0xLjIyNiAxLjUzMy0xLjUzM2EyLjI2NCAyLjI2NCAwIDAgMSAxLjA4OC0uMjg1eiIvPjwvc3ZnPg==;" parent="1" vertex="1">
          <mxGeometry x="756.97" y="961" width="50" height="50" as="geometry" />
        </mxCell>
        <mxCell id="RkbI90MtC3Ka5tVacX1f-10" value="" style="shape=image;verticalLabelPosition=bottom;labelBackgroundColor=default;verticalAlign=top;aspect=fixed;imageAspect=0;image=data:image/svg+xml,PHN2ZyB4bWxucz0iaHR0cDovL3d3dy53My5vcmcvMjAwMC9zdmciIHZpZXdCb3g9IjAgMCAxNiAxNiIgY2xhc3M9ImJpIGJpLXBsdXMtbGciIGZpbGw9ImN1cnJlbnRDb2xvciIgaGVpZ2h0PSIxNiIgd2lkdGg9IjE2Ij4mI3hhOyAgPHBhdGggZD0iTTggMmEuNS41IDAgMCAxIC41LjV2NWg1YS41LjUgMCAwIDEgMCAxaC01djVhLjUuNSAwIDAgMS0xIDB2LTVoLTVhLjUuNSAwIDAgMSAwLTFoNXYtNUEuNS41IDAgMCAxIDggMiIgZmlsbC1ydWxlPSJldmVub2RkIi8+JiN4YTs8L3N2Zz4=;" parent="1" vertex="1">
          <mxGeometry x="731.97" y="978" width="16" height="16" as="geometry" />
        </mxCell>
        <mxCell id="RkbI90MtC3Ka5tVacX1f-11" value="&lt;div style=&quot;&quot;&gt;FFM Llama3 LLM Model&lt;/div&gt;" style="rounded=1;whiteSpace=wrap;html=1;align=center;fillColor=none;" parent="1" vertex="1">
          <mxGeometry x="652.45" y="1012" width="154.52" height="19" as="geometry" />
        </mxCell>
        <mxCell id="RkbI90MtC3Ka5tVacX1f-12" value="" style="shape=image;verticalLabelPosition=bottom;labelBackgroundColor=default;verticalAlign=top;aspect=fixed;imageAspect=0;image=data:image/png,iVBORw0KGgoAAAANSUhEUgAAAlgAAADxCAYAAAAX6snTAAAAAXNSR0IArs4c6QAAAERlWElmTU0AKgAAAAgAAYdpAAQAAAABAAAAGgAAAAAAA6ABAAMAAAABAAEAAKACAAQAAAABAAACWKADAAQAAAABAAAA8QAAAACfY950AAA7xklEQVR4Ae2dQXbbtvb/AdlOMrPfCuxO2mRUvxVYXYH9VhB1BXEHSc8bVR39T5xB3BU8dQV1VvDkFTx3FKeT2iv4xbM4tsX/vYAlESBIkQBIUeIX5yQmQeAC+IAiL4GLCyEQQAAEQAAEQAAEQAAEQAAEQAAEQAAEQAAEQAAEQAAEQAAEQAAEQAAEQAAEQAAEQAAEQAAEQAAEQAAEQAAEQAAEQAAEQAAEQAAEQAAEQAAEQAAEQAAEQAAEQAAEQAAEQAAEQAAEQAAEQAAEQAAEQAAEQAAEQAAEQAAEQAAEQAAEQAAEQAAEQAAEQAAEQAAEQAAEQAAEQAAEQAAEQAAEQAAEQAAEQAAEQAAEQAAEQAAEQAAEQAAEQAAEQAAEQAAEQAAEQAAEQAAEQAAEQAAEQAAEQAAEQAAEQAAEQAAEQAAEQAAEQAAEQAAEQAAEQAAEQAAEQAAEQAAEQAAEQAAEQAAEQAAEQAAEQAAEQAAEQAAEQAAEQAAEQAAEQAAEQAAEQAAEQAAEQAAEQAAEQAAEQAAEQAAEQAAEQAAEQAAEQAAEQAAEQAAEQAAEQAAEQAAEQAAEQAAEQAAEQAAEQAAEQAAEQAAEQAAEQAAEQAAEQAAEQAAEQAAEQAAEQAAEQAAEQAAEQAAEQAAEQAAEQAAEQAAEQAAEQAAEQAAEQAAEQAAEQAAEQAAEQAAEQAAEQAAEQAAEQAAEQAAEQAAEQAAEQAAEQAAEQAAEQAAEQAAEQAAEQAAEQAAEQAAEQAAEQAAEQAAEQAAEQAAEVpSAXNF6o9ogAALvPvYVhInQf/lEyn36f4cPC0OSjOfXexeiN/ks7sWV+PeLq3k8jkAABEAABHwJQMHyJYd8INAUAaVIkeKUiD0qkhUo/rdN/+oK1yT4SrASJukv/3v9YlxXYZALAiAAAutIAArWOvYq2rTaBFihSuQRNYIVqYMWNeZcK10bZ+LNtxctqheqAgIgAAKtIwAFq3Vdggp1jsD/+7gnNniaTylVhyvSfh7lOhMyOcPo1or0GKoJAiDQKAEoWI3iRmEg8Ejg/d874u7LEdlMHdPU3/crzkUrWw/JKWy4VrwnUX0QAIFoBKBgRUMJQSBQgoCyp+oNaKrtZYnUq5jkXIhkJN68GK1i5VFnEAABEIhFAApWLJKQAwJFBE4+DmgKcEhJdouSrdG1a1K0hlC01qhH0RQQAIFKBKBgVcKFxCBQgQBPA379cqymAetd9VehUo0nhaLVOHIUCAIg0AYCULDa0Auow3oRgGLl6s9rMogfwCDehQZxIAAC60gACtY69iratDwCeirwlCpQp5+q5bUvvOQP4iE5hjF8OEhIAAEQaDcBKFjt7h/UblUIaN9VI6puV2ysQnrmhpyXDsXr56yIIoAACIDAWhKAgrWW3YpGNUZAuVu4HVF5q+K/qjE0JQr6ILaeDsRP33wukRZJQAAEQGClCEDBWqnuQmVbReDdJfuwGlKdMB3o3zE3QvT68AzvDxA5QQAE2kkAClY7+wW1ajMB5XldjqiKbdrGps3EStQt+REuHUpgQhIQAIGVIQAFa2W6ChVtBYG3n8j7OjnSxKhV/O6Q8nfx+rtBfMGQCAIgAALNE4CC1TxzlLiKBNjW6v7raSs9sEvxJ01Vsh3TBdXv0Z6pdyF6kwLbJrkvJsmO6gpJx0LwMf9d7nQnlCzVJfgPBEBg9QlAwVr9PkQL6iZw8te+kJNRC/YMJHslpUSNyW7pghyYXkW3XVKK5BdStFjpon9J0qcym10ZCSWLkCOAAAisOgEoWKveg6h/vQSWPyV4Ti4NzkTSG0dXpsqSUzZnoi9kr08K1xFlq3+UC0pW2d5BOhAAgZYSgILV0o5BtVpA4O3HIY0S/bKEmnygffzOxNazs1a6MOARPTEZEBf+V5+yBSWL8CKAAAisKgEoWKvac6h3vQTefaIpweRlvYWkpCs7quS0tUpVqqrGoR7hG1DcoREf6wRKViySkAMCINAwAShYDQNHcS0noGyQbseN2VuxApHI06VN/8XqDp5G7NGIlpTHJDLyqBZcOMTqJsgBARBojgAUrOZYo6S2E2hOubqh0bFT8eTZaSunAEP6STMckILKilY843iZ/ICNokM6BnlBAASaJgAFq2niKK+dBJpRrtZXsbJ7lXl+/XIccUTrhrbV2Vs7hdTmhnMQAIG1IQAFa226Eg3xJtCEcsVTgZtPjjunIDDbu9sh9c0r7/6ZZzwXb57356c4AgEQAIH2EoCC1d6+Qc2aIFC/cnVOPquOV97GKrQv9MrDUxJzECQqSX4VP78YBslAZhAAARBogAAUrAYgo4gSBN597KtUE/K3NA1Szo+ncfO/n8mO6WJ22hNjdbz57KLSKNG7S/J+Lr6fyYl3cEP+q4bi9XNWKhCmBKJskN37Z+cV1ilP/AUBEGgtAShYre2aNa2Yss352ic/SuQdXSlQe9TSeMbQc2zkoJM8nQtWwujf6xfj+aXHo/pcMZyLh2Qg/v2CykfIEOAVh5uSnKd6K7aYKsxARQQIgEDbCEDBaluPrGN9tK8k8gROo1P+L9VwMnrPvrFSuGSP6lKDnytMYZXvp5NLHt3ztM2C64byoJESBEBgGQSgYC2DehfKZKWqJ45IiTmi5m53oMk0JUhtdY2UdaDx3k3034oIqwq9oSMjCIBAEwSgYDVBuStlqD3rlKNJVqrqmPZrJ0keGdt82q9k+9XOliynVr6baWO0cDn9hVJBAARKEYCCVQoTEhUSYAP1RClWh4Xp1vFiV90vxO5L39WcD8k3sHWL3RmQBwIgEIMAFKwYFLsqQytWQ2p+2NL7VeWHffLi91zVhQfog/h9AIkgAAJRCEDBioKxY0L0VOCIWt1NxUp392/k9PK4Yz3fTHOrKlkYxWqmX1AKCIBAJQK9SqmRuNsEeBqHV35tyL8JRIeVK17BBuWqth/D6+940+jfS8vnTaYRQAAEQKBlBDCC1bIOaW11/Fd7tbZJXhWDYbUXNq9M5UeysKLQCzAygQAI1EkAI1h10l0H2XrU6oxcEPxBzemCu4X8XuNRFWzTks8n9pXyI1nb4u4Lr1xFAAEQAIHWEICC1ZquaGFFeNTq7vaKata91YF2d8CY2ibSzDkrWUKcLyxMqlWsC5MhAQiAAAg0RQAKVlOkV60ctrXCqJXuNeXn6gkM2pd1D289PaJdAP4sLJ53CFAbShemwkUQAAEQaIwAFKzGUK9IQXpKcEy1fbUiNa67mjdwIlo34gXyf/rms7hXOwLcFKecDIqv4yoIgAAINEcAClZzrNtfEo8A3N1eUEU7vELQ6ibe/oZf8AjLJcAbZ3NfFIdB8WVcBQEQAIHmCGAVYXOs211SG1YJ6s2Yr2j/wgvRk6TU0N904H3+1LYqDzvzaLkvJskOLevfpziOj6ccYsXgHHNbjt5+HFJf/5JbnUT+S/z83VnudVwAARAAgYYIQMFqCHSrizn5OBBC/mcJdTwnZWpMm0KPo26SrPe261Ob9kk+/fXaF/GcfF1xXoS2EXh3eSHY5sod4ADWzQWxIAACDROAgtUw8NYV17xy9YFGps7E1rOzxqbeZgoXOaTMfzGnuwZ+ldI02nasdxK4oGptO6p2TYrxniMeUSAAAiDQKAEoWI3ibllhzSlX17QK7JSMxUeNKVV5qPnlzJ6/pRxQkl1nMkwzObG0KrJwqrD3T/HmW1bAEEAABEBgaQSgYC0N/ZILbka5oilAedpamxjerFr0aFQreZnqDUwxpWC0+jBvqlCKn8Tr56etrjsqBwIgsPYEoGCtfRc7Gli/cnVOK76GUe2qHM2IFqWnnI5J3j7srqJRrV8QK8iJ/K+joA/Uj0eOeESBAAiAQGMEoGA1hrolBdWrXF2TfdVQvHkxaklrUY11J3ByOaYmHljNvCEFa8eKwykIgAAINEoAfrAaxb3kwtjYu67VguzSYOspjQBBuVpyL3er+Idk4GjwtuBRSQQQAAEQWCIBKFhLhN9o0eqFMxlHL1NtYUJGxbwJMhxyRscLgQsIKAektAm3HTZE347COQiAAAg0SWCzycJQ1hIJbMozclHgWtbuXyketXpDihUCCCyTwP1kKDZkeqEC1UY5nl1mrVA2CIBAxwlgBKsLNwBv3FzO/1NZGjdkxP6DGrUqmwPpQKAuAjyKJcS5JZ6mwxFAAARAYHkEoGAtj30zJStXBBE3buYpwYdkf2VWCDZDGaUsmwC7AzEDFCyTB85AAAQaJoBVhA0Db7S493/vPG7evBulXFauNp/2YWsVhSaExCZwcnlFIuf3+tbTf+BejQ0Z8kAABMoSwAhWWVKrmO7rl2Oq9vyFE9IGSYbEUK5CCCJv3QSSZGQUcf8Fo1gGEJyAAAg0SQBG7k3SbrIsXjUo5S+RivwgXn83iCQLYkCgHgITMRIbYn7PJ2KvnoIgFQRAAAQWE8AI1mJGq5liQ46iVJynBbeeDqLIghAQqJOActlA9+s0QMGaksBfEACBJRCAgrUE6LUXqQ3bD4LLgc1VMEIIaJjAJDmbldjr7c2OcQACIAACDROAgtUw8EaKS+QwQjk3IukNYCQcgSRENEdAbswVrCTZa65glAQCIAACJgEoWCaP1T+LNXolkmPx5tuL1QeCFnSKgL5nbzrVZjQWBECglQSgYLWyWwIqlcjjgNw6K68YxJ6CwRghYGkExo8l7y+tBigYBECg8wSgYK3TLaA3uD0MbNKN2HwSrqQFVgLZQcCbgBTjx7xxt4byrhAyggAIdJEAFKx16vWNCKNXiYTd1TrdE51sS4Kp7U72OxoNAu0iAAWrXf0RWptBoIBz8fN3Z4EykB0Elkvg9YvxciuA0kEABEBACChY63IXvP10RE0JnBLpYWpwXe4HtOMaCEAABEBgmQSgYC2Tfsyye4IVLP+gDNuxatAfIHK2jMCVqo+2S2xZ1VAdEACBLhCAgrUuvZwkYQpWIk/XBQXaAQIiScaKwia2y8HdAAIgsBwCULCWwz1uqeHTg+fweRW3SyANBEAABECg2wSgYK1D/4dOD2L0ah3uArQhTaA3c9WQjsUxCIAACDRGAApWY6hrKujkr32aDgmZHrzBysGa+gZil08AKwqX3weoAQh0lMBmR9vd3mazUS7bjUxEX0i5QxXdf6zsHv3dfTxO/Zmkjr0OR165kAkEQAAEQAAEQCCXABSsXDQNXeARKDnpi4QUKqH+bdOxELKh8kVv1FRJKAcEQAAEQAAEukIACtYyelptyNwb0NReX4jJrlKollEPIW5g3L4c8CgVBEAABEBgvQlAwWqqf9//vSO+fjmmaT9SrHiqj4eplhykPFtyDVA8CNRDYPPZhbj/8kM9wiEVBEAABBYTgIK1mFFYCmVT1RuKu9uXpFyFyYqdO5mMY4uEPBBoBYGfvvlM9Ri3oi6oBAiAQCcJQMGqq9unilWSvKSpwLpKCZS7cREoANlBAARAAARAAAQcBFo2pOKo4apFzacCf2l51cn+6vlOy+uI6oEACIAACIDAShLACFbMbmPj9bvbEU0Fko1V6wNGr1rfRaggCIAACIDAqhKAghWj53jU6u52SHbrr2KIa0gGFKyGQKMYEAABEACB7hGAghXa5+zH6p5GrYT4PlRUo/mluGq0PBQGAiAAAiAAAh0i0OtQW+M39eTjgPxYjWnkarWUK0UiwQhW/DsCEkEABEAABEBAEYCC5XsjvLs8Jnfr/6Hs274ikA8EQAAEQAAEQGA9CWAVoU+/vvs0ItcLL32ytibPm+fo+9Z0BioCAiAAAiCwbgQwglW1R9dBuaraZqQHARAAARAAARCoRAAKVhVcUK6q0EJaEAABEAABEOgsAawiLNv1bHPV5LSgFH+S8fyY9iy8ELzi757+/fvFVaa67CLi/ss+pd0jm7B9us7/DjLpEAECIAACIAACINAYAdjhlEGtVgsqg/Yyqf3TSPm74P0Bt56dCb2Xmr+st5+OhEz6pJz1Hascz8mLe99fOHKCAAiAAAiAAAgUEYCCVUSHr7GfK3bFUN9qwWtSgk7F5tNRsFLF9XUFtX3PV1K2ZgrX5+gK1snl2FV0t+KSkXjzYuRss1Z4aeVpxJDIU/Hzd2cRJZqi1KitODIjQ896x+LNtxehUpz5Ty5PKX7fec0nMuZHiHqOPOiRZin7PtVZkTwX9Gw5jlLXoGdKzm+x6HdYtr+z9TLbrD/IBwYDKc7E6+d8f5ohK0uIh2SQma14+3FIO4T0zcw5vyXeB3dDjsy0j2cu2a6Ert+SlFfi9XcDV3LhanNZnk6B6xGJKcKiftQe2s8oSR2uGK5p+m+Y+0IuqlfVa3o0jNvB/+oKmJZUU7o5ePnhJJK4jKTyZVZnnw6oNZF9vJGSIcQF/asjvIoo9DxYFr/Me6SgJskRfaTRM4S+Z/FJWwWr/+8l77eo+iPHhIK3Onv9YlyigsX1Snqf6WPWTJMoqaeGbP3xbqbjBL0e/0au+HAWepLuI+u3mPehsqnSZuWyML4m6IN+ceA6mDISatPJx7HzncUmKtJKv7iMtU8BI/eiLuZ9BYXYLUrice2GHri/0lfenvNG9RCILCtAQD8MbyLXlB+C9QX7gR6lJGUnGEWSIUS9rIyYsJMkGXsJ4I8yHm04ueSX7B+PdpukXCG0goBSdnNqkijlI+dihejJ5MKR2vFbVR8bjqSTbNrsb7HoA2DgEKqjEjIZCQpyKPgeRyhFAApWHib++hTiMO+yZ/w5Df/ui59fDD3zI9tqExhHrn72QRyrAP6aryfUVOe8l5VnI3q8wKRi4GmSu9srmsr5hXJCqaqIr/bk+p4u6hd+5ocHvRjp2hK0LXjqLh1kr58+nR3bU4Gu32LeBwArP1llbCaaDg4DFaRd8fXLcVogjvMJYIrQxUZPDY5cl7zjeNQKipU3vrXImPCKUBlTadcPbdfq0mBgNY002dMOwfWcCoha35uSU0W6cP28OKMTc0plWjX89SPAz0w7SDmgKHNWwZXOpSBnR6hYCUrL2lU2t3lTb3Zdis6lHGdWnW+KPcpyNc9GH9vusGdGO+5tV/s4090XUhJlOjuPmptKpUojRulElY6lPCZlcZSxE6skpBuJoWC5+vn+6ylFmzelK125OLrBk2NSrkblkiPV2hLgh2IieHQjXsg8tGOJ5od6EkuYKYe/5OMrhXkvK7PscmfjcskoFU9N3t1y+ljPi9JFr31C1wfpyWWf2p1WikSFD1dSPlIhIUN4Pdo4j5STPp1czCM8j3g1uJAvjdwTNT1H8Y8hf6RpV40yzVaSZ36LBR8AmWnOEZU2oH/z+1P2+nQ+on++YVts9oaUeeAroCv5MEVo9zQPx8bzd0XKVa8PWysbckfPyxnQVoOjH9rV8pRKnft1XSp3YSJtxFuYxOPigUcedxZZcnpQGymPScj85eWWiNhlE9A2eqZiNlFKBo9ipcMgfeJ9/OC4h2RqJCo77WfaZ7Jvw1nI/BbHs0vZg0MjKqGRNGHVpcgOzchsnJj143dktg1GBpzQ2x8QLAIJGfHFCY/K1bfhX0Nx6gMp7SBwHrUa6Yd2TMH5X9cRSnEY8YZIjW7g3hsvrA6Uq4WIWpVAj0ylq3T9OIp6lo5U9ku2rZSRoOSJHqE1lRIp9ua5U8qWjjTfE+kPJ/u3mPcBoO2G50Xw0ZMnYxqJNtvIHwSutJw+P4zoktmeeO/K/FJX/AoUrHQHao08xpcwlKs0VxzPCeQZp85TVDsyHtrVsuamrvvL1Dbiza1I2QtRDdxvFvrpUquoavWNV7bhSFeewMBIyjZSHPQIjzqc/addGcxOAw7GRl5DUbIVLJquTIfph5Prt5jkfACwC4p04N1AeJrRNZpmp03ncx0nyWea2Tm1Lh14KGqWiPU+hYKV7t9YGrkkvzcxDCXTdcPxmhDomV+qoa0yHtqhwh7zp7+eI4m0xOxZ54Gn9ssqSNx4Ye67Wx4RwLTgQlAtScAjUvbvZPLoE1A76rVGZkQ/Ss1dI00zhSk17ceKEG+Hlg6zD6fMvZ3/AZCQI+l0mDyOXPFoGpeRDnba9LW84yfPWMEyWclHpSvP6D5PVkfioWBNOzrW6JUUP1VagTQtH3+7QUAN2Udu6uyhHUnu9Os5kjiHGG3E67jgGbXvmS+bzfVSTKdi7/ZYLZgm0v7jDYfCZP4Ox1YjQl0ZaHGukSa1ZyxdNhQ+eZF5Z0yvT9PPKzieH6aOXDZmaaVnqmzNs+gVk/PzxUc8GpYdxSI55J4EwUkACtYUS5zRqw/O7RCmZeAvCPBDyv6aDKaS+coNlRhPYcmriWHEm5eodHyMaX1dmOulOK2G9jE0nJ7i76oQyKysuxZ8//GHif44ucq0RLsyyERXinDOYtBvNfNBpHZkYNGmwb1WmszfYu4HwGTgrNu0jT35OXs9J0824TzGNYolotktz8tZkyMoWNyR2qgx9CF9LbaeDtbkvkAz6iSQt42Hb5nZr1xfSeLRCaG52spfWn7OWNOQcQ3crwun9rWDRUwN5vdqW6+YK+vYzUMi/zv7J8SrTMVlr5+J84uwF7WQwmR9EM2V+gujiCTZo3PzvTRPaySlj7a+GUFn6TYm4n3muitPJpEVkTeKFev3bBW36qdQsLgHN8hxWmiQtEEn33wIILCIgMuwdlGe4uv00I4U4o4s5Vcq2jRkRAP3qeGzq9Y8esUOFhFWi0D11XK6fX6uDLJssota6LdqKVjTkS52RJwOWUN09weAy8YsLSfvmKchfVZM6lEsc7RNO4DNK6mz8VCwdNcPAu8Amhp8MQ6UgexdIeDeqyyk9eZXboikpr5EZ0a8IZXlvNbLKkSccg6ZI+D+dkBXtnOuIrqtBLJKStma+rgyyMpO20Hpq9tkx7SXSjgf4bLT2oboeR8AIaseffKqgYRkmGoDH9Y/6m0VuAqn8OSuDfTCHpwP5KkdAQTKEuBVPSeX/AUY76HEX6IxvKNHG1laAGNqxLsgWYnLNCIQKbiWs89FD+aHtR3d0CjZmeAVblJeFU5X1laFNROcHYm6cRhqk54u+9Ry80NFqlV5Z0FE+MP75NIWMS8nPcK1+eyCdgVIpzWfD3kfAInlnoElOLcP6tFqSnIQaoYBnZ6aUSXO3tDOJLzgI97vuEShq5cECpbIGEBW60W+kWO82KqV2r7Urh90jFr2nA8Ff8lS/i4mkyt/AQU57S/QgqT0QB87HnZFOYqvae/oV8WJSl3tl0oVIxEb4IaP/M5fVmF1mjqezErRew1+n70QNeY3suEcwswgIlPtDNb+eB47t9bhe5FtlsxwRKfHZpTXGY9S5dynKbctPDJU9OHl+gDQ96Yt+9rZRp32pdECVpA43su8hQcWMswM8V0/6baCpW+4w4Cb4Ebo+egAEWuS1bVvWIymqRU31p5eQXInI3r4jINExMjs2qssSK7yjn4WJELbY9gvpCCRxZnV9N64OE3BVf0CLUhQ4VLe9AuL+Pq1T0bEdQUatSK/eeGKZl31W2G5rlVyGa/mun16pIl9PKXv/1ibP1+QXFsJ0uWa7iI4jtPu6ovG/+4PgOzmzpzJ/RxgJerd5Z+ZUSffzZ81swLl0ah/J0+6bYMVuhSXh/O9NP9O3mtodJqA62s0fb3qcYypvXr2CCxoSaj9VEQD97zpF1X7yFv7zInQC70XYxRvLhFHaQJH6RN1XPS74+d5JriUtEyi4oj8RS3XmfeHbeg+lZz3ASB7/WmS2d/88jjJaJZudhAyi9M7nonBQYZAtxWs0OnB+8kwQxQRIFCGgJ5WNr0il8mXn2Y//1LZK7UpEu4KmMa+7jSFsaEKWkp48Yu3n0oZ8ZCmWKYryCJKhSgioEdj7ZEg9yjQFJhLyfZxZTCVN/2bHaWaXrmYHsz/pqYM55FkU6W2ZkrH6OOsjZkQ2jt9Ni3HuN08+M/i8P3LZhcITgLdniIUou+kUi7yHLZX5UAhVS6BMV3xf7iZYu2XiXm1zFn0PQIXFuqeNlmYbZYgglJJstjxa/N2lLTkngyFESoSoD37yviR29jYEcnDr6bwHOVlmmjr2Zn4+mVveqr+JsaZPrHtTaW1zY2dRU/N/SQmyY5xyWWzySuMe8KqN+WaiLGRl09YibQ9qy+qCytEbz9m5WcWyVicXXWdVogHGnoLGEzTduyv7Fh7583V9hv/m0dUPUp+xAOyKjOP9G7jUw9Bj1lk8kNr7F30Kpz3/o2xcoa27eTyM0nctqTWfNr7p/cozsml6/XnU9/fxJvnx7kZ45UzL0JtqfX8dB6BIxAAgXUj0N0pwuThKKgz+WsHAQRCCLiH6wMkBkyZ+Ru4B05zetpRxfTgXmyzEtAfRVktp5JFSXENBEBgJQl0V8EKMwo+zxgnrmT3o9JLJaDtbwIVlFQLQrbMcW2ImxJdcHhRcK3EJV+l0FMxc9Uo30bGlTpOHFYNxuEIKSDQYgLdVbBC7K/SzuFa3Lmo2koQCFRQjDbuG2eVTnwVHbWs/LpSUWZizzp719csne2vsBLYZIIzEACBKAS6qWCx/6sQW5Mig78o3QIhnSEQV1kPMRr3U3SS5DP11VVAf/mVK4RvPrOqZQymzRw4AwEQAIFSBLqpYIVuaIvh/VI3FxKVIBBbWfe3TfJTzrj+vK2Lf9j22nA2z3Fj1Xosxf6qaiWRHgRAYBUJdFPBCtkglqcUEEAgFoHYyrqPbyl/pUyIexq9Ct16qKqD05D62v1W5DPIThvzXC8qiCkRskAABFpGoJsKlu2PpEqnJEHTIVVKQtruEDiP19SJx9RZgME4+49a5HtnYeOq1jmgvmZdInI3BS88819UsFA0EoAACLSDQDcVrBCHinlbGbSjP1GL1SRwEa3aXve2t8G4VlBCFazKdfaur4m5rP1bLaPWIduTmM3AGQiAQDsJdFPBamdfoFZdJRDXDmjPA6PHqBeVMrW94mnCsLBXMbtffe1Cytq/JeKznTXC+aGn7VmEoiECBECgCQJQsKpSLvtQrioX6btLIK4fpl2hV8lW4eln4D61vQrfZqZqnf3qaxMpb/8Wb4QxXYcNOUqf4hgEQGC9CHR1L8I4D+j1uhfQmmUR0HuV/Ul7rH0fpQp6ley4lCy1FVGplNlE6Y8NnkYLqX/ZOisD90m2LtVjKthfsdd1Wb2ExTkOxLtPI/H6u8HipB1MwfemHVxKMS8Y2BR7RlIeVbUVf/7wsFeQJxufja2a+P6SDzuGrEUndp3S5UxE35ldTatvXBhlOxMicpUJdFXBWuU+Q93XkYD2xxRHwdKrZMflMAXYM20+m4/shE6j6RdRiTqzgXsEZaes/RVDfCBXFBvlaFZOlSQvxbvLfXGfHGUUgsrC1ixDIs+oRebemCd/Zfeu3JCnpNwfGq3fEKxA9424r1/7NK39hxEnJr/R+fE8bkKyZNUPcPOGZCUukf9VMs0r82LUEX0onFxe04bNI/Hzi6F1EadrQABThGvQiWjCOhCIuTddFaWpSlqD843hAb2KwmKIeTwpvXWVd33NUuUGv7zLBT0Scl0usUcqHvnbkH/Ty/ZMvP105DHF61HoSmQZZ2rpdkNCSncmOOIcq1VlUv4+yBQRJWKXlL5fSMm+QL9H4dkqIRjBalV3oDKdJRBzlMT9EspBmzheRDlJzegL4zR4JaHYM+Tln/jWNy3xxmNqhl/Er9JCajg+FDI5FHe3PLLB4s9rKGORyAsaUfksePqXRyiXuY0Qr9iW0hyZEkpJ4r7Qgafj7m53p6epv9qBbXqa0LVa1Z7eSwlo9JCV7K9fjqnMYaPlorBaCUDBqhUvhINASQL8IuDpAiFcL4uSQmbJyk9x+NpN2SNWrGAls/KrH5SvRwwFa1y5gg/JKY0y1a1g2dUq3492Tv/zA1JqBPXlL0rRe3fJjpVHNIV51vgUJit5XI90sJUkZVNF9XUFbZd1lbpk3zvlFNgk+TUlw+9Qip/E6+enKrOye5SsTJnKo1RxQ78CkKuNBLqqYF1TZ+x6dUhpWxEv6cjUZQJS0guFbHJiBDbWffPtRaGoEAN3e8SKRzt45CUkcH2KRhS09/PtkCJUXkkv7qqBFeB3n36P1j9Vy19Weq34vifl8j19AJzTCNuwsI9i1pPvBT2Sl5a6lz4R/DzO0a/UNfHY1657x/5IMASnTqLYR6VMAPQ9zm27olLS76HweztVbRwun0BXbbCulo8eNQABi0AyGVsxAadlvJ2H2DPRCqh00FNJN+mo6scL6mOvFKtegM6R9MZeWe8nQ69865PpQBlvn1ySckAKfDPBHmUyXXrYI1rpOqXt+lzbMaVXwabzNXUsa/Gv1lTtUU4JAl1VsEqgyUmS/tHmJEE0CPgRsJQWPyE6VyL2FmdfoNAUCXCPjplKV1F+17VFdc5b8u6SlR/nY3+lpWl7Hl511vVwIMTkf+Ltx2HtIFyjTKarhbmil/W4P7+mbbfM6haNlpop45/xYobstPiH+AVB4jIJdHOKkD1QJwk9JLzCjlcuZAKBRQRYaTm55FGg8KmCoi/7WT28DdztUYWpRFawfH9XLCP1QpyKTP3t9fbod5uK8Doce+WaZtp6OqSp0CM63Z1GdfYvr347udwXW08H9RnD9+iesvtcfRiMHz3hz38rE7ITk/L7VH/o0S4eXc3+HvLu4VT2x8MiRZJHwUopar0BKaR9JVF9pNNiBjPciIfk2IzC2aoT6KaCxR6o2ZDTL4S8QPxKRK4uERhTY+2Hr0/79xZmyn5BL8zymIBeeq7AdibevysWuOC35a0QzivrY381zy2UIvHu42Dm5yh9rZvHh+L+dkwuBvq1KFlPnoyztn2PI69q2i+tfJEyJhPT4a0e7RpT1+wb3SPFmXFedMKKZF6YqPLHeZdn8Wxbmf/OOSflatD4IoJZ5XBQF4GOThHyV1FAaM7+IKCSyLqSBEIVgHmjTVuVebw+cnnJttPknqcMdtNpbMP39LWyx9oY2Z3aXyGcy+PVcKFBjVgkP4aKWZv83C9aydqJ3iY1+kS7BKTDzA2J5ddKzUzY+2KSMqa3jpqPdLEsXzu8dD3iHe8Jl41YPPmQtCQC3VSw+IcYEuSkH5IdeUEgn0CO8pKfIf+KaatipXscBbBiy53m2IqVmipZUEKeIXucj5rraKMEb16MaETi9wWt6c5lVrLubke1NFjvcpAWfaBOzGk/bVvHvrPSge36sr8Dfzu8tOx4x+RsNPmDnI0exxMJSW0g0E0Fy22gW74/EtEvnxgpQaACgRhKyqy4IiWq6NpMgOug+OWUNTR2yciPyzVkL7MqMl+susJuMGIG3kMwho+kmHVarqzDWpSExNFveqRzP9VcrVhlVwbuP7prSCUlu6kqgfs471+2PLdkmfwg3jyXZK/2D5pe/hclyhq0J+L9o12ZWwZiV45AN22wdDed0x/9JVS922LYyFQvFTm6QiDk3pwzKlyV523PZI4QzEvTR4maovneji59zobsrsBtka4LFeKiusF4LJd9JL39xLY/I4oxp6EqVG1tkmolIa5T0snkgvxwmYi0/dWc93S1YdYf2z5Nv10ZiyOqTsNH8YP1WH3tzuSMzs5ogQD/Nd8lG8rZ6LHZWJytKoFujmBxb01/kL49x8tsEUCgDgKh9+a8TvvzQ+vI155pUd3sKRqr2IWnM/saK6U5HWRdLHnK2xHVEX7+7oyMlJk1K8YIG3IUFYJ2j3FtyJTWirvpSJJWYNJpt+lZv2fkbYv9VeLklP+bNRqBk1Ug0F0Fa/qD9O0lSas+EECgDgKh9+a8Tu6HdYiB+6K6Lbo+r1veUd6o8l5ehpLx8eyvXAWyEvDmeZ9Gsn6gy11XtA5EyD3m4pud3jXvEx65mof0Mcem0xZPcc9l1H8kJzv1F4ISlkmguwqWtnVhn0O+4RC7n/uiQ75CAvHssPSGt5nCvO2vhNoAOCMvFWG+6FIXKhzaKwn1KrDdChKySbMv6GyaGDHcd1NFSxvBhzxjYtRoOTISOYxacNH0Ltv96ZErXWTxKOo4ar18halFG/I0k33RCHEmAyLaTKDLNljcL2P6Z86Bc2zZgN3Py5JCuqoE+KXhO42XLiu74S1dZQUrSacqd2y/yFy5+EUXumm1XWe1Cky6SisfV/SCLi+lfEqtJI9VBh7NUXvmKcWW2HfCSemB2k4ndEHRlDhP725MT+y/8sKI4VFUe5PoWQIPNx0nl8U/Fh61XPhR1LMcjU7c750JbayNsDYEOq5g8Y9Num/0Ml2M3c/LUEIaHwJ6afr3PlmNPHpV3tiIs21SjItFJ9aLLD/pFV3yH3HK1DlgxG1ax61n9FtfUkgrW9Mq8Khc1n3A9Go9f9WiB8XyiArw75/StZsMKOlx6eRFCXkKNm+XA1t5vqeFFnnKWF12eEV152vFjkZ1bil+iuZGZFF9cL0RAt1WsPihe3d7SqS3PWlvq2XJr5+zDAQQiEeAl6bL5FWwQPeqvAMvufaLLE8IT3NI6VcGy5RyxxBduBrSSOk+KTPy5s5ZX6ye0hrXV0Ch5GNxQt7ohZrGq1PROqJaHBfWpNrFMSV3fBBbftnylbF67fCqtSWdmqaRyWj/NflWQ1grAt21weJu5IeclGdBPZqIIWyxgggis4vAkydjV3TlOHu0Kshhp/Uiy61M4E4J9rYm2fPckp0Xso4qnck6FcmOUree7lObs/6Y4oHYjerXye1eIc9o/SLTjKbs8JKNz5mysxHXFEXsaUeArad7gvsDYe0IdHsES3XnZERfci8DenZbwBYrAB+yOgmw8v/uMoYdljWSxA47veyZ8l5k2eq7/BZlUxXF8Is/Hezz9LXFxy5HlYtzrX8KPYp2JN59GqkprDpavCH6JHYURbSeKTgtJYsXGvgE33zpsrTdmdePLC0Gx6tPoNsjWNx/bB/BUwghQe0q/1fYSyCkfORdUwKlbZ6K259elec/3XZRXEjqqvZbRNMe3mE+Ze/aR66q2FijgVXLXZX07JE+9BmY11b/+y1PIuJBYGUIQMHirkqScl9Fhd06iSCjsABc7BqBsjZPi7ik9/fzddhZffl4eYXMVf+pH6VQQ/A22l+52rvsuIRWudURfO+3OuoCmSDQMAEoWAxcz3/znHhIOBBvPw5DBCAvCBgEoq14Mlbh7RlllD2p6kC0ukJm1mTS29ERRt3NNGXOYH9VhhI9A79lhbhOe6xy9UAqEFgjAlCwZp2ZDGeHvgc8VTj98vaVgXwgMCWgp9pCFX8aoRV7SmSIw87KDkRDDd0n+6rOk+RR0ZpCqfgX9lcVgHn4iFosXffj4nRIAQJrRwAK1rRL44xi0cuMViWmbV6m8vEXBHwIxFn5pF9yvtNtPtNsbOgeEuTjyFXoFBPvE4hQjkC0EVOjuLk9nRGNExBYfwJQsIw+jjCKxT61NknJ0qMFhnScgEB1AkmYoqIL1AqW8uBevQa06rB6HcIN3Xcea7rnU+PHPOcBebuXVfdZ99qNFoNATQSgYKXB6lGs8Icyb3FyfzuGkpWGi2MvAklv7JXPzLSt7sXpVKF5bfGZv7F9dcVsXptHpTDA43ioHdi8LjgCARAAgcoEoGBlkPWOM1E+EVCyfKghj01AGx+HuDzQEvX04FRpsUtZcF7WwaglJkzB2VZ72VkiK51WNcyvJByJQQAEQKCYABQsm49+of1mR3udT5Us2GR54UOmGYHx7Mj7QNk0+SlY+jfhUXKgoXvycORR6DzLwg1450lxRARg1oDbAASiEoCC5cK59XRI0eGrt1g2K1kbZMOC1YVMA8GHQBLBDktPD/oYHPtPmYcauvdkiILlX2+fPlqHPF+/9tehGWgDCLSFALbKcfWE2qaENkNN5H9dlz3itpWstx9/FT+/GHrkR5YuE+CprkT8EojglVf+kGk+Npo+ufQqVmXijxPfEFJv3zJXPV9PHNF9FjvEV3T5Y1X5SSNXHlJcqX/39LdJI32elUg78GVqvAeh92hvbOwe8ngEk00JbLar3i4PFLGyQMHKI8nTCyeXPFXo92JyyVVb6lz2hSA7r1X+Ibrahrj6COh7sT75hZIDp/mE4BfsQWERdVyUG2d1iF1bmawwJMnL1rZPKTS9IdWRlcBtIVkTlLq6fLhB/04urynqVOg9C/W16f8nl5yqfEiS7MewvWdjRuKE68DV+lNMyKfYk2enQu/3OC/3hD7chfzPPEIdXYs3z/esuPkpKz53t/83j3g8eki+mSmV7OSa3y/p4GpD+vr0mOsk5TGVQR80xNRmK1S7btSOJ+kBAlZ0qw5CyOQHtT3dtOw1/4spwqIOfvP8WP1YitJUv3YgxOR/9EM8hc1DdXgdzhF/JKAMzPB9/C7KFBM5TfmNqSMXvLLiNuSoprqH9//bT0fKzEIrgNsF9dwl5atfcD3sUpLslRLAI6+s7Nzd0giutUft1jOX4r+bSZcuyDV1y0pc6Igd1+3k8oo0qv8QN1KuCkMR98KMXb4IBWtR79/TF5MQ4au4suW8Uj9A/vKAEXyWDmJMAsuZ8rrOfIGbtSpxFsF+rEQpVpKxdY7TIgJ6iy/68Ksh8BReSOBno0xGJKLkC74Wb/S+LaA6T8bG812PaH3ICJSTfiZuGsFTt9kwykZViFEjafShLyq4QcGq3AqAdVIoWIuQ8VdCIgeLknlep6Fu+tLZkH/Tl8SZ4C81BBBwEVjGwy2KF3lPFw8uBmXjJNmsIZQjwCPp9tRSuZzlUoX6cdukaUG3cvWBpqx+pbr/bswy1OONPr+tXIfpP/dejtv0fD82BLjuz8SpROlsPC1qh/sARVItuMpMU6ZL4NHy3xRbPcWvBxiwKjfNqNQxbLDKYOLtNk4+/qiGUsuk90tzSF9qh2oOn3+o6kdIX/+4qf1orlsu3gvw7rbhVkUYfWJbwxBDd58Wh77UfcpctTxq6mpyStWuZ+RK8wifqs3ahdHLvtfP2LAqO6UvRxWmzc7J7qmvqxnwf9omicW8uzym6bb3lsR945yVow1ppzlQJiMZmy2eYpzQSJgRziu008ioyri7HZmR6kzbWLnsxviyPdXpEKCiytp95eVfs3goWGU7lL28v/tERn2NGIIe0o/0kBQ6bTSppygvyla13elg4O/VP2pl6+WfJWwlvMQ7M8VTVPiLuM4Xebr64S/1tLR1Oubptg22UeIR+Un9/SHlWQ34LjLKFReiFZNRDeVVE8kG9ieXQ8qUVopM1jwr8s7xW9a2VhazySBbATVlmo0uE3N/y/J2s0l7ffEzfQzlBSzKyiNTGA8FqxCPdfH1dwNSskRDSla6cP6xmj/S9NVVOpYPO6tU3VbVNVFTX983Vqd4D1V+cDd1/46j8/FZLRW9EisocCIsZSFKGw5oNmEg9LZmUQQ2IIQ/MOwwooj3RqS2tTKZSVKIEyOVEG5DeStR7ukgc0WNOhUoV5kMiChLAApWWVLTdMtTsqY1wN+uEkjkmKaRXzXUfNdLwbNonmqk0dgmgsu+pYlyUYZN4FqwaUVo4NVymRVuZD90cjkg29hT7zKk2Cl0/uxrmqGMx43RK7r15VUGg2uaMEn6Rjoeccy0ncxH7GlEI1PBiXb3kP1A42nBWKHX28vl2kF/WlCwfG4sKFk+1JAnlMCTJ+PG7LCirlpkQ3fypdNECDH+baJ+nSkjGUZp6kQO6aPiD4esA4qn0SzyfZXQlFme7ZAjo4pSikuhI+lyXwTKYPyxkETtPGB/AN2I+8kwUw33NOGusnWajhxvkjx79EoEGLer/UgzzTr3VtgyjaIIZUIjX7ou0TOAP9r67mvrGdtbz2Y10CpWsqT4qYGSUAQIaAL6y/W6GRzBDkbn1Zy+MOYxdR1dexv/1lWjLsrlUadYU3g8CsYrBfPDLl3XPqeWsQqbHW1O/2WdUpNBfnKce0+yM1I7pN01uHx6hUwPKg/tdoHicyYGEdEIQMEKQak8Bic/kgi9jDVEFvKCQBkCUVwnlCiIR8viBv56rTc0xabeVqyBdFIqYgb+mBULn7Ps3f0PZZ8Vs2x/WdfiIdkvVDRduw2Y7hoOreL9pweVINpaCKFRAlCwQnGrL7Ven0az/gwVhfwgsJBAQo4L6w8RHIxmKnmRiYkd0Qyb2LVeN3m/1eJahp+zW0/31KxB4bOW7LLKOW7mj2JW+vP+hfbLrtA+vPLl6JHdayuBXgySnnqcJXCMeM2ulThw+9LbKZGzShJuTx7T+p8BVWraQFrYYMWAzD+U93/3yT5mSOLsOfgYJUAGCGgC7EiR912rM9QyEtSAoXvTTibr7INVlM2Kz2vaXqyuoKfIT0n8qTKkTsg+K7s6dVuw7RKnKQ7k7iGCHyzeW4+n3qQyUDef/WyPdPJxXDiKJdRKSzMfK1cTslWSVgNCpgctUalTt/+tVIJKh2wPZ/sGqyRgvRJjBCtWf/KPX+1dSD84IViLRwCB+AT0/mM1T0lHcDBqt1wGbpliy8uew/4qy6TJmGux+bTfWIG8yk8rSB+yZcr9bFxNMVwPthPT+9b+lCmFN1EuDL1R5rJSrmTfig+cHiRpeSsjtW8sqzicxiAABSsGxbQM/cPXQ9mwzUqTwXE8AuN4olySalCw8h7uruJ94moZdfOpSCfzkMLfO4q6Gq0sRplkR6qSZKds9qjplE2u9XHNqxXZPUJecE0TSqVc6anCWb7A6cGZHHLzYIdEDEt7arfz4ryQABSsQjwBF/nHxjYD7MQNilYASGTNEKjb11NdylCh7UymldUiYH9VjVes1Nyn/Jyra6Uo+5Xif3lKSuIYIUpq+EAoy8ul6N99OVqQ/cy6bilXdDXW9KBLIVVe58m2U/vwsqryeJrH350asY8EYINV562gbQaG9HA4FTwMm4hjKm63ziIhuwME1BY2tfmVOq+PoLyg1WDf1yI/1guolsqtrdDfaFpwWO/IlRwQvQOyb2Xnouf0wTqe0ewpP1HZ+8m1Om+WaXawT/LmsmbRqQMfGy2l6Ft+oGSvT1JH9M8dJI1OJfKV+6KKDZ8enArnj6eTSx7FOpxGPf7dFkI5cB2S24uxmEyuVDw7DhW0GvLulv6Sc9ZFQVJ/nVz2C5Kx7Ru/BzsRoGA10c22cabokbKldkinmxoBBCoS4NGCk0ualrE8RlcUk5OclKC6ghpZeBldOo+i6N9YdNEQ6CRwTUbdg1ybHmcW78j0aA45F5Xz88Qp80PJ0TR+9s5lOUV5RLoWodge2m2xWukp+D1Hmx7UJW89HdAH/9jhJZ6v7ypnoVLqtEkKMq/O1Dag+pr7/10lw32tc7GYImy6y/nHxH5d3jzfoa+Wf1Hxv8HFQ9OdsBbl1aMI8XY8tYWapm70Ho211RqCZwSuaTTjR3p27TWiXDldFczqkj3Q05WD7IUGY7QCQpyMsLvQdUTRxtixR2f5Y0QvSOCRrPKh19svnxgpmQAUrGXeB9PVJ6+f75Mdwz/oq/CHR5stvvHPl1k1lN1yAumpkphVnUzqUdy4jnXZdtWqFMaEu5KybpQndf4YZMUqlof2MijuaeWp9uLOoztFQSt+/Bxtx0jmWaay2nVEJnoWkb8xdrzpwVlhdMCc3jw/Uu8c4TB8T6fVx3QfTHay0YgpIoApwiI6TV7TD4YxFcn/zHDy176QD+txc28+q/YC5/T3X34wgQScVS0/oKhas/Lea/dfxtHLWDwFEFYkf0TEDltPq91TsctfF3k8ApSorVOIJ4820h6SdRmvl2Gm78WBSsqjWYnYU/+meZXrj5J1jHLf9Y5LPYe3yC7t/svZtJrqL290XBT4Y/vdx+xvg5XMMmFCNl6bKfs0zvNQIq/+6BmrRQR6r8J9MUmtwmTG/M/1ceTzbF7EoUxbkQYEQAAEQAAEQAAEQAAEQAAEQAAEQAAEQAAEQAAEQAAEQAAEQAAEQAAEQAAEQAAEQAAEQAAEQAAEQAAEQAAEQAAEQAAEQAAEQAAEQAAEQAAEQAAEQAAEQAAEQAAEQAAEQAAEQAAEQAAEQAAEQAAEQAAEQAAEQAAEQAAEQAAEQAAEQAAEQAAEQAAEQAAEQAAEQAAEQAAEQAAEQAAEQAAEQAAEQAAEQAAEQAAEQAAEQAAEQAAEQAAEQAAEQAAEQAAEQAAEQAAEQAAEQAAEQAAEQAAEQAAEQAAEQAAEQAAEQAAEQAAEQAAEQAAEQAAEQAAEQAAEQAAEQAAEQAAEQAAEQAAEQAAEQAAEQAAEQAAEQAAEQAAEQAAEQAAEQAAEQAAEQAAEQAAEQAAEQAAEQAAEQAAEQAAEQAAEQAAEQAAEQAAEQAAEQAAEQAAEQAAEQAAEQAAEQAAEQAAEQAAEQAAEQAAEQAAEQAAEQAAEQAAEQAAEQAAEQAAEQAAEQAAEQAAEQAAEQAAEQAAEQAAEQAAEQAAEQAAEQAAEQAAEQAAEQAAEQAAEQAAEQAAEQAAEQAAEQAAEQAAEQAAEQAAEQAAEQAAEQAAEQAAEQAAEQAAEQAAEQAAEQAAEQAAEQMBB4P8D0UlJmujLyYoAAAAASUVORK5CYII=;" parent="1" vertex="1">
          <mxGeometry x="490.00000000000006" y="547.75" width="126.97" height="51" as="geometry" />
        </mxCell>
        <mxCell id="RkbI90MtC3Ka5tVacX1f-13" value="&lt;div style=&quot;&quot;&gt;Embedding Model&lt;/div&gt;" style="rounded=1;whiteSpace=wrap;html=1;align=center;fillColor=none;strokeColor=default;" parent="1" vertex="1">
          <mxGeometry x="496.2200000000001" y="601.25" width="114.52" height="20" as="geometry" />
        </mxCell>
        <mxCell id="RkbI90MtC3Ka5tVacX1f-14" value="&lt;div style=&quot;&quot;&gt;QdrantDB&lt;/div&gt;" style="rounded=1;whiteSpace=wrap;html=1;align=right;fillColor=none;" parent="1" vertex="1">
          <mxGeometry x="855" y="836.0999999999999" width="76" height="20" as="geometry" />
        </mxCell>
        <mxCell id="RkbI90MtC3Ka5tVacX1f-15" value="" style="shape=image;verticalLabelPosition=bottom;labelBackgroundColor=default;verticalAlign=top;aspect=fixed;imageAspect=0;image=data:image/svg+xml,PHN2ZyB4bWxucz0iaHR0cDovL3d3dy53My5vcmcvMjAwMC9zdmciIHZpZXdCb3g9IjAgMCAxNiAxNiIgY2xhc3M9ImJpIGJpLWRhdGFiYXNlLWZpbGwiIGZpbGw9ImN1cnJlbnRDb2xvciIgaGVpZ2h0PSIxNiIgd2lkdGg9IjE2Ij4mI3hhOyAgPHBhdGggZD0iTTMuOTA0IDEuNzc3QzQuOTc4IDEuMjg5IDYuNDI3IDEgOCAxczMuMDIyLjI4OSA0LjA5Ni43NzdDMTMuMTI1IDIuMjQ1IDE0IDIuOTkzIDE0IDRzLS44NzUgMS43NTUtMS45MDQgMi4yMjNDMTEuMDIyIDYuNzExIDkuNTczIDcgOCA3cy0zLjAyMi0uMjg5LTQuMDk2LS43NzdDMi44NzUgNS43NTUgMiA1LjAwNyAyIDRzLjg3NS0xLjc1NSAxLjkwNC0yLjIyMyIvPiYjeGE7ICA8cGF0aCBkPSJNMiA2LjE2MVY3YzAgMS4wMDcuODc1IDEuNzU1IDEuOTA0IDIuMjIzQzQuOTc4IDkuNzEgNi40MjcgMTAgOCAxMHMzLjAyMi0uMjg5IDQuMDk2LS43NzdDMTMuMTI1IDguNzU1IDE0IDguMDA3IDE0IDd2LS44MzljLS40NTcuNDMyLTEuMDA0Ljc1MS0xLjQ5Ljk3MkMxMS4yNzggNy42OTMgOS42ODIgOCA4IDhzLTMuMjc4LS4zMDctNC41MS0uODY3Yy0uNDg2LS4yMi0xLjAzMy0uNTQtMS40OS0uOTcyIi8+JiN4YTsgIDxwYXRoIGQ9Ik0yIDkuMTYxVjEwYzAgMS4wMDcuODc1IDEuNzU1IDEuOTA0IDIuMjIzQzQuOTc4IDEyLjcxMSA2LjQyNyAxMyA4IDEzczMuMDIyLS4yODkgNC4wOTYtLjc3N0MxMy4xMjUgMTEuNzU1IDE0IDExLjAwNyAxNCAxMHYtLjgzOWMtLjQ1Ny40MzItMS4wMDQuNzUxLTEuNDkuOTcyLTEuMjMyLjU2LTIuODI4Ljg2Ny00LjUxLjg2N3MtMy4yNzgtLjMwNy00LjUxLS44NjdjLS40ODYtLjIyLTEuMDMzLS41NC0xLjQ5LS45NzIiLz4mI3hhOyAgPHBhdGggZD0iTTIgMTIuMTYxVjEzYzAgMS4wMDcuODc1IDEuNzU1IDEuOTA0IDIuMjIzQzQuOTc4IDE1LjcxMSA2LjQyNyAxNiA4IDE2czMuMDIyLS4yODkgNC4wOTYtLjc3N0MxMy4xMjUgMTQuNzU1IDE0IDE0LjAwNyAxNCAxM3YtLjgzOWMtLjQ1Ny40MzItMS4wMDQuNzUxLTEuNDkuOTcyLTEuMjMyLjU2LTIuODI4Ljg2Ny00LjUxLjg2N3MtMy4yNzgtLjMwNy00LjUxLS44NjdjLS40ODYtLjIyLTEuMDMzLS41NC0xLjQ5LS45NzIiLz4mI3hhOzwvc3ZnPg==;" parent="1" vertex="1">
          <mxGeometry x="857" y="838.0999999999999" width="16" height="16" as="geometry" />
        </mxCell>
        <mxCell id="RkbI90MtC3Ka5tVacX1f-16" value="" style="shape=image;verticalLabelPosition=bottom;labelBackgroundColor=default;verticalAlign=top;aspect=fixed;imageAspect=0;image=data:image/svg+xml,PHN2ZyB4bWxuczp4bGluaz0iaHR0cDovL3d3dy53My5vcmcvMTk5OS94bGluayIgeG1sbnM9Imh0dHA6Ly93d3cudzMub3JnLzIwMDAvc3ZnIiBwcmVzZXJ2ZUFzcGVjdFJhdGlvPSJ4TWlkWU1pZCIgdmVyc2lvbj0iMS4xIiB2aWV3Qm94PSIwIDAgNTEyIDE3MyIgaGVpZ2h0PSIxNzNweCIgd2lkdGg9IjUxMnB4Ij4mI3hhOyAgICA8dGl0bGU+cWRyYW50PC90aXRsZT4mI3hhOyAgICA8ZGVmcz4mI3hhOyAgICAgICAgPGxpbmVhckdyYWRpZW50IGlkPSJsaW5lYXJHcmFkaWVudC0xIiB5Mj0iNDQuODQyMTA1MyUiIHgyPSItMTguMDg1NzE0MyUiIHkxPSI0NC44NDIxMDUzJSIgeDE9IjgxLjU2MTkwNDglIj4mI3hhOyAgICAgICAgICAgIDxzdG9wIG9mZnNldD0iMCUiIHN0b3AtY29sb3I9IiNGRjMzNjQiLz4mI3hhOyAgICAgICAgICAgIDxzdG9wIG9mZnNldD0iMTAwJSIgc3RvcC1vcGFjaXR5PSIwIiBzdG9wLWNvbG9yPSIjQzkxNTQwIi8+JiN4YTsgICAgICAgIDwvbGluZWFyR3JhZGllbnQ+JiN4YTsgICAgPC9kZWZzPiYjeGE7ICAgIDxnPiYjeGE7ICAgICAgICA8cGF0aCBmaWxsPSIjREMyNDRDIiBkPSJNMjQxLjAwOTQ1OCwxMzEuNDQ0Mjk0IEMyNDEuMDA5NDU4LDEzNy43MDI2MjkgMjM1LjkzNjM4OCwxNDIuNzc2ODMyIDIyOS42NzgwNTQsMTQyLjc3NjgzMiBMMjIxLjkzMTkwNSwxNDIuNzc2ODMyIEwyMjEuOTMxOTA1LDEzMy45MjkyNzEgTDIyMS42NTU0MTksMTMzLjkyOTI3MSBDMjIwLjgyNTk2LDEzNS4xMjcgMjE5LjcyMDAxNSwxMzYuMzcxMTg4IDIxOC4zMzc1ODQsMTM3LjY2MDcwMiBDMjE3LjE3NjAwMiwxMzguNzM5Njc5IDIxNS43OTEzODMsMTM5Ljc0MzM5MiAyMTQuMTgyMDc3LDE0MC42NzI2NjggTDIxMy42MzczMTcsMTQwLjk3OTY3MSBDMjExLjg4NjYxNSwxNDEuOTkyNjk4IDIwOS45MDQ3NTIsMTQyLjgyMjE1NyAyMDcuNjkyODYyLDE0My40NjgwNDcgQzIwNS41NzI3NTYsMTQ0LjExMjgwNCAyMDMuMzYwODY2LDE0NC40MzQ2MTYgMjAxLjA1NzE5MiwxNDQuNDM0NjE2IEMxOTYuMDgwNDM5LDE0NC40MzQ2MTYgMTkxLjU2NDg3NCwxNDMuNjA1MTU3IDE4Ny41MDkzNjQsMTQxLjk0NjI0IEMxODMuNDUzODU1LDE0MC4xOTU1MzggMTc5Ljk1MjQ1MSwxMzcuNzk4OTQ1IDE3Ny4wMDI4ODYsMTM0Ljc1NzU5NiBDMTc0LjE0NjIzOSwxMzEuNjI0NDYzIDE3MS45MzQzNDksMTI3LjkzODM1NyAxNzAuMzY3MjE1LDEyMy42OTkyNzkgQzE2OC44MDAwODIsMTE5LjQ1OTA2NyAxNjguMDE3MDgyLDExNC44MDUyNTkgMTY4LjAxNzA4MiwxMDkuNzM2NzIyIEMxNjguMDE3MDgyLDEwNS4wMzY0NTUgMTY4LjcwODI5OCwxMDAuNTY2MjE2IDE3MC4wOTA3MjksOTYuMzI2MDA0NSBDMTcxLjU2NDk0NSw5MS45OTUxNDE3IDE3My41OTMyNjYsODguMTY5NjU5NSAxNzYuMTczNDI3LDg0Ljg1MTgyNDIgQzE3OC43MDU4MTcsODEuNzA5MTQ4NiAxODEuNzMzNDg3LDc5LjE4NjMzNTMgMTg1LjI1ODM2Myw3Ny4yODM4NjYyIEwxODUuODUwNDQ3LDc2Ljk3MjUzMiBDMTg5LjYyOTQ3LDc0Ljk0NTAwMzcgMTkzLjkxNTAwNyw3My45MzExODMgMTk4LjcwNzA1OCw3My45MzExODMgQzIwMy4wMzkwNTQsNzMuOTMxMTgzIDIwNy4wNDgxMDUsNzQuNjIyMzk4NiAyMTAuNzM0MjExLDc2LjAwNDgzIEMyMTQuNTEzMjM1LDc3LjI5NTEzNzEgMjE3LjU5OTkwOSw3OS41NTMwMzI3IDIxOS45OTY1MDEsODIuNzc5MzEwMyBMMjIwLjI3Mjk4OCw4Mi43NzkzMTAzIEwyMjAuMjcyOTg4LDQ5LjU5NjQyNDkgQzIyMC4yNzI5ODgsNDMuMzM4MjAzNSAyMjUuMzQ2MDU4LDM4LjI2NTAyMDMgMjMxLjYwNDM5MiwzOC4yNjUwMjAzIEwyNDEuMDA5NDU4LDM4LjI2NTAyMDMgTDI0MS4wMDk0NTgsMTMxLjQ0NDI5NCBaIE0yMjEuOTMxOTA1LDEwOS4xODI2MTYgQzIyMS45MzE5MDUsMTA0LjExNDA3OSAyMjAuNDU3NjksMTAwLjAxMzI0NCAyMTcuNTA4MTI1LDk2Ljg3ODk3NzEgQzIxNC42NTE0NzgsOTMuNzQ1ODQzNyAyMTAuNTk1OTY4LDkyLjE3ODcxMDQgMjA1LjM0MjcyOSw5Mi4xNzg3MTA0IEMyMDAuMDg5NDksOTIuMTc4NzEwNCAxOTUuOTg4NjU0LDkzLjc0NTg0MzcgMTkzLjAzOTA5LDk2Ljg3ODk3NzEgQzE5MC4xODI0NDMsMTAwLjAxMzI0NCAxODguNzUzNTUzLDEwNC4xMTQwNzkgMTg4Ljc1MzU1MywxMDkuMTgyNjE2IEMxODguNzUzNTUzLDExNC4yNTIyODcgMTkwLjE4MjQ0MywxMTguMzUzMTIyIDE5My4wMzkwOSwxMjEuNDg2MjU1IEMxOTUuOTg4NjU0LDEyNC42MjA1MjIgMjAwLjA4OTQ5LDEyNi4xODc2NTUgMjA1LjM0MjcyOSwxMjYuMTg3NjU1IEMyMTAuNTk1OTY4LDEyNi4xODc2NTUgMjE0LjY1MTQ3OCwxMjQuNjIwNTIyIDIxNy41MDgxMjUsMTIxLjQ4NjI1NSBDMjIwLjQ1NzY5LDExOC4zNTMxMjIgMjIxLjkzMTkwNSwxMTQuMjUyMjg3IDIyMS45MzE5MDUsMTA5LjE4MjYxNiBaIE0yNTQuNDI1ODQxLDg2LjkyMDkzODcgQzI1NC40MjU4NDEsODAuNjYzMzk3MSAyNTkuNDk4OTExLDc1LjU5MDEwMDYgMjY1Ljc1NzI0Niw3NS41OTAxMDA2IEwyNzUuMTYyMzEyLDc1LjU5MDEwMDYgTDI3NS4xNjIzMTIsODYuMzcyNDk4NyBMMjc1LjQzODc5OCw4Ni4zNzI0OTg3IEMyNzcuNTU0NTE5LDgyLjQwNjA2MzcgMjgwLjA0OTY5LDc5LjQwODc4MTIgMjgyLjkyNDMxMSw3Ny4zODEyNDYzIEwyODMuMzE4NjU3LDc3LjExMDc3NTEgQzI4Ni4zNjAwMDYsNzQuOTkxMDA5MiAyOTAuMTg0MzU1LDczLjkzMTE4MyAyOTQuNzkyODM3LDczLjkzMTE4MyBDMjk1Ljk5MDU2Nyw3My45MzExODMgMjk3LjE4ODI5Niw3My45NzczMDE4IDI5OC4zODcxNTksNzQuMDY5NDI2MSBDMjk5LjU4NDg4OCw3NC4xNjE1NTA0IDMwMC42OTA4MzMsNzQuMzQ1OTEyNCAzMDEuNzA0OTk0LDc0LjYyMjM5ODYgTDMwMS43MDQ5OTQsOTMuNTYxNzA4NCBDMzAwLjIyOTY0NSw5My4xMDA1MjAyIDI5OC43NTU0MjksOTIuNzc3NTc1MiAyOTcuMjgxMjE0LDkyLjU5Mjg3MzMgQzI5NS44OTg3ODIsOTIuMzE2Mzg3IDI5NC40MjM0MzMsOTIuMTc4MTQzOCAyOTIuODU3NDMzLDkyLjE3ODE0MzggQzI4OC44OTM3MDgsOTIuMTc4MTQzOCAyODUuNzYwNTc1LDkyLjczMTExNjQgMjgzLjQ1NjksOTMuODM3MDYxNSBDMjgxLjE1MjA5Miw5NC45NDMwMDY2IDI3OS4zNTQ5MzEsOTYuNTEwMTM5OCAyNzguMDY1NDE4LDk4LjUzNzMyODEgQzI3Ni44NjY1NTUsMTAwLjQ3MjczMiAyNzYuMDgzNTU1LDEwMi44MjI4NjUgMjc1LjcxNTI4NCwxMDUuNTg3NzI4IEMyNzUuMzQ1ODgxLDEwOC4zNTM3MjQgMjc1LjE2MjMxMiwxMTEuMzkzOTQgMjc1LjE2MjMxMiwxMTQuNzExNzc1IEwyNzUuMTYyMzEyLDEzMS40NDM3MjcgQzI3NS4xNjIzMTIsMTM3LjcwMjA2MiAyNzAuMDg5MjQyLDE0Mi43NzYyNjUgMjYzLjgzMDkwNywxNDIuNzc2MjY1IEwyNTQuNDI1ODQxLDE0Mi43NzYyNjUgTDI1NC40MjU4NDEsODYuOTIwOTM4NyBaIE0zNTIuMDAwNTY3LDEzNC4zNDUxMzMgTDM1MS43MjQwOCwxMzQuMzQ1MTMzIEMzNDkuNDIwNDA2LDEzNy45Mzk0NTUgMzQ2LjMzMjU5OCwxNDAuNTE5NjE2IDM0Mi40NjE3OSwxNDIuMDg2NzQ5IEMzMzguNjgzOSwxNDMuNjUyNzQ5IDMzNC42NzQ4NDksMTQ0LjQzNTc0OSAzMzAuNDM0NjM3LDE0NC40MzU3NDkgQzMyNy41NDI1MTQsMTQ0LjQzNTc0OSAzMjQuNzI4NTk4LDE0NC4wNDM3NSAzMjEuOTkyODg4LDE0My4yNTg4NTkgTDMyMS4zMTA1OSwxNDMuMDU0NDUxIEMzMTguNDUzOTQzLDE0Mi4yMjQ5OTIgMzE1LjkxOTEwOCwxNDAuOTM0MzQ1IDMxMy43MDcyMTgsMTM5LjE4MzY0MyBDMzExLjQ5NTMyOCwxMzcuNDMxODA4IDMwOS43NDQ2MjYsMTM1LjI2NjM3NyAzMDguNDUzOTc5LDEzMi42ODUwODMgQzMwNy4xNjQ0NjUsMTMwLjEwNDkyMiAzMDYuNTE4NTc1LDEyNy4xMTAwMzEgMzA2LjUxODU3NSwxMjMuNzAwNDEyIEMzMDYuNTE4NTc1LDExOS44Mjk2MDQgMzA3LjIwOTc5LDExNi41NTcwOTQgMzA4LjU5MjIyMiwxMTMuODg1MTQ5IEMzMTAuMDY3NTcxLDExMS4yMTIwNzEgMzEyLjAwMjk3NCwxMDkuMDAwMTgxIDMxNC4zOTg0MzMsMTA3LjI0OTQ3OSBDMzE2Ljg4NjgxLDEwNS40OTc2NDMgMzE5LjY5ODEzMSwxMDQuMTYxNjcxIDMyMi44MzEyNjUsMTAzLjI0MDQyOCBDMzI1Ljk2NTUzMSwxMDIuMjI2MjY3IDMyOS4xOTA0NDksMTAxLjQ4ODU5MiAzMzIuNTA4Mjg0LDEwMS4wMjc0MDQgQzMzNS45MTkwMzcsMTAwLjU2NzM0OSAzMzkuMjgyMTk4LDEwMC4yOTA4NjMgMzQyLjYwMDAzMywxMDAuMTk3OTQ1IEwzNDQuODMyNzUyLDEwMC4xNDM2MjYgQzM0Ny4zODk2MzYsMTAwLjA4ODI1NSAzNDkuNzc4NzMsMTAwLjA2MDgzNSAzNTIuMDAwNTY3LDEwMC4wNjA4MzUgQzM1Mi4wMDA1NjcsOTYuNTA1MjgzNSAzNTAuNzU4MzE3LDkzLjY3ODg1NTQgMzQ4LjI3MjgsOTEuNTgwNTM1MiBMMzQ3Ljk5MTUxNiw5MS4zNTAzODQ3IEMzNDUuNDExMzU1LDg5LjEzODQ5NDYgMzQyLjMyMzU0Nyw4OC4wMzI1NDk1IDMzOC43MjkyMjUsODguMDMyNTQ5NSBDMzM1LjMxOTYwNiw4OC4wMzI1NDk1IDMzMi4xODY0NzIsODguNzcwMjIzOSAzMjkuMzI4NjkyLDkwLjI0NDQzOTYgQzMyNi41NjM4MjksOTEuNjI4MDA0MiAzMjQuMDc1NDUzLDkzLjU2MzQwODEgMzIxLjg2MzU2Myw5Ni4wNTA2NTE0IEwzMTAuODA0MTEyLDg0LjcxNDcxNDIgQzMxNC41MDY2MjQsODEuMjc3MjA5NCAzMTguODAwMDgyLDc4LjY4MjM3MzkgMzIzLjY4MjUwNCw3Ni45MzA4MDI2IEwzMjQuMzUxOTM5LDc2LjY5NzE3ODggQzMyOS41MTMzOTQsNzQuODUzODk5MiAzMzQuODU4NDE4LDczLjkzMjMxNjEgMzQwLjM4ODE0Myw3My45MzIzMTYxIEMzNDYuNDcwODQxLDczLjkzMjMxNjEgMzUxLjQ0NzU5NCw3NC43MTU2NTYxIDM1NS4zMTg0MDIsNzYuMjgyNDQ5NCBDMzU5LjI4MjEyNyw3Ny43NTcwMDUxIDM2Mi40MTUyNjEsNzkuOTY4ODk1MyAzNjQuNzE4OTM1LDgyLjkxNzU1MzQgQzM2Ny4xMTU1MjcsODUuODY3MTE4IDM2OC43NzQ0NDUsODkuNTA3ODk4MyAzNjkuNjk1Njg4LDkzLjgzODc2MTIgQzM3MC42MTgwNjQsOTguMDc4OTcyOCAzNzEuMDc4MTE5LDEwMy4wMDkyNjcgMzcxLjA3ODExOSwxMDguNjMwNzc3IEwzNzEuMDc4MTE5LDEzMS40NDY1NiBDMzcxLjA3ODExOSwxMzcuNzAzNzYyIDM2Ni4wMDUwNSwxNDIuNzc3OTY1IDM1OS43NDY3MTUsMTQyLjc3Nzk2NSBMMzUyLjAwMDU2NywxNDIuNzc3OTY1IEwzNTIuMDAwNTY3LDEzNC4zNDUxMzMgWiBNMzUyLjAwMDU2NywxMTMuMzMxMDQzIEwzNDYuODg1NTcxLDExMy4zMzEwNDMgTDM0Ni4xMzMyNzcsMTEzLjMzNzYzMyBDMzQ0LjY5OTk1LDExMy4zNjE3NzkgMzQyLjk2OTAwMSwxMTMuNDUyMjAyIDM0MC45NDExMTYsMTEzLjYwNzUzIEMzMzguNjM3NDQxLDExMy43MDA0NDcgMzM2LjM3OTA5MiwxMTQuMDY4NzE4IDMzNC4xNjcyMDIsMTE0LjcxMzQ3NSBDMzMyLjA0ODIyOSwxMTUuMzU5MzY1IDMzMC4yMDQ2MSwxMTYuMzI3MDY3IDMyOC42Mzc0NzYsMTE3LjYxNjU4MSBDMzI3LjE2MzI2MSwxMTguOTA3MjI4IDMyNi40MjU1ODYsMTIwLjcwNDM4OCAzMjYuNDI1NTg2LDEyMy4wMDkxOTYgQzMyNi40MjU1ODYsMTI1LjQ5NzU3MyAzMjcuNDg2MjA2LDEyNy4zNDAwNTkgMzI5LjYwNTE3OCwxMjguNTM3Nzg4IEMzMzEuNzI1Mjg0LDEyOS43MzY2NTEgMzMzLjkzNzE3NCwxMzAuMzM0OTQ5IDMzNi4yNDA4NDksMTMwLjMzNDk0OSBDMzM4LjI2OTE3LDEzMC4zMzQ5NDkgMzQwLjIwNDU3NCwxMzAuMDU4NDYzIDM0Mi4wNDcwNjEsMTI5LjUwNTQ5IEMzNDMuOTgyNDY1LDEyOC45NTI1MTggMzQ1LjY4Nzg0MSwxMjguMTY5NTE4IDM0Ny4xNjIwNTcsMTI3LjE1NTM1NyBDMzQ4LjUyMzkxNywxMjYuMjIwMjU1IDM0OS42MDk2NCwxMjUuMDQ4NjAxIDM1MC40MjEwMDgsMTIzLjY0MTI4NyBMMzUwLjYxODEzNSwxMjMuMjg0NTQ5IEMzNTEuNTQwNTEyLDEyMS43MTg1NDkgMzUyLjAwMDU2NywxMTkuODc0OTMgMzUyLjAwMDU2NywxMTcuNzU1OTU3IEwzNTIuMDAwNTY3LDExMy4zMzEwNDMgWiBNMzg1LjQ3MzUzNiw4Ni45MjA5Mzg3IEMzODUuNDczNTM2LDgwLjY2MzM5NzEgMzkwLjU0NjYwNiw3NS41OTAxMDA2IDM5Ni44MDQ5NCw3NS41OTAxMDA2IEw0MDUuMzgwNTQ4LDc1LjU5MDEwMDYgTDQwNS4zODA1NDgsODQuNzEzNTgxIEw0MDUuNjU3MDM0LDg0LjcxMzU4MSBDNDA2LjMwMTc5MSw4My40MjQwNjcyIDQwNy4yMjMwMzQsODIuMTMzNjQ2OCA0MDguNDIxODk3LDgwLjg0MzMzOTggQzQwOS42MTk2MjYsNzkuNTUzMDMyNyA0MTEuMDQ4NTE2LDc4LjQwMTA4MjEgNDEyLjcwNzQzNCw3Ny4zODcyNjE0IEM0MTQuMzY2MzUxLDc2LjM3MzQ0MDYgNDE2LjI1NTI5Nyw3NS41NDM5ODE4IDQxOC4zNzU0MDIsNzQuODk4ODg0OSBDNDIwLjQ5NDM3NSw3NC4yNTM3ODgxIDQyMi43OTkxODMsNzMuOTMxMTgzIDQyNS4yODc1NTksNzMuOTMxMTgzIEM0MzAuMzMwNjY5LDczLjkzMTE4MyA0MzQuNDM5MTI4LDc0LjY5NTYxMjIgNDM3LjYxMzkzOSw3Ni4yMjQ0NzA3IEw0MzguMDA1OTI4LDc2LjQxOTU1OTQgQzQ0MS4wNjk2LDc3LjkwODAxMzEgNDQzLjQ2ODU0Myw3OS45Nzg2NjY2IDQ0NS4yMDI3NTgsODIuNjMxMDM0NCBMNDQ1LjQ3MTA1Nyw4My4wNTQ2NjM0IEM0NDcuMzEzNTQ0LDg1LjkxMjQ0MzcgNDQ4LjU1NzczMiw4OS4yNzU2MDQ1IDQ0OS4yMDM2MjIsOTMuMTQ2NDEyNCBDNDQ5Ljg0ODM3OSw5Ny4wMTcyMjAyIDQ1MC4xNzEzMjQsMTAxLjIxMDk3MyA0NTAuMTcxMzI0LDEwNS43Mjc2NzEgTDQ1MC4xNzEzMjQsMTMxLjQ0NDI5NCBDNDUwLjE3MTMyNCwxMzcuNzAyNjI5IDQ0NS4wOTgyNTQsMTQyLjc3NjgzMiA0MzguODM5OTE5LDE0Mi43NzY4MzIgTDQyOS40MzQ4NTMsMTQyLjc3NjgzMiBMNDI5LjQzNDg1MywxMDkuODczODMyIEM0MjkuNDM0ODUzLDEwNy45Mzg0MjggNDI5LjM0MTkzNiwxMDUuOTU3Njk4IDQyOS4xNTgzNjcsMTAzLjkyOTM3NyBDNDI5LjA2NTQ0OSwxMDEuODEwNDA0IDQyOC42NTA3Miw5OS44NzUwMDA0IDQyNy45MTQxNzksOTguMTI0Mjk4NCBDNDI3LjI2ODI4OSw5Ni4zNzI0NjMzIDQyNi4yMDg4MDIsOTQuOTQzNTczMSA0MjQuNzM0NTg3LDkzLjgzNzYyODEgQzQyMy4zNTIxNTUsOTIuNzMxNjgzIDQyMS4zMjM4MzQsOTIuMTc4NzEwNCA0MTguNjUxODg5LDkyLjE3ODcxMDQgQzQxNi4xMzYwNSw5Mi4xNzg3MTA0IDQxNC4wNjk4OTIsOTIuNjI4MzkwNyA0MTIuNDUyNDcsOTMuNTI1ODYyIEw0MTIuMTU0NDYxLDkzLjY5OTM4NDkgQzQxMC40OTU1NDQsOTQuNjIxNzYxMyA0MDkuMjA0ODk3LDk1LjkxMTI3NTEgNDA4LjI4MzY1Myw5Ny41NzAxOTI3IEM0MDcuNDU0MTk1LDk5LjEzNzMyNiA0MDYuOTAxMjIyLDEwMC45MzQ0ODcgNDA2LjYyNDczNiwxMDIuOTYxNjc1IEM0MDYuMzQ4MjQ5LDEwNC45ODk5OTYgNDA2LjIxMDAwNiwxMDcuMTA4OTY5IDQwNi4yMTAwMDYsMTA5LjMyMDg1OSBMNDA2LjIxMDAwNiwxMzEuNDQ0Mjk0IEM0MDYuMjEwMDA2LDEzNy43MDI2MjkgNDAxLjEzNjkzNiwxNDIuNzc2ODMyIDM5NC44Nzg2MDIsMTQyLjc3NjgzMiBMMzg1LjQ3MzUzNiwxNDIuNzc2ODMyIEwzODUuNDczNTM2LDg2LjkyMDkzODcgWiBNNTEyLDgwLjg0NzMwNTggQzUxMiw4Ny4xMDUwNzQgNTA2LjkyNjkzLDkyLjE3ODE0MzggNTAwLjY2ODU5NSw5Mi4xNzgxNDM4IEw0OTMuNzUxOTA2LDkyLjE3ODE0MzggTDQ5My43NTE5MDYsMTE0LjU3NDY2NSBDNDkzLjc1MTkwNiwxMTYuNDE3MTUxIDQ5My44NDQ4MjMsMTE4LjEyMjUyOCA0OTQuMDI4MzkyLDExOS42ODg1MjggQzQ5NC4yMTMwOTQsMTIxLjE2Mzg3NyA0OTQuNjI3ODI0LDEyMi40NTMzOTEgNDk1LjI3MjU4LDEyMy41NTkzMzYgQzQ5NS45MTg0NzEsMTI0LjY2NTI4MSA0OTYuODg2MTcyLDEyNS41NDExOTkgNDk4LjE3NTY4NiwxMjYuMTg3MDg5IEM0OTkuNTU4MTE4LDEyNi43NDAwNjEgNTAxLjM1NTI3OCwxMjcuMDE1NDE0IDUwMy41NjcxNjksMTI3LjAxNTQxNCBDNTA0LjY3MzExNCwxMjcuMDE1NDE0IDUwNi4xMDIwMDQsMTI2LjkyMzYzIDUwNy44NTI3MDYsMTI2LjczODkyOCBDNTA5LjY5NjMyNSwxMjYuNDYyNDQyIDUxMS4wNzg3NTcsMTI1LjkxMDYwMiA1MTIsMTI1LjA4MTE0MyBMNTEyLDEzNC45NjY2NjEgQzUxMiwxMzkuNDAyOTA2IDUwOS4yMjE1NCwxNDMuNTI5ODAzIDUwNC44MTEzNTcsMTQ0LjAxOTMyIEM1MDIuMzIyOTgsMTQ0LjI5NTgwNiA0OTkuODgxMDYzLDE0NC40MzQwNDkgNDk3LjQ4NDQ3MSwxNDQuNDM0MDQ5IEM0OTMuOTgzMDY3LDE0NC40MzQwNDkgNDkwLjc1NzAxNiwxNDQuMDY1Nzc5IDQ4Ny44MDc0NTEsMTQzLjMyODEwNCBDNDg0Ljg1OTAyLDE0Mi41OTE1NjMgNDgyLjI3NzcyNiwxNDEuNDM5MTU5IDQ4MC4wNjU4MzUsMTM5Ljg3MzE1OSBDNDc3Ljg1Mzk0NSwxMzguMjE0MjQxIDQ3Ni4xMDMyNDMsMTM2LjA5NDEzNiA0NzQuODEyNTk2LDEzMy41MTI4NDIgQzQ3My42MTQ4NjcsMTMwLjkzMjY4MSA0NzMuMDE1NDM1LDEyNy43OTk1NDcgNDczLjAxNTQzNSwxMjQuMTEzNDQyIEw0NzMuMDE1NDM1LDkyLjE3ODE0MzggTDQ1OS43NDQwOTQsOTIuMTc4MTQzOCBMNDU5Ljc0NDA5NCw4Ni45MjAzNzIxIEM0NTkuNzQ0MDk0LDgwLjY2MjcxNzIgNDY0LjgxODI5Nyw3NS41ODk1MzQgNDcxLjA3NTQ5OSw3NS41ODk1MzQgTDQ3My4wMTU0MzUsNzUuNTg5NTM0IEw0NzMuMDE1NDM1LDY3LjAxMzkyNyBDNDczLjAxNTQzNSw2MC43NTU3MDU1IDQ3OC4wODk2MzgsNTUuNjgyNTIyNCA0ODQuMzQ2ODQsNTUuNjgyNTIyNCBMNDkzLjc1MTkwNiw1NS42ODI1MjI0IEw0OTMuNzUxOTA2LDc1LjU4OTUzNCBMNTEyLDc1LjU4OTUzNCBMNTEyLDgwLjg0NzMwNTggWiIvPiYjeGE7ICAgICAgICA8ZyB0cmFuc2Zvcm09InRyYW5zbGF0ZSgwLjAwMDAwMCwgMC4wMDAwMDApIj4mI3hhOyAgICAgICAgICAgIDxwb2x5Z29uIHBvaW50cz0iMTE3LjYxMDQ2MiAxNTguNzQxNjQ4IDExNC4xNjY5NjEgNjMuODAyNjA2OSAxMDcuOTMwNjA5IDM4Ljc3MjY2NzIgMTQ5LjU1NjUyNCA0My4xNzkzMzcyIDE0OS41NTY1MjQgMTU4LjAyMzEyMyAxMjQuMTI4ODUyIDE3Mi42OTg0MjUiIGZpbGw9IiMyNDM4NkMiLz4mI3hhOyAgICAgICAgICAgIDxwb2x5Z29uIHBvaW50cz0iMTQ5LjU1MzY5MSA0My4xNzI2NTE3IDEyNC4xMjYwMTkgNTcuODU4MTUyMSA3MS42NTI1NTA4IDQ2LjM0NzcxMTIgMTAuMjMyOTM4MyA3MS4zNTQ5ODgxIC02LjQ0MTE1NzhlLTE0IDQzLjE3MjY1MTcgMzcuMzgyMzAzOSAyMS41ODYzMjU4IDc0Ljc3NTkzOTIgMCAxMTIuMTU5Mzc2IDIxLjU4NjMyNTgiIGZpbGw9IiM3NTg5QkUiLz4mI3hhOyAgICAgICAgICAgIDxwb2x5bGluZSBwb2ludHM9IjAuMDAxODEzMDI0NzQgNDMuMTcyNjUxNyAyNS40Mjk0ODUgNTcuODU4MTUyMSA0MC4xNjkzNzYyIDEwMS42OTQ4MjQgODkuOTM4MDM4NSAxNDEuNTE1NjQ2IDc0Ljc3ODg4NTMgMTcyLjY5MDYwNyAzNy4zODUyNTAxIDE1MS4xMDMxNDggMC4wMDE4MTMwMjQ3NCAxMjkuNTE2ODIyIDAuMDAxODEzMDI0NzQgNDMuMTcxNTE4NSIgZmlsbD0iI0IyQkZFOCIvPiYjeGE7ICAgICAgICAgICAgPHBvbHlsaW5lIHBvaW50cz0iOTEuNjM2NjE2IDExOC40ODExNjcgNzQuNzc4ODg1MyAxNDMuMzMzMjAzIDc0Ljc3ODg4NTMgMTcyLjY5Mjg3MyA5OC42OTk0ODA1IDE1OC44OTEyMjIgMTExLjAyNDY0OSAxNDAuNDg2NzU1IiBmaWxsPSIjMjQzODZDIi8+JiN4YTsgICAgICAgICAgICA8cG9seWdvbiBwb2ludHM9Ijc0Ljc4OTA4MzYgMTEzLjk4MjU5OSA1MC44NTgyOTAyIDcyLjU0OTMxODIgNTYuMDEyODMyOCA1OC44MTY3ODg5IDc1LjYwODIzMDggNDkuMzE2MDg2IDk4LjY5OTM2NzIgNzIuNTQ5OTk4MSIgZmlsbD0iIzc1ODlCRSIvPiYjeGE7ICAgICAgICAgICAgPHBvbHlsaW5lIHBvaW50cz0iNTAuODU4MjkwMiA3Mi41NDU5MTg3IDc0Ljc3ODg4NTMgODYuMzQ3NTY5NiA3NC43Nzg4ODUzIDExMy45NzM1MzQgNTIuNjU1NDUwOSAxMTQuOTI1MzgzIDM5LjI3MzA2MjEgOTcuODM3NjI1MiA1MC44NTgyOTAyIDcyLjU0NTkzMDEiIGZpbGw9IiNCMkJGRTgiLz4mI3hhOyAgICAgICAgICAgIDxwb2x5Z29uIHBvaW50cz0iNzQuNzc4ODg1MyA4Ni4zNDUzMDMzIDk4LjY5OTQ4MDUgNzIuNTQ0Nzg1NiAxMTQuOTc5MzEgOTkuNjUxNzcxOCA5NS4yNzg1Mjk1IDExNS45MjkzMzUgNzQuNzc4ODg1MyAxMTMuOTcyMTc0IiBmaWxsPSIjMjQzODZDIi8+JiN4YTsgICAgICAgICAgICA8cGF0aCBmaWxsPSIjREMyNDRDIiBkPSJNOTguNjk5NDgwNSwxNTguODg4OTU2IEwxMjQuMTI3MTUzLDE3Mi42OTE3NCBMMTI0LjEyNzE1Myw1Ny44NTkyODUyIEw5OS40NDczNTMyLDQzLjYxNTcwOTYgTDc0Ljc3ODg4NTMsMjkuMzcyMTM0IEw1MC4wOTkwODYxLDQzLjYxNTcwOTYgTDI1LjQzMDYxODIsNTcuODU5Mjg1MiBMMjUuNDMwNjE4MiwxMTQuODQzNzg2IEw1MC4wOTkwODYxLDEyOS4wODczNjIgTDc0Ljc3ODg4NTMsMTQzLjMzMjA3IEw5OC42OTk0ODA1LDEyOS41MTc5NTUgTDk4LjY5OTQ4MDUsMTU4Ljg4ODk1NiBaIE05OC42OTk0ODA1LDEwMC4xNTgyODYgTDc0Ljc3ODg4NTMsMTEzLjk3MTI2OCBMNTAuODU4MjkwMiwxMDAuMTU4Mjg2IEw1MC44NTgyOTAyLDcyLjU0MzY1MjUgTDc0Ljc3ODg4NTMsNTguNzMwNjcwMiBMOTguNjk5NDgwNSw3Mi41NDM2NTI1IEw5OC42OTk0ODA1LDEwMC4xNTgyODYiLz4mI3hhOyAgICAgICAgPC9nPiYjeGE7ICAgICAgICA8cG9seWdvbiBwb2ludHM9Ijc0Ljc4OTA4MzYgMTQzLjM0MjI2OSA3NC43ODkwODM2IDExMy45NzgwNjcgNTAuOTkzMTMzOSAxMDAuMjgyOTMxIDUwLjk5MzEzMzkgMTI5LjU5ODQwOCIgZmlsbD0idXJsKCNsaW5lYXJHcmFkaWVudC0xKSIvPiYjeGE7ICAgIDwvZz4mI3hhOzwvc3ZnPg==;" parent="1" vertex="1">
          <mxGeometry x="827" y="787.4999999999999" width="132" height="44.6" as="geometry" />
        </mxCell>
        <mxCell id="tLALr3_oa9mdHLQlwb-y-2" value="" style="endArrow=classic;html=1;rounded=0;entryX=0;entryY=0.25;entryDx=0;entryDy=0;strokeColor=#FF0000;" edge="1" parent="1" target="RkbI90MtC3Ka5tVacX1f-3">
          <mxGeometry width="50" height="50" relative="1" as="geometry">
            <mxPoint x="120" y="798" as="sourcePoint" />
            <mxPoint x="170" y="760" as="targetPoint" />
          </mxGeometry>
        </mxCell>
        <mxCell id="tLALr3_oa9mdHLQlwb-y-5" value="&lt;font color=&quot;#ff0000&quot;&gt;Question&lt;/font&gt;" style="edgeLabel;html=1;align=center;verticalAlign=middle;resizable=0;points=[];" vertex="1" connectable="0" parent="tLALr3_oa9mdHLQlwb-y-2">
          <mxGeometry x="-0.0001" y="3" relative="1" as="geometry">
            <mxPoint as="offset" />
          </mxGeometry>
        </mxCell>
        <mxCell id="tLALr3_oa9mdHLQlwb-y-3" value="" style="endArrow=classic;html=1;rounded=0;entryX=0.25;entryY=1;entryDx=0;entryDy=0;strokeColor=#FF0000;exitX=0.336;exitY=-0.027;exitDx=0;exitDy=0;exitPerimeter=0;" edge="1" parent="1" source="RkbI90MtC3Ka5tVacX1f-3" target="RkbI90MtC3Ka5tVacX1f-13">
          <mxGeometry width="50" height="50" relative="1" as="geometry">
            <mxPoint x="370" y="760" as="sourcePoint" />
            <mxPoint x="530" y="760" as="targetPoint" />
          </mxGeometry>
        </mxCell>
        <mxCell id="tLALr3_oa9mdHLQlwb-y-6" value="&lt;font color=&quot;#ff0000&quot;&gt;Question&lt;/font&gt;" style="edgeLabel;html=1;align=center;verticalAlign=middle;resizable=0;points=[];" vertex="1" connectable="0" parent="tLALr3_oa9mdHLQlwb-y-3">
          <mxGeometry x="-0.0138" y="-1" relative="1" as="geometry">
            <mxPoint x="-14" y="16" as="offset" />
          </mxGeometry>
        </mxCell>
        <mxCell id="tLALr3_oa9mdHLQlwb-y-4" value="" style="endArrow=classic;html=1;rounded=0;exitX=0.609;exitY=1.088;exitDx=0;exitDy=0;entryX=0.472;entryY=0.027;entryDx=0;entryDy=0;entryPerimeter=0;strokeColor=#FF9933;exitPerimeter=0;" edge="1" parent="1" source="RkbI90MtC3Ka5tVacX1f-13" target="RkbI90MtC3Ka5tVacX1f-3">
          <mxGeometry width="50" height="50" relative="1" as="geometry">
            <mxPoint x="540" y="750" as="sourcePoint" />
            <mxPoint x="590" y="700" as="targetPoint" />
          </mxGeometry>
        </mxCell>
        <mxCell id="tLALr3_oa9mdHLQlwb-y-7" value="&lt;font color=&quot;#ff9933&quot;&gt;Question Vector&lt;/font&gt;" style="edgeLabel;html=1;align=center;verticalAlign=middle;resizable=0;points=[];" vertex="1" connectable="0" parent="tLALr3_oa9mdHLQlwb-y-4">
          <mxGeometry x="0.065" relative="1" as="geometry">
            <mxPoint x="34" y="-30" as="offset" />
          </mxGeometry>
        </mxCell>
        <mxCell id="tLALr3_oa9mdHLQlwb-y-8" value="" style="endArrow=classic;html=1;rounded=0;entryX=0;entryY=0.25;entryDx=0;entryDy=0;exitX=1;exitY=0.25;exitDx=0;exitDy=0;strokeColor=#FF9933;" edge="1" parent="1" source="RkbI90MtC3Ka5tVacX1f-3" target="RkbI90MtC3Ka5tVacX1f-16">
          <mxGeometry width="50" height="50" relative="1" as="geometry">
            <mxPoint x="530" y="800" as="sourcePoint" />
            <mxPoint x="580" y="750" as="targetPoint" />
          </mxGeometry>
        </mxCell>
        <mxCell id="tLALr3_oa9mdHLQlwb-y-9" value="&lt;font color=&quot;#ff9933&quot;&gt;Question Vector&lt;/font&gt;" style="edgeLabel;html=1;align=center;verticalAlign=middle;resizable=0;points=[];" vertex="1" connectable="0" parent="tLALr3_oa9mdHLQlwb-y-8">
          <mxGeometry x="0.0034" y="2" relative="1" as="geometry">
            <mxPoint as="offset" />
          </mxGeometry>
        </mxCell>
        <mxCell id="tLALr3_oa9mdHLQlwb-y-10" value="" style="endArrow=classic;html=1;rounded=0;entryX=0.996;entryY=0.622;entryDx=0;entryDy=0;entryPerimeter=0;strokeColor=#00CC00;" edge="1" parent="1" target="RkbI90MtC3Ka5tVacX1f-3">
          <mxGeometry width="50" height="50" relative="1" as="geometry">
            <mxPoint x="830" y="821" as="sourcePoint" />
            <mxPoint x="720" y="830" as="targetPoint" />
          </mxGeometry>
        </mxCell>
        <mxCell id="tLALr3_oa9mdHLQlwb-y-11" value="&lt;font color=&quot;#00cc00&quot;&gt;Similarity Search Top 1 Result&lt;/font&gt;" style="edgeLabel;html=1;align=center;verticalAlign=middle;resizable=0;points=[];" vertex="1" connectable="0" parent="tLALr3_oa9mdHLQlwb-y-10">
          <mxGeometry x="-0.0032" y="-2" relative="1" as="geometry">
            <mxPoint as="offset" />
          </mxGeometry>
        </mxCell>
        <mxCell id="tLALr3_oa9mdHLQlwb-y-12" value="" style="endArrow=classic;html=1;rounded=0;exitX=0.312;exitY=0.964;exitDx=0;exitDy=0;entryX=0;entryY=0.75;entryDx=0;entryDy=0;strokeColor=#00CC00;exitPerimeter=0;" edge="1" parent="1" source="RkbI90MtC3Ka5tVacX1f-3" target="RkbI90MtC3Ka5tVacX1f-8">
          <mxGeometry width="50" height="50" relative="1" as="geometry">
            <mxPoint x="570" y="920" as="sourcePoint" />
            <mxPoint x="620" y="870" as="targetPoint" />
          </mxGeometry>
        </mxCell>
        <mxCell id="tLALr3_oa9mdHLQlwb-y-13" value="&lt;span style=&quot;color: rgb(0, 204, 0);&quot;&gt;Similarity Search Top 1 Result&lt;/span&gt;" style="edgeLabel;html=1;align=center;verticalAlign=middle;resizable=0;points=[];" vertex="1" connectable="0" parent="tLALr3_oa9mdHLQlwb-y-12">
          <mxGeometry x="0.0337" y="2" relative="1" as="geometry">
            <mxPoint x="-62" as="offset" />
          </mxGeometry>
        </mxCell>
        <mxCell id="tLALr3_oa9mdHLQlwb-y-15" value="" style="endArrow=classic;html=1;rounded=0;exitX=0;exitY=0.25;exitDx=0;exitDy=0;entryX=0.5;entryY=1;entryDx=0;entryDy=0;strokeColor=#007FFF;" edge="1" parent="1" source="RkbI90MtC3Ka5tVacX1f-8" target="RkbI90MtC3Ka5tVacX1f-3">
          <mxGeometry width="50" height="50" relative="1" as="geometry">
            <mxPoint x="630" y="910" as="sourcePoint" />
            <mxPoint x="680" y="860" as="targetPoint" />
          </mxGeometry>
        </mxCell>
        <mxCell id="tLALr3_oa9mdHLQlwb-y-16" value="&lt;font color=&quot;#007fff&quot;&gt;Answer&lt;/font&gt;" style="edgeLabel;html=1;align=center;verticalAlign=middle;resizable=0;points=[];" vertex="1" connectable="0" parent="tLALr3_oa9mdHLQlwb-y-15">
          <mxGeometry x="-0.0653" relative="1" as="geometry">
            <mxPoint x="-14" y="-11" as="offset" />
          </mxGeometry>
        </mxCell>
        <mxCell id="tLALr3_oa9mdHLQlwb-y-17" value="" style="endArrow=classic;html=1;rounded=0;exitX=0;exitY=0.75;exitDx=0;exitDy=0;strokeColor=#007FFF;" edge="1" parent="1" source="RkbI90MtC3Ka5tVacX1f-3">
          <mxGeometry width="50" height="50" relative="1" as="geometry">
            <mxPoint x="230" y="840" as="sourcePoint" />
            <mxPoint x="120" y="826" as="targetPoint" />
          </mxGeometry>
        </mxCell>
        <mxCell id="tLALr3_oa9mdHLQlwb-y-19" value="&lt;font color=&quot;#007fff&quot;&gt;Answer&lt;/font&gt;" style="edgeLabel;html=1;align=center;verticalAlign=middle;resizable=0;points=[];" vertex="1" connectable="0" parent="tLALr3_oa9mdHLQlwb-y-17">
          <mxGeometry relative="1" as="geometry">
            <mxPoint as="offset" />
          </mxGeometry>
        </mxCell>
        <mxCell id="tLALr3_oa9mdHLQlwb-y-20" value="" style="shape=image;verticalLabelPosition=bottom;labelBackgroundColor=default;verticalAlign=top;aspect=fixed;imageAspect=0;image=data:image/svg+xml,PHN2ZyB4bWxucz0iaHR0cDovL3d3dy53My5vcmcvMjAwMC9zdmciIHZpZXdCb3g9IjAgMCAxNiAxNiIgY2xhc3M9ImJpIGJpLWZpbGV0eXBlLXBkZiIgZmlsbD0iY3VycmVudENvbG9yIiBoZWlnaHQ9IjE2IiB3aWR0aD0iMTYiPiYjeGE7ICA8cGF0aCBkPSJNMTQgNC41VjE0YTIgMiAwIDAgMS0yIDJoLTF2LTFoMWExIDEgMCAwIDAgMS0xVjQuNWgtMkExLjUgMS41IDAgMCAxIDkuNSAzVjFINGExIDEgMCAwIDAtMSAxdjlIMlYyYTIgMiAwIDAgMSAyLTJoNS41ek0xLjYgMTEuODVIMHYzLjk5OWguNzkxdi0xLjM0MmguODAzcS40MyAwIC43MzItLjE3My4zMDUtLjE3NS40NjMtLjQ3NGExLjQgMS40IDAgMCAwIC4xNjEtLjY3N3EwLS4zNzUtLjE1OC0uNjc3YTEuMiAxLjIgMCAwIDAtLjQ2LS40NzdxLS4zLS4xOC0uNzMyLS4xNzltLjU0NSAxLjMzM2EuOC44IDAgMCAxLS4wODUuMzguNTcuNTcgMCAwIDEtLjIzOC4yNDEuOC44IDAgMCAxLS4zNzUuMDgySC43ODhWMTIuNDhoLjY2cS4zMjcgMCAuNTEyLjE4MS4xODUuMTgzLjE4NS41MjJtMS4yMTctMS4zMzN2My45OTloMS40NnEuNjAyIDAgLjk5OC0uMjM3YTEuNDUgMS40NSAwIDAgMCAuNTk1LS42ODlxLjE5Ni0uNDUuMTk2LTEuMDg0IDAtLjYzLS4xOTYtMS4wNzVhMS40MyAxLjQzIDAgMCAwLS41ODktLjY4cS0uMzk2LS4yMzQtMS4wMDUtLjIzNHptLjc5MS42NDVoLjU2M3EuMzcxIDAgLjYwOS4xNTJhLjkuOSAwIDAgMSAuMzU0LjQ1NHEuMTE4LjMwMi4xMTguNzUzYTIuMyAyLjMgMCAwIDEtLjA2OC41OTIgMS4xIDEuMSAwIDAgMS0uMTk2LjQyMi44LjggMCAwIDEtLjMzNC4yNTIgMS4zIDEuMyAwIDAgMS0uNDgzLjA4MmgtLjU2M3ptMy43NDMgMS43NjN2MS41OTFoLS43OVYxMS44NWgyLjU0OHYuNjUzSDcuODk2djEuMTE3aDEuNjA2di42Mzh6IiBmaWxsLXJ1bGU9ImV2ZW5vZGQiLz4mI3hhOzwvc3ZnPg==;" vertex="1" parent="1">
          <mxGeometry x="57" y="570" width="46" height="46" as="geometry" />
        </mxCell>
        <mxCell id="tLALr3_oa9mdHLQlwb-y-21" value="Documents" style="rounded=1;whiteSpace=wrap;html=1;" vertex="1" parent="1">
          <mxGeometry x="45" y="620" width="70" height="20" as="geometry" />
        </mxCell>
        <mxCell id="tLALr3_oa9mdHLQlwb-y-26" value="" style="endArrow=classic;html=1;rounded=0;exitX=1;exitY=0.75;exitDx=0;exitDy=0;entryX=0.04;entryY=0;entryDx=0;entryDy=0;strokeColor=#FF66FF;entryPerimeter=0;fontColor=#FF66FF;" edge="1" parent="1" source="tLALr3_oa9mdHLQlwb-y-21" target="RkbI90MtC3Ka5tVacX1f-3">
          <mxGeometry width="50" height="50" relative="1" as="geometry">
            <mxPoint x="240" y="640" as="sourcePoint" />
            <mxPoint x="290" y="590" as="targetPoint" />
          </mxGeometry>
        </mxCell>
        <mxCell id="tLALr3_oa9mdHLQlwb-y-27" value="&lt;font&gt;Text Splitter&lt;/font&gt;" style="edgeLabel;html=1;align=center;verticalAlign=middle;resizable=0;points=[];fontColor=#FF66FF;" vertex="1" connectable="0" parent="tLALr3_oa9mdHLQlwb-y-26">
          <mxGeometry x="-0.058" y="2" relative="1" as="geometry">
            <mxPoint as="offset" />
          </mxGeometry>
        </mxCell>
        <mxCell id="tLALr3_oa9mdHLQlwb-y-28" value="" style="endArrow=classic;html=1;rounded=0;entryX=0;entryY=0.5;entryDx=0;entryDy=0;strokeColor=#FF66FF;fontColor=#FF66FF;" edge="1" parent="1" target="RkbI90MtC3Ka5tVacX1f-12">
          <mxGeometry width="50" height="50" relative="1" as="geometry">
            <mxPoint x="290" y="780" as="sourcePoint" />
            <mxPoint x="340" y="730" as="targetPoint" />
          </mxGeometry>
        </mxCell>
        <mxCell id="tLALr3_oa9mdHLQlwb-y-29" value="&lt;font&gt;Chunks&lt;/font&gt;" style="edgeLabel;html=1;align=center;verticalAlign=middle;resizable=0;points=[];fontColor=#FF66FF;" vertex="1" connectable="0" parent="tLALr3_oa9mdHLQlwb-y-28">
          <mxGeometry x="0.0225" y="-2" relative="1" as="geometry">
            <mxPoint as="offset" />
          </mxGeometry>
        </mxCell>
        <mxCell id="tLALr3_oa9mdHLQlwb-y-30" value="" style="endArrow=classic;html=1;rounded=0;exitX=1;exitY=0.5;exitDx=0;exitDy=0;strokeColor=#FF66FF;fontColor=#FF66FF;" edge="1" parent="1" source="RkbI90MtC3Ka5tVacX1f-12" target="RkbI90MtC3Ka5tVacX1f-16">
          <mxGeometry width="50" height="50" relative="1" as="geometry">
            <mxPoint x="720" y="620" as="sourcePoint" />
            <mxPoint x="770" y="570" as="targetPoint" />
          </mxGeometry>
        </mxCell>
        <mxCell id="tLALr3_oa9mdHLQlwb-y-31" value="&lt;font&gt;PDF Contents Vector&lt;/font&gt;" style="edgeLabel;html=1;align=center;verticalAlign=middle;resizable=0;points=[];fontColor=#FF66FF;" vertex="1" connectable="0" parent="tLALr3_oa9mdHLQlwb-y-30">
          <mxGeometry x="-0.0145" relative="1" as="geometry">
            <mxPoint as="offset" />
          </mxGeometry>
        </mxCell>
        <mxCell id="tLALr3_oa9mdHLQlwb-y-32" value="&lt;div style=&quot;&quot;&gt;&lt;span style=&quot;background-color: initial;&quot;&gt;Azure Storage&lt;/span&gt;&lt;/div&gt;" style="rounded=1;whiteSpace=wrap;html=1;align=right;fillColor=none;" vertex="1" parent="1">
          <mxGeometry x="260" y="481.25" width="103.25" height="20" as="geometry" />
        </mxCell>
        <mxCell id="tLALr3_oa9mdHLQlwb-y-33" value="" style="shape=image;verticalLabelPosition=bottom;labelBackgroundColor=default;verticalAlign=top;aspect=fixed;imageAspect=0;image=data:image/svg+xml,PHN2ZyB4bWxucz0iaHR0cDovL3d3dy53My5vcmcvMjAwMC9zdmciIHZpZXdCb3g9IjAgMCAxNiAxNiIgY2xhc3M9ImJpIGJpLWNsb3VkLWFycm93LXVwLWZpbGwiIGZpbGw9ImN1cnJlbnRDb2xvciIgaGVpZ2h0PSIxNiIgd2lkdGg9IjE2Ij4mI3hhOyAgPHBhdGggZD0iTTggMmE1LjUzIDUuNTMgMCAwIDAtMy41OTQgMS4zNDJjLS43NjYuNjYtMS4zMjEgMS41Mi0xLjQ2NCAyLjM4M0MxLjI2NiA2LjA5NSAwIDcuNTU1IDAgOS4zMTggMCAxMS4zNjYgMS43MDggMTMgMy43ODEgMTNoOC45MDZDMTQuNTAyIDEzIDE2IDExLjU3IDE2IDkuNzczYzAtMS42MzYtMS4yNDItMi45NjktMi44MzQtMy4xOTRDMTIuOTIzIDMuOTk5IDEwLjY5IDIgOCAybTIuMzU0IDUuMTQ2YS41LjUgMCAwIDEtLjcwOC43MDhMOC41IDYuNzA3VjEwLjVhLjUuNSAwIDAgMS0xIDBWNi43MDdMNi4zNTQgNy44NTRhLjUuNSAwIDEgMS0uNzA4LS43MDhsMi0yYS41LjUgMCAwIDEgLjcwOCAweiIvPiYjeGE7PC9zdmc+;" vertex="1" parent="1">
          <mxGeometry x="264.25" y="483.5" width="17.5" height="17.5" as="geometry" />
        </mxCell>
        <mxCell id="tLALr3_oa9mdHLQlwb-y-34" value="" style="shape=image;verticalLabelPosition=bottom;labelBackgroundColor=default;verticalAlign=top;aspect=fixed;imageAspect=0;image=data:image/svg+xml,PHN2ZyB4bWxucz0iaHR0cDovL3d3dy53My5vcmcvMjAwMC9zdmciIHZpZXdCb3g9IjAgMCAyNCAyNCIgcm9sZT0iaW1nIiBmaWxsPSIjMDA3OEQ0Ij48dGl0bGU+TWljcm9zb2Z0IEF6dXJlPC90aXRsZT48cGF0aCBkPSJNMjIuMzc5IDIzLjM0M2ExLjYyIDEuNjIgMCAwIDAgMS41MzYtMi4xNHYuMDAyTDE3LjM1IDEuNzZBMS42MiAxLjYyIDAgMCAwIDE1LjgxNi42NTdIOC4xODRBMS42MiAxLjYyIDAgMCAwIDYuNjUgMS43NkwuMDg2IDIxLjIwNGExLjYyIDEuNjIgMCAwIDAgMS41MzYgMi4xMzloNC43NDFhMS42MiAxLjYyIDAgMCAwIDEuNTM1LTEuMTAzbC45NzctMi44OTIgNC45NDcgMy42NzVjLjI4LjIwOC42MTguMzIuOTY2LjMybS0zLjA4NC0xMi41MzEgMy42MjQgMTAuNzM5YS41NC41NCAwIDAgMS0uNTEuNzEzdi0uMDAxaC0uMDNhLjU0LjU0IDAgMCAxLS4zMjItLjEwNmwtOS4yODctNi45aDQuODUzbTYuMzEzIDcuMDA2Yy4xMTYtLjMyNi4xMy0uNjk0LjAwNy0xLjA1OEw5Ljc5IDEuNzZhMS43MjIgMS43MjIgMCAwIDAtLjAwNy0uMDJoNi4wMzRhLjU0LjU0IDAgMCAxIC41MTIuMzY2bDYuNTYyIDE5LjQ0NWEuNTQuNTQgMCAwIDEtLjMzOC42ODQiLz48L3N2Zz4=;" vertex="1" parent="1">
          <mxGeometry x="284.25" y="420" width="54" height="54" as="geometry" />
        </mxCell>
        <mxCell id="tLALr3_oa9mdHLQlwb-y-35" value="" style="endArrow=classic;html=1;rounded=0;exitX=1;exitY=0;exitDx=0;exitDy=0;entryX=0;entryY=0.5;entryDx=0;entryDy=0;strokeColor=#1DC296;" edge="1" parent="1" source="tLALr3_oa9mdHLQlwb-y-20" target="tLALr3_oa9mdHLQlwb-y-34">
          <mxGeometry width="50" height="50" relative="1" as="geometry">
            <mxPoint x="100" y="580" as="sourcePoint" />
            <mxPoint x="150" y="530" as="targetPoint" />
          </mxGeometry>
        </mxCell>
        <mxCell id="tLALr3_oa9mdHLQlwb-y-36" value="&lt;font color=&quot;#1dc296&quot;&gt;Upload&lt;/font&gt;" style="edgeLabel;html=1;align=center;verticalAlign=middle;resizable=0;points=[];" vertex="1" connectable="0" parent="tLALr3_oa9mdHLQlwb-y-35">
          <mxGeometry x="0.0003" y="-1" relative="1" as="geometry">
            <mxPoint x="-1" as="offset" />
          </mxGeometry>
        </mxCell>
        <mxCell id="tLALr3_oa9mdHLQlwb-y-41" value="&lt;p style=&quot;margin:0px;margin-top:4px;text-align:center;text-decoration:underline;&quot;&gt;Web PDF View&lt;/p&gt;" style="verticalAlign=top;align=left;overflow=fill;html=1;whiteSpace=wrap;fillColor=#b0e3e6;strokeColor=#0e8088;" vertex="1" parent="1">
          <mxGeometry x="570" y="400" width="150" height="118" as="geometry" />
        </mxCell>
        <mxCell id="tLALr3_oa9mdHLQlwb-y-42" value="" style="shape=image;verticalLabelPosition=bottom;labelBackgroundColor=default;verticalAlign=top;aspect=fixed;imageAspect=0;image=data:image/svg+xml,PHN2ZyB4bWxucz0iaHR0cDovL3d3dy53My5vcmcvMjAwMC9zdmciIHZpZXdCb3g9IjAgMCAxNiAxNiIgY2xhc3M9ImJpIGJpLWJvZHktdGV4dCIgZmlsbD0iY3VycmVudENvbG9yIiBoZWlnaHQ9IjE2IiB3aWR0aD0iMTYiPiYjeGE7ICA8cGF0aCBkPSJNMCAuNUEuNS41IDAgMCAxIC41IDBoNGEuNS41IDAgMCAxIDAgMWgtNEEuNS41IDAgMCAxIDAgLjVtMCAyQS41LjUgMCAwIDEgLjUgMmg3YS41LjUgMCAwIDEgMCAxaC03YS41LjUgMCAwIDEtLjUtLjVtOSAwYS41LjUgMCAwIDEgLjUtLjVoNWEuNS41IDAgMCAxIDAgMWgtNWEuNS41IDAgMCAxLS41LS41bS05IDJBLjUuNSAwIDAgMSAuNSA0aDNhLjUuNSAwIDAgMSAwIDFoLTNhLjUuNSAwIDAgMS0uNS0uNW01IDBhLjUuNSAwIDAgMSAuNS0uNWg1YS41LjUgMCAwIDEgMCAxaC01YS41LjUgMCAwIDEtLjUtLjVtNyAwYS41LjUgMCAwIDEgLjUtLjVoM2EuNS41IDAgMCAxIDAgMWgtM2EuNS41IDAgMCAxLS41LS41bS0xMiAyQS41LjUgMCAwIDEgLjUgNmg2YS41LjUgMCAwIDEgMCAxaC02YS41LjUgMCAwIDEtLjUtLjVtOCAwYS41LjUgMCAwIDEgLjUtLjVoNWEuNS41IDAgMCAxIDAgMWgtNWEuNS41IDAgMCAxLS41LS41bS04IDJBLjUuNSAwIDAgMSAuNSA4aDVhLjUuNSAwIDAgMSAwIDFoLTVhLjUuNSAwIDAgMS0uNS0uNW03IDBhLjUuNSAwIDAgMSAuNS0uNWg3YS41LjUgMCAwIDEgMCAxaC03YS41LjUgMCAwIDEtLjUtLjVtLTcgMmEuNS41IDAgMCAxIC41LS41aDhhLjUuNSAwIDAgMSAwIDFoLThhLjUuNSAwIDAgMS0uNS0uNW0wIDJhLjUuNSAwIDAgMSAuNS0uNWg0YS41LjUgMCAwIDEgMCAxaC00YS41LjUgMCAwIDEtLjUtLjVtMCAyYS41LjUgMCAwIDEgLjUtLjVoMmEuNS41IDAgMCAxIDAgMWgtMmEuNS41IDAgMCAxLS41LS41IiBmaWxsLXJ1bGU9ImV2ZW5vZGQiLz4mI3hhOzwvc3ZnPg==;" vertex="1" parent="1">
          <mxGeometry x="620" y="435.5" width="50" height="50" as="geometry" />
        </mxCell>
        <mxCell id="tLALr3_oa9mdHLQlwb-y-43" value="&lt;div style=&quot;&quot;&gt;&lt;span style=&quot;background-color: initial;&quot;&gt;View PDF Conetent&lt;/span&gt;&lt;/div&gt;" style="rounded=1;whiteSpace=wrap;html=1;align=center;fillColor=#AFE3E6;" vertex="1" parent="1">
          <mxGeometry x="582.88" y="494" width="124.25" height="20" as="geometry" />
        </mxCell>
        <mxCell id="tLALr3_oa9mdHLQlwb-y-44" value="" style="endArrow=classic;html=1;rounded=0;exitX=1;exitY=0.5;exitDx=0;exitDy=0;strokeColor=#1DC296;entryX=0;entryY=0.25;entryDx=0;entryDy=0;" edge="1" parent="1" source="tLALr3_oa9mdHLQlwb-y-34" target="tLALr3_oa9mdHLQlwb-y-42">
          <mxGeometry width="50" height="50" relative="1" as="geometry">
            <mxPoint x="363.25" y="446.5" as="sourcePoint" />
            <mxPoint x="560.25" y="446.5" as="targetPoint" />
          </mxGeometry>
        </mxCell>
        <mxCell id="tLALr3_oa9mdHLQlwb-y-45" value="&lt;font&gt;Select&lt;/font&gt;&lt;div&gt;&lt;font&gt;PDF from&lt;/font&gt;&lt;/div&gt;&lt;div&gt;&lt;font&gt;Azure Storage&lt;/font&gt;&lt;/div&gt;" style="edgeLabel;html=1;align=center;verticalAlign=middle;resizable=0;points=[];fontColor=#1DC296;" vertex="1" connectable="0" parent="tLALr3_oa9mdHLQlwb-y-44">
          <mxGeometry x="-0.0056" y="-1" relative="1" as="geometry">
            <mxPoint as="offset" />
          </mxGeometry>
        </mxCell>
      </root>
    </mxGraphModel>
  </diagram>
  <diagram id="hLw1X1aMlgRdEfNXQPp5" name="翻譯與影像辨識">
    <mxGraphModel dx="1026" dy="655" grid="1" gridSize="10" guides="1" tooltips="1" connect="1" arrows="1" fold="1" page="1" pageScale="1" pageWidth="827" pageHeight="1169" math="0" shadow="0">
      <root>
        <mxCell id="0" />
        <mxCell id="1" parent="0" />
        <mxCell id="T6C8bOIJCTseZyUSac_L-1" value="&lt;p style=&quot;margin:0px;margin-top:4px;text-align:center;text-decoration:underline;&quot;&gt;Web Imgae Upload&lt;/p&gt;" style="verticalAlign=top;align=left;overflow=fill;html=1;whiteSpace=wrap;fillColor=#b0e3e6;strokeColor=#0e8088;" parent="1" vertex="1">
          <mxGeometry x="279.25" y="271.5" width="120" height="127" as="geometry" />
        </mxCell>
        <mxCell id="2J78mXZAkTu-fdsmlJne-2" value="&lt;p style=&quot;margin:0px;margin-top:4px;text-align:center;text-decoration:underline;&quot;&gt;Web Image DataBase&lt;/p&gt;" style="verticalAlign=top;align=left;overflow=fill;html=1;whiteSpace=wrap;fillColor=#b0e3e6;strokeColor=#0e8088;" parent="1" vertex="1">
          <mxGeometry x="1010" y="262" width="140" height="127" as="geometry" />
        </mxCell>
        <mxCell id="2J78mXZAkTu-fdsmlJne-1" value="&lt;p style=&quot;margin:0px;margin-top:4px;text-align:center;text-decoration:underline;&quot;&gt;Web Translate&lt;/p&gt;" style="verticalAlign=top;align=left;overflow=fill;html=1;whiteSpace=wrap;fillColor=#b0e3e6;strokeColor=#0e8088;" parent="1" vertex="1">
          <mxGeometry x="325" y="80" width="545" height="127" as="geometry" />
        </mxCell>
        <mxCell id="AgksCVgrS-xLTSP1oqfL-1" value="" style="shape=image;verticalLabelPosition=bottom;labelBackgroundColor=default;verticalAlign=top;aspect=fixed;imageAspect=0;image=data:image/svg+xml,PHN2ZyB4bWxucz0iaHR0cDovL3d3dy53My5vcmcvMjAwMC9zdmciIHZpZXdCb3g9IjAgMCAxNiAxNiIgY2xhc3M9ImJpIGJpLXBlb3BsZS1maWxsIiBmaWxsPSJjdXJyZW50Q29sb3IiIGhlaWdodD0iMTYiIHdpZHRoPSIxNiI+JiN4YTsgIDxwYXRoIGQ9Ik03IDE0cy0xIDAtMS0xIDEtNCA1LTQgNSAzIDUgNC0xIDEtMSAxem00LTZhMyAzIDAgMSAwIDAtNiAzIDMgMCAwIDAgMCA2bS01Ljc4NCA2QTIuMjQgMi4yNCAwIDAgMSA1IDEzYzAtMS4zNTUuNjgtMi43NSAxLjkzNi0zLjcyQTYuMyA2LjMgMCAwIDAgNSA5Yy00IDAtNSAzLTUgNHMxIDEgMSAxek00LjUgOGEyLjUgMi41IDAgMSAwIDAtNSAyLjUgMi41IDAgMCAwIDAgNSIvPiYjeGE7PC9zdmc+;" parent="1" vertex="1">
          <mxGeometry x="355" y="110.62" width="60" height="60" as="geometry" />
        </mxCell>
        <mxCell id="AgksCVgrS-xLTSP1oqfL-2" value="User" style="rounded=1;whiteSpace=wrap;html=1;fillColor=#AFE3E6;" parent="1" vertex="1">
          <mxGeometry x="355" y="170.62" width="60" height="20" as="geometry" />
        </mxCell>
        <mxCell id="ZXqJpVvIwMp1Cfs_KcMZ-1" value="&lt;div style=&quot;&quot;&gt;&lt;span style=&quot;background-color: initial;&quot;&gt;Azure Translate&lt;/span&gt;&lt;/div&gt;" style="rounded=1;whiteSpace=wrap;html=1;align=right;fillColor=#AFE3E6;" parent="1" vertex="1">
          <mxGeometry x="745" y="161.25" width="110" height="20" as="geometry" />
        </mxCell>
        <mxCell id="ZXqJpVvIwMp1Cfs_KcMZ-3" value="" style="shape=image;verticalLabelPosition=bottom;labelBackgroundColor=default;verticalAlign=top;aspect=fixed;imageAspect=0;image=data:image/svg+xml,PHN2ZyB4bWxucz0iaHR0cDovL3d3dy53My5vcmcvMjAwMC9zdmciIHZpZXdCb3g9IjAgMCAyNCAyNCIgcm9sZT0iaW1nIiBmaWxsPSIjMDA3OEQ0Ij48dGl0bGU+TWljcm9zb2Z0IEF6dXJlPC90aXRsZT48cGF0aCBkPSJNMjIuMzc5IDIzLjM0M2ExLjYyIDEuNjIgMCAwIDAgMS41MzYtMi4xNHYuMDAyTDE3LjM1IDEuNzZBMS42MiAxLjYyIDAgMCAwIDE1LjgxNi42NTdIOC4xODRBMS42MiAxLjYyIDAgMCAwIDYuNjUgMS43NkwuMDg2IDIxLjIwNGExLjYyIDEuNjIgMCAwIDAgMS41MzYgMi4xMzloNC43NDFhMS42MiAxLjYyIDAgMCAwIDEuNTM1LTEuMTAzbC45NzctMi44OTIgNC45NDcgMy42NzVjLjI4LjIwOC42MTguMzIuOTY2LjMybS0zLjA4NC0xMi41MzEgMy42MjQgMTAuNzM5YS41NC41NCAwIDAgMS0uNTEuNzEzdi0uMDAxaC0uMDNhLjU0LjU0IDAgMCAxLS4zMjItLjEwNmwtOS4yODctNi45aDQuODUzbTYuMzEzIDcuMDA2Yy4xMTYtLjMyNi4xMy0uNjk0LjAwNy0xLjA1OEw5Ljc5IDEuNzZhMS43MjIgMS43MjIgMCAwIDAtLjAwNy0uMDJoNi4wMzRhLjU0LjU0IDAgMCAxIC41MTIuMzY2bDYuNTYyIDE5LjQ0NWEuNTQuNTQgMCAwIDEtLjMzOC42ODQiLz48L3N2Zz4=;" parent="1" vertex="1">
          <mxGeometry x="767.25" y="100" width="54" height="54" as="geometry" />
        </mxCell>
        <mxCell id="ZXqJpVvIwMp1Cfs_KcMZ-4" value="" style="shape=image;verticalLabelPosition=bottom;labelBackgroundColor=default;verticalAlign=top;aspect=fixed;imageAspect=0;image=data:image/svg+xml,PHN2ZyB4bWxucz0iaHR0cDovL3d3dy53My5vcmcvMjAwMC9zdmciIHZpZXdCb3g9IjAgMCAxNiAxNiIgY2xhc3M9ImJpIGJpLXRyYW5zbGF0ZSIgZmlsbD0iY3VycmVudENvbG9yIiBoZWlnaHQ9IjE2IiB3aWR0aD0iMTYiPiYjeGE7ICA8cGF0aCBkPSJNNC41NDUgNi43MTQgNC4xMSA4SDNsMS44NjItNWgxLjI4NEw4IDhINi44MzNsLS40MzUtMS4yODZ6bTEuNjM0LS43MzZMNS41IDMuOTU2aC0uMDQ5bC0uNjc5IDIuMDIyeiIvPiYjeGE7ICA8cGF0aCBkPSJNMCAyYTIgMiAwIDAgMSAyLTJoN2EyIDIgMCAwIDEgMiAydjNoM2EyIDIgMCAwIDEgMiAydjdhMiAyIDAgMCAxLTIgMkg3YTIgMiAwIDAgMS0yLTJ2LTNIMmEyIDIgMCAwIDEtMi0yem0yLTFhMSAxIDAgMCAwLTEgMXY3YTEgMSAwIDAgMCAxIDFoN2ExIDEgMCAwIDAgMS0xVjJhMSAxIDAgMCAwLTEtMXptNy4xMzggOS45OTVxLjI4OS40NTEuNjMuODQ2Yy0uNzQ4LjU3NS0xLjY3MyAxLjAwMS0yLjc2OCAxLjI5Mi4xNzguMjE3LjQ1MS42MzUuNTU1Ljg2NyAxLjEyNS0uMzU5IDIuMDgtLjg0NCAyLjg4Ni0xLjQ5NC43NzcuNjY1IDEuNzM5IDEuMTY1IDIuOTMgMS40NzIuMTMzLS4yNTQuNDE0LS42NzMuNjI5LS44OS0xLjEyNS0uMjUzLTIuMDU3LS42OTQtMi44Mi0xLjI4NC42ODEtLjc0NyAxLjIyMi0xLjY1MSAxLjYyMS0yLjc1N0gxNFY4aC0zdjEuMDQ3aC43NjVjLS4zMTguODQ0LS43NCAxLjU0Ni0xLjI3MiAyLjEzYTYgNiAwIDAgMS0uNDE1LS40OTIgMiAyIDAgMCAxLS45NC4zMSIvPiYjeGE7PC9zdmc+;" parent="1" vertex="1">
          <mxGeometry x="749.25" y="163.25" width="16" height="16" as="geometry" />
        </mxCell>
        <mxCell id="j2U24ONOFtS10wm9C0Zo-1" value="&lt;font color=&quot;#ff0000&quot;&gt;Query&lt;/font&gt;" style="endArrow=classic;html=1;rounded=0;strokeColor=#FF0000;" parent="1" edge="1">
          <mxGeometry width="50" height="50" relative="1" as="geometry">
            <mxPoint x="415" y="129.37" as="sourcePoint" />
            <mxPoint x="745" y="129.37" as="targetPoint" />
          </mxGeometry>
        </mxCell>
        <mxCell id="j2U24ONOFtS10wm9C0Zo-4" value="" style="html=1;verticalAlign=bottom;endArrow=open;dashed=1;endSize=8;curved=0;rounded=0;strokeColor=#FF8000;" parent="1" edge="1">
          <mxGeometry x="-0.0588" y="20" relative="1" as="geometry">
            <mxPoint x="415" y="149.37" as="targetPoint" />
            <mxPoint x="745" y="149.37" as="sourcePoint" />
            <mxPoint as="offset" />
          </mxGeometry>
        </mxCell>
        <mxCell id="j2U24ONOFtS10wm9C0Zo-5" value="&lt;font color=&quot;#ff8000&quot;&gt;Translation Result&lt;/font&gt;" style="edgeLabel;html=1;align=center;verticalAlign=middle;resizable=0;points=[];" parent="j2U24ONOFtS10wm9C0Zo-4" vertex="1" connectable="0">
          <mxGeometry y="1" relative="1" as="geometry">
            <mxPoint as="offset" />
          </mxGeometry>
        </mxCell>
        <mxCell id="RcaE7pztx9820AHcw4Rl-1" value="" style="shape=image;verticalLabelPosition=bottom;labelBackgroundColor=default;verticalAlign=top;aspect=fixed;imageAspect=0;image=data:image/svg+xml,PHN2ZyB4bWxucz0iaHR0cDovL3d3dy53My5vcmcvMjAwMC9zdmciIHZpZXdCb3g9IjAgMCAxNiAxNiIgY2xhc3M9ImJpIGJpLWltYWdlLWZpbGwiIGZpbGw9ImN1cnJlbnRDb2xvciIgaGVpZ2h0PSIxNiIgd2lkdGg9IjE2Ij4mI3hhOyAgPHBhdGggZD0iTS4wMDIgM2EyIDIgMCAwIDEgMi0yaDEyYTIgMiAwIDAgMSAyIDJ2MTBhMiAyIDAgMCAxLTIgMmgtMTJhMiAyIDAgMCAxLTItMnptMSA5djFhMSAxIDAgMCAwIDEgMWgxMmExIDEgMCAwIDAgMS0xVjkuNWwtMy43NzctMS45NDdhLjUuNSAwIDAgMC0uNTc3LjA5M2wtMy43MSAzLjcxLTIuNjYtMS43NzJhLjUuNSAwIDAgMC0uNjMuMDYyem01LTYuNWExLjUgMS41IDAgMSAwLTMgMCAxLjUgMS41IDAgMCAwIDMgMCIvPiYjeGE7PC9zdmc+;" parent="1" vertex="1">
          <mxGeometry x="85" y="310" width="50" height="50" as="geometry" />
        </mxCell>
        <mxCell id="RcaE7pztx9820AHcw4Rl-2" value="Image" style="rounded=1;whiteSpace=wrap;html=1;" parent="1" vertex="1">
          <mxGeometry x="80" y="360" width="60" height="20" as="geometry" />
        </mxCell>
        <mxCell id="2J78mXZAkTu-fdsmlJne-4" style="edgeStyle=orthogonalEdgeStyle;rounded=0;orthogonalLoop=1;jettySize=auto;html=1;exitX=0.5;exitY=1;exitDx=0;exitDy=0;entryX=0.5;entryY=1;entryDx=0;entryDy=0;strokeColor=#0066CC;" parent="1" source="FouAyMefKLlwJXin_WRf-1" target="2J78mXZAkTu-fdsmlJne-2" edge="1">
          <mxGeometry relative="1" as="geometry">
            <mxPoint x="1090" y="490" as="targetPoint" />
            <Array as="points">
              <mxPoint x="339" y="440" />
              <mxPoint x="1080" y="440" />
            </Array>
          </mxGeometry>
        </mxCell>
        <mxCell id="2J78mXZAkTu-fdsmlJne-5" value="&lt;font color=&quot;#0066cc&quot;&gt;Select the Image from Azure Storage&lt;/font&gt;" style="edgeLabel;html=1;align=center;verticalAlign=middle;resizable=0;points=[];" parent="2J78mXZAkTu-fdsmlJne-4" vertex="1" connectable="0">
          <mxGeometry x="0.0114" relative="1" as="geometry">
            <mxPoint as="offset" />
          </mxGeometry>
        </mxCell>
        <mxCell id="FouAyMefKLlwJXin_WRf-1" value="&lt;div style=&quot;&quot;&gt;&lt;span style=&quot;background-color: initial;&quot;&gt;Azure Storage&lt;/span&gt;&lt;/div&gt;" style="rounded=1;whiteSpace=wrap;html=1;align=right;fillColor=#AFE3E6;" parent="1" vertex="1">
          <mxGeometry x="284" y="360" width="110" height="20" as="geometry" />
        </mxCell>
        <mxCell id="FouAyMefKLlwJXin_WRf-2" value="" style="shape=image;verticalLabelPosition=bottom;labelBackgroundColor=default;verticalAlign=top;aspect=fixed;imageAspect=0;image=data:image/svg+xml,PHN2ZyB4bWxucz0iaHR0cDovL3d3dy53My5vcmcvMjAwMC9zdmciIHZpZXdCb3g9IjAgMCAxNiAxNiIgY2xhc3M9ImJpIGJpLWNsb3VkLWFycm93LXVwLWZpbGwiIGZpbGw9ImN1cnJlbnRDb2xvciIgaGVpZ2h0PSIxNiIgd2lkdGg9IjE2Ij4mI3hhOyAgPHBhdGggZD0iTTggMmE1LjUzIDUuNTMgMCAwIDAtMy41OTQgMS4zNDJjLS43NjYuNjYtMS4zMjEgMS41Mi0xLjQ2NCAyLjM4M0MxLjI2NiA2LjA5NSAwIDcuNTU1IDAgOS4zMTggMCAxMS4zNjYgMS43MDggMTMgMy43ODEgMTNoOC45MDZDMTQuNTAyIDEzIDE2IDExLjU3IDE2IDkuNzczYzAtMS42MzYtMS4yNDItMi45NjktMi44MzQtMy4xOTRDMTIuOTIzIDMuOTk5IDEwLjY5IDIgOCAybTIuMzU0IDUuMTQ2YS41LjUgMCAwIDEtLjcwOC43MDhMOC41IDYuNzA3VjEwLjVhLjUuNSAwIDAgMS0xIDBWNi43MDdMNi4zNTQgNy44NTRhLjUuNSAwIDEgMS0uNzA4LS43MDhsMi0yYS41LjUgMCAwIDEgLjcwOCAweiIvPiYjeGE7PC9zdmc+;" parent="1" vertex="1">
          <mxGeometry x="293.25" y="362.25" width="17.5" height="17.5" as="geometry" />
        </mxCell>
        <mxCell id="FouAyMefKLlwJXin_WRf-3" value="" style="shape=image;verticalLabelPosition=bottom;labelBackgroundColor=default;verticalAlign=top;aspect=fixed;imageAspect=0;image=data:image/svg+xml,PHN2ZyB4bWxucz0iaHR0cDovL3d3dy53My5vcmcvMjAwMC9zdmciIHZpZXdCb3g9IjAgMCAyNCAyNCIgcm9sZT0iaW1nIiBmaWxsPSIjMDA3OEQ0Ij48dGl0bGU+TWljcm9zb2Z0IEF6dXJlPC90aXRsZT48cGF0aCBkPSJNMjIuMzc5IDIzLjM0M2ExLjYyIDEuNjIgMCAwIDAgMS41MzYtMi4xNHYuMDAyTDE3LjM1IDEuNzZBMS42MiAxLjYyIDAgMCAwIDE1LjgxNi42NTdIOC4xODRBMS42MiAxLjYyIDAgMCAwIDYuNjUgMS43NkwuMDg2IDIxLjIwNGExLjYyIDEuNjIgMCAwIDAgMS41MzYgMi4xMzloNC43NDFhMS42MiAxLjYyIDAgMCAwIDEuNTM1LTEuMTAzbC45NzctMi44OTIgNC45NDcgMy42NzVjLjI4LjIwOC42MTguMzIuOTY2LjMybS0zLjA4NC0xMi41MzEgMy42MjQgMTAuNzM5YS41NC41NCAwIDAgMS0uNTEuNzEzdi0uMDAxaC0uMDNhLjU0LjU0IDAgMCAxLS4zMjItLjEwNmwtOS4yODctNi45aDQuODUzbTYuMzEzIDcuMDA2Yy4xMTYtLjMyNi4xMy0uNjk0LjAwNy0xLjA1OEw5Ljc5IDEuNzZhMS43MjIgMS43MjIgMCAwIDAtLjAwNy0uMDJoNi4wMzRhLjU0LjU0IDAgMCAxIC41MTIuMzY2bDYuNTYyIDE5LjQ0NWEuNTQuNTQgMCAwIDEtLjMzOC42ODQiLz48L3N2Zz4=;" parent="1" vertex="1">
          <mxGeometry x="312.25" y="298.75" width="54" height="54" as="geometry" />
        </mxCell>
        <mxCell id="J7jkmmmJ5mADuRNY4spJ-1" value="" style="endArrow=classic;html=1;rounded=0;exitX=1;exitY=0.5;exitDx=0;exitDy=0;strokeColor=#0066CC;" parent="1" source="RcaE7pztx9820AHcw4Rl-1" edge="1">
          <mxGeometry width="50" height="50" relative="1" as="geometry">
            <mxPoint x="160" y="340" as="sourcePoint" />
            <mxPoint x="310" y="335" as="targetPoint" />
          </mxGeometry>
        </mxCell>
        <mxCell id="J7jkmmmJ5mADuRNY4spJ-2" value="&lt;font color=&quot;#0066cc&quot;&gt;Upload&lt;/font&gt;" style="edgeLabel;html=1;align=center;verticalAlign=middle;resizable=0;points=[];" parent="J7jkmmmJ5mADuRNY4spJ-1" vertex="1" connectable="0">
          <mxGeometry x="-0.0171" y="3" relative="1" as="geometry">
            <mxPoint as="offset" />
          </mxGeometry>
        </mxCell>
        <mxCell id="J7jkmmmJ5mADuRNY4spJ-3" value="&lt;div style=&quot;&quot;&gt;&lt;span style=&quot;background-color: initial;&quot;&gt;Azure Computer Vision&lt;/span&gt;&lt;/div&gt;" style="rounded=1;whiteSpace=wrap;html=1;align=right;" parent="1" vertex="1">
          <mxGeometry x="492.25" y="359.75" width="150" height="20" as="geometry" />
        </mxCell>
        <mxCell id="J7jkmmmJ5mADuRNY4spJ-4" value="" style="shape=image;verticalLabelPosition=bottom;labelBackgroundColor=default;verticalAlign=top;aspect=fixed;imageAspect=0;image=data:image/svg+xml,PHN2ZyB4bWxucz0iaHR0cDovL3d3dy53My5vcmcvMjAwMC9zdmciIHZpZXdCb3g9IjAgMCAyNCAyNCIgcm9sZT0iaW1nIiBmaWxsPSIjMDA3OEQ0Ij48dGl0bGU+TWljcm9zb2Z0IEF6dXJlPC90aXRsZT48cGF0aCBkPSJNMjIuMzc5IDIzLjM0M2ExLjYyIDEuNjIgMCAwIDAgMS41MzYtMi4xNHYuMDAyTDE3LjM1IDEuNzZBMS42MiAxLjYyIDAgMCAwIDE1LjgxNi42NTdIOC4xODRBMS42MiAxLjYyIDAgMCAwIDYuNjUgMS43NkwuMDg2IDIxLjIwNGExLjYyIDEuNjIgMCAwIDAgMS41MzYgMi4xMzloNC43NDFhMS42MiAxLjYyIDAgMCAwIDEuNTM1LTEuMTAzbC45NzctMi44OTIgNC45NDcgMy42NzVjLjI4LjIwOC42MTguMzIuOTY2LjMybS0zLjA4NC0xMi41MzEgMy42MjQgMTAuNzM5YS41NC41NCAwIDAgMS0uNTEuNzEzdi0uMDAxaC0uMDNhLjU0LjU0IDAgMCAxLS4zMjItLjEwNmwtOS4yODctNi45aDQuODUzbTYuMzEzIDcuMDA2Yy4xMTYtLjMyNi4xMy0uNjk0LjAwNy0xLjA1OEw5Ljc5IDEuNzZhMS43MjIgMS43MjIgMCAwIDAtLjAwNy0uMDJoNi4wMzRhLjU0LjU0IDAgMCAxIC41MTIuMzY2bDYuNTYyIDE5LjQ0NWEuNTQuNTQgMCAwIDEtLjMzOC42ODQiLz48L3N2Zz4=;" parent="1" vertex="1">
          <mxGeometry x="540.25" y="298.5" width="54" height="54" as="geometry" />
        </mxCell>
        <mxCell id="J7jkmmmJ5mADuRNY4spJ-6" value="" style="shape=image;verticalLabelPosition=bottom;labelBackgroundColor=default;verticalAlign=top;aspect=fixed;imageAspect=0;image=data:image/svg+xml,PHN2ZyB4bWxucz0iaHR0cDovL3d3dy53My5vcmcvMjAwMC9zdmciIHZpZXdCb3g9IjAgMCAxNiAxNiIgY2xhc3M9ImJpIGJpLWNwdS1maWxsIiBmaWxsPSJjdXJyZW50Q29sb3IiIGhlaWdodD0iMTYiIHdpZHRoPSIxNiI+JiN4YTsgIDxwYXRoIGQ9Ik02LjUgNmEuNS41IDAgMCAwLS41LjV2M2EuNS41IDAgMCAwIC41LjVoM2EuNS41IDAgMCAwIC41LS41di0zYS41LjUgMCAwIDAtLjUtLjV6Ii8+JiN4YTsgIDxwYXRoIGQ9Ik01LjUuNWEuNS41IDAgMCAwLTEgMFYyQTIuNSAyLjUgMCAwIDAgMiA0LjVILjVhLjUuNSAwIDAgMCAwIDFIMnYxSC41YS41LjUgMCAwIDAgMCAxSDJ2MUguNWEuNS41IDAgMCAwIDAgMUgydjFILjVhLjUuNSAwIDAgMCAwIDFIMkEyLjUgMi41IDAgMCAwIDQuNSAxNHYxLjVhLjUuNSAwIDAgMCAxIDBWMTRoMXYxLjVhLjUuNSAwIDAgMCAxIDBWMTRoMXYxLjVhLjUuNSAwIDAgMCAxIDBWMTRoMXYxLjVhLjUuNSAwIDAgMCAxIDBWMTRhMi41IDIuNSAwIDAgMCAyLjUtMi41aDEuNWEuNS41IDAgMCAwIDAtMUgxNHYtMWgxLjVhLjUuNSAwIDAgMCAwLTFIMTR2LTFoMS41YS41LjUgMCAwIDAgMC0xSDE0di0xaDEuNWEuNS41IDAgMCAwIDAtMUgxNEEyLjUgMi41IDAgMCAwIDExLjUgMlYuNWEuNS41IDAgMCAwLTEgMFYyaC0xVi41YS41LjUgMCAwIDAtMSAwVjJoLTFWLjVhLjUuNSAwIDAgMC0xIDBWMmgtMXptMSA0LjVoM0ExLjUgMS41IDAgMCAxIDExIDYuNXYzQTEuNSAxLjUgMCAwIDEgOS41IDExaC0zQTEuNSAxLjUgMCAwIDEgNSA5LjV2LTNBMS41IDEuNSAwIDAgMSA2LjUgNSIvPiYjeGE7PC9zdmc+;" parent="1" vertex="1">
          <mxGeometry x="495.5" y="362" width="16" height="16" as="geometry" />
        </mxCell>
        <mxCell id="J7jkmmmJ5mADuRNY4spJ-7" value="" style="endArrow=classic;html=1;rounded=0;exitX=1;exitY=0.75;exitDx=0;exitDy=0;entryX=0;entryY=0.75;entryDx=0;entryDy=0;strokeColor=#0066CC;" parent="1" source="FouAyMefKLlwJXin_WRf-3" target="J7jkmmmJ5mADuRNY4spJ-4" edge="1">
          <mxGeometry width="50" height="50" relative="1" as="geometry">
            <mxPoint x="390" y="340" as="sourcePoint" />
            <mxPoint x="440" y="290" as="targetPoint" />
          </mxGeometry>
        </mxCell>
        <mxCell id="J7jkmmmJ5mADuRNY4spJ-8" value="&lt;font color=&quot;#0066cc&quot;&gt;Recognize&lt;/font&gt;" style="edgeLabel;html=1;align=center;verticalAlign=middle;resizable=0;points=[];" parent="J7jkmmmJ5mADuRNY4spJ-7" vertex="1" connectable="0">
          <mxGeometry x="0.0661" y="2" relative="1" as="geometry">
            <mxPoint as="offset" />
          </mxGeometry>
        </mxCell>
        <mxCell id="J7jkmmmJ5mADuRNY4spJ-9" value="確認是否簡體中文" style="shape=rhombus;perimeter=rhombusPerimeter;whiteSpace=wrap;html=1;align=center;" parent="1" vertex="1">
          <mxGeometry x="730" y="296" width="140" height="60" as="geometry" />
        </mxCell>
        <mxCell id="J7jkmmmJ5mADuRNY4spJ-10" value="" style="endArrow=classic;html=1;rounded=0;entryX=0;entryY=0.5;entryDx=0;entryDy=0;exitX=1;exitY=0.5;exitDx=0;exitDy=0;strokeColor=#0066CC;" parent="1" source="J7jkmmmJ5mADuRNY4spJ-4" target="J7jkmmmJ5mADuRNY4spJ-9" edge="1">
          <mxGeometry width="50" height="50" relative="1" as="geometry">
            <mxPoint x="600" y="320" as="sourcePoint" />
            <mxPoint x="670" y="270" as="targetPoint" />
          </mxGeometry>
        </mxCell>
        <mxCell id="J7jkmmmJ5mADuRNY4spJ-11" value="&lt;font color=&quot;#0066cc&quot;&gt;Check&lt;/font&gt;" style="edgeLabel;html=1;align=center;verticalAlign=middle;resizable=0;points=[];" parent="J7jkmmmJ5mADuRNY4spJ-10" vertex="1" connectable="0">
          <mxGeometry x="-0.0018" y="-1" relative="1" as="geometry">
            <mxPoint as="offset" />
          </mxGeometry>
        </mxCell>
        <mxCell id="J7jkmmmJ5mADuRNY4spJ-12" value="&lt;font color=&quot;#0066cc&quot;&gt;是&lt;/font&gt;" style="endArrow=classic;html=1;rounded=0;exitX=0.5;exitY=0;exitDx=0;exitDy=0;strokeColor=#0066CC;entryX=0.5;entryY=1;entryDx=0;entryDy=0;" parent="1" source="J7jkmmmJ5mADuRNY4spJ-9" target="ZXqJpVvIwMp1Cfs_KcMZ-1" edge="1">
          <mxGeometry width="50" height="50" relative="1" as="geometry">
            <mxPoint x="540" y="250" as="sourcePoint" />
            <mxPoint x="800" y="190" as="targetPoint" />
          </mxGeometry>
        </mxCell>
        <mxCell id="Qr8VCIhcEP6grkTkaDaj-3" style="edgeStyle=orthogonalEdgeStyle;rounded=0;orthogonalLoop=1;jettySize=auto;html=1;strokeColor=#0066CC;entryX=0;entryY=0.5;entryDx=0;entryDy=0;" parent="1" source="J7jkmmmJ5mADuRNY4spJ-9" target="2J78mXZAkTu-fdsmlJne-2" edge="1">
          <mxGeometry relative="1" as="geometry">
            <mxPoint x="980" y="340" as="targetPoint" />
          </mxGeometry>
        </mxCell>
        <mxCell id="Qr8VCIhcEP6grkTkaDaj-4" value="&lt;font color=&quot;#0066cc&quot;&gt;否&lt;/font&gt;" style="edgeLabel;html=1;align=center;verticalAlign=middle;resizable=0;points=[];" parent="Qr8VCIhcEP6grkTkaDaj-3" vertex="1" connectable="0">
          <mxGeometry x="-0.1142" y="2" relative="1" as="geometry">
            <mxPoint y="1" as="offset" />
          </mxGeometry>
        </mxCell>
        <mxCell id="Qr8VCIhcEP6grkTkaDaj-5" value="" style="endArrow=classic;html=1;rounded=0;exitX=1;exitY=0.5;exitDx=0;exitDy=0;strokeColor=#0066CC;entryX=0.5;entryY=0;entryDx=0;entryDy=0;" parent="1" target="2J78mXZAkTu-fdsmlJne-2" edge="1">
          <mxGeometry width="50" height="50" relative="1" as="geometry">
            <mxPoint x="821.25" y="124" as="sourcePoint" />
            <mxPoint x="1080" y="240" as="targetPoint" />
            <Array as="points">
              <mxPoint x="1080" y="124" />
            </Array>
          </mxGeometry>
        </mxCell>
        <mxCell id="Qr8VCIhcEP6grkTkaDaj-9" value="&lt;font color=&quot;#0066cc&quot;&gt;Translate to Traditional Chinese&lt;/font&gt;" style="edgeLabel;html=1;align=center;verticalAlign=middle;resizable=0;points=[];" parent="Qr8VCIhcEP6grkTkaDaj-5" vertex="1" connectable="0">
          <mxGeometry x="-0.3939" y="3" relative="1" as="geometry">
            <mxPoint x="49" y="1" as="offset" />
          </mxGeometry>
        </mxCell>
        <mxCell id="zmmwe4tPkW_Lx1J9Ku6U-1" value="&lt;h1 style=&quot;box-sizing: border-box; margin-right: 0px; margin-bottom: 16px; margin-left: 0px; font-weight: var(--base-text-weight-semibold, 600); line-height: 1.25; padding-bottom: 0.3em; border-bottom: 1px solid var(--borderColor-muted, var(--color-border-muted)); font-family: -apple-system, &amp;quot;system-ui&amp;quot;, &amp;quot;Segoe UI&amp;quot;, &amp;quot;Noto Sans&amp;quot;, Helvetica, Arial, sans-serif, &amp;quot;Apple Color Emoji&amp;quot;, &amp;quot;Segoe UI Emoji&amp;quot;; margin-top: 0px !important; font-size: 32px;&quot; dir=&quot;auto&quot; class=&quot;heading-element&quot; tabindex=&quot;-1&quot;&gt;&lt;font color=&quot;#333333&quot;&gt;Azure翻譯 &amp;amp; 影像辨識&lt;/font&gt;&lt;/h1&gt;" style="text;html=1;whiteSpace=wrap;overflow=hidden;rounded=0;" parent="1" vertex="1">
          <mxGeometry x="60" y="20" width="323" height="55.5" as="geometry" />
        </mxCell>
        <mxCell id="30a4zffLVvVWNOX23xMV-1" value="&lt;font style=&quot;font-size: 14px;&quot;&gt;Recognize&lt;/font&gt;&lt;div style=&quot;font-size: 14px;&quot;&gt;&lt;font style=&quot;font-size: 14px;&quot;&gt;Result&lt;/font&gt;&lt;/div&gt;" style="rounded=1;whiteSpace=wrap;html=1;fillColor=#bac8d3;strokeColor=#23445d;" parent="1" vertex="1">
          <mxGeometry x="1020" y="302" width="120" height="60" as="geometry" />
        </mxCell>
      </root>
    </mxGraphModel>
  </diagram>
  <diagram id="NUDhAzvY4aCplOCpz4dC" name="文章摘要">
    <mxGraphModel dx="1026" dy="655" grid="1" gridSize="10" guides="1" tooltips="1" connect="1" arrows="1" fold="1" page="1" pageScale="1" pageWidth="827" pageHeight="1169" math="0" shadow="0">
      <root>
        <mxCell id="0" />
        <mxCell id="1" parent="0" />
        <mxCell id="OtniT3-lh6ENemrMkfly-1" value="" style="html=1;whiteSpace=wrap;rounded=1;fillColor=#CC99FF;" parent="1" vertex="1">
          <mxGeometry x="540" y="190" width="620" height="240" as="geometry" />
        </mxCell>
        <mxCell id="uuBmSbrLrov6eUD0asJv-1" value="&lt;p style=&quot;margin:0px;margin-top:4px;text-align:center;text-decoration:underline;&quot;&gt;Web TXT Upload&lt;/p&gt;" style="verticalAlign=top;align=left;overflow=fill;html=1;whiteSpace=wrap;fillColor=#b0e3e6;strokeColor=#0e8088;" parent="1" vertex="1">
          <mxGeometry x="285.25" y="368" width="120" height="127" as="geometry" />
        </mxCell>
        <mxCell id="tmFguLVLCGUOgxoaLgUV-1" value="" style="shape=image;verticalLabelPosition=bottom;labelBackgroundColor=default;verticalAlign=top;aspect=fixed;imageAspect=0;image=data:image/svg+xml,PHN2ZyB4bWxucz0iaHR0cDovL3d3dy53My5vcmcvMjAwMC9zdmciIHZpZXdCb3g9IjAgMCAxNiAxNiIgY2xhc3M9ImJpIGJpLXBlb3BsZS1maWxsIiBmaWxsPSJjdXJyZW50Q29sb3IiIGhlaWdodD0iMTYiIHdpZHRoPSIxNiI+JiN4YTsgIDxwYXRoIGQ9Ik03IDE0cy0xIDAtMS0xIDEtNCA1LTQgNSAzIDUgNC0xIDEtMSAxem00LTZhMyAzIDAgMSAwIDAtNiAzIDMgMCAwIDAgMCA2bS01Ljc4NCA2QTIuMjQgMi4yNCAwIDAgMSA1IDEzYzAtMS4zNTUuNjgtMi43NSAxLjkzNi0zLjcyQTYuMyA2LjMgMCAwIDAgNSA5Yy00IDAtNSAzLTUgNHMxIDEgMSAxek00LjUgOGEyLjUgMi41IDAgMSAwIDAtNSAyLjUgMi41IDAgMCAwIDAgNSIvPiYjeGE7PC9zdmc+;" parent="1" vertex="1">
          <mxGeometry x="50" y="140" width="60" height="60" as="geometry" />
        </mxCell>
        <mxCell id="tmFguLVLCGUOgxoaLgUV-2" value="User" style="rounded=1;whiteSpace=wrap;html=1;" parent="1" vertex="1">
          <mxGeometry x="45" y="200" width="60" height="20" as="geometry" />
        </mxCell>
        <mxCell id="tmFguLVLCGUOgxoaLgUV-3" value="" style="shape=image;verticalLabelPosition=bottom;labelBackgroundColor=default;verticalAlign=top;aspect=fixed;imageAspect=0;image=data:image/svg+xml,PHN2ZyB4bWxucz0iaHR0cDovL3d3dy53My5vcmcvMjAwMC9zdmciIHZpZXdCb3g9IjAgMCAxNiAxNiIgY2xhc3M9ImJpIGJpLWZpbGUtdGV4dC1maWxsIiBmaWxsPSJjdXJyZW50Q29sb3IiIGhlaWdodD0iMTYiIHdpZHRoPSIxNiI+JiN4YTsgIDxwYXRoIGQ9Ik0xMiAwSDRhMiAyIDAgMCAwLTIgMnYxMmEyIDIgMCAwIDAgMiAyaDhhMiAyIDAgMCAwIDItMlYyYTIgMiAwIDAgMC0yLTJNNSA0aDZhLjUuNSAwIDAgMSAwIDFINWEuNS41IDAgMCAxIDAtMW0tLjUgMi41QS41LjUgMCAwIDEgNSA2aDZhLjUuNSAwIDAgMSAwIDFINWEuNS41IDAgMCAxLS41LS41TTUgOGg2YS41LjUgMCAwIDEgMCAxSDVhLjUuNSAwIDAgMSAwLTFtMCAyaDNhLjUuNSAwIDAgMSAwIDFINWEuNS41IDAgMCAxIDAtMSIvPiYjeGE7PC9zdmc+;" parent="1" vertex="1">
          <mxGeometry x="50" y="290" width="60" height="60" as="geometry" />
        </mxCell>
        <mxCell id="tmFguLVLCGUOgxoaLgUV-4" value="Documents" style="rounded=1;whiteSpace=wrap;html=1;" parent="1" vertex="1">
          <mxGeometry x="45" y="360" width="70" height="20" as="geometry" />
        </mxCell>
        <mxCell id="2_NxsiDs7d75cV97_DHz-1" value="&lt;div style=&quot;&quot;&gt;&lt;span style=&quot;background-color: initial;&quot;&gt;Azure Storage&lt;/span&gt;&lt;/div&gt;" style="rounded=1;whiteSpace=wrap;html=1;align=right;fillColor=#AFE3E6;" parent="1" vertex="1">
          <mxGeometry x="290" y="461.25" width="110" height="20" as="geometry" />
        </mxCell>
        <mxCell id="2_NxsiDs7d75cV97_DHz-2" value="" style="shape=image;verticalLabelPosition=bottom;labelBackgroundColor=default;verticalAlign=top;aspect=fixed;imageAspect=0;image=data:image/svg+xml,PHN2ZyB4bWxucz0iaHR0cDovL3d3dy53My5vcmcvMjAwMC9zdmciIHZpZXdCb3g9IjAgMCAxNiAxNiIgY2xhc3M9ImJpIGJpLWNsb3VkLWFycm93LXVwLWZpbGwiIGZpbGw9ImN1cnJlbnRDb2xvciIgaGVpZ2h0PSIxNiIgd2lkdGg9IjE2Ij4mI3hhOyAgPHBhdGggZD0iTTggMmE1LjUzIDUuNTMgMCAwIDAtMy41OTQgMS4zNDJjLS43NjYuNjYtMS4zMjEgMS41Mi0xLjQ2NCAyLjM4M0MxLjI2NiA2LjA5NSAwIDcuNTU1IDAgOS4zMTggMCAxMS4zNjYgMS43MDggMTMgMy43ODEgMTNoOC45MDZDMTQuNTAyIDEzIDE2IDExLjU3IDE2IDkuNzczYzAtMS42MzYtMS4yNDItMi45NjktMi44MzQtMy4xOTRDMTIuOTIzIDMuOTk5IDEwLjY5IDIgOCAybTIuMzU0IDUuMTQ2YS41LjUgMCAwIDEtLjcwOC43MDhMOC41IDYuNzA3VjEwLjVhLjUuNSAwIDAgMS0xIDBWNi43MDdMNi4zNTQgNy44NTRhLjUuNSAwIDEgMS0uNzA4LS43MDhsMi0yYS41LjUgMCAwIDEgLjcwOCAweiIvPiYjeGE7PC9zdmc+;" parent="1" vertex="1">
          <mxGeometry x="299.25" y="463.5" width="17.5" height="17.5" as="geometry" />
        </mxCell>
        <mxCell id="2_NxsiDs7d75cV97_DHz-3" value="" style="shape=image;verticalLabelPosition=bottom;labelBackgroundColor=default;verticalAlign=top;aspect=fixed;imageAspect=0;image=data:image/svg+xml,PHN2ZyB4bWxucz0iaHR0cDovL3d3dy53My5vcmcvMjAwMC9zdmciIHZpZXdCb3g9IjAgMCAyNCAyNCIgcm9sZT0iaW1nIiBmaWxsPSIjMDA3OEQ0Ij48dGl0bGU+TWljcm9zb2Z0IEF6dXJlPC90aXRsZT48cGF0aCBkPSJNMjIuMzc5IDIzLjM0M2ExLjYyIDEuNjIgMCAwIDAgMS41MzYtMi4xNHYuMDAyTDE3LjM1IDEuNzZBMS42MiAxLjYyIDAgMCAwIDE1LjgxNi42NTdIOC4xODRBMS42MiAxLjYyIDAgMCAwIDYuNjUgMS43NkwuMDg2IDIxLjIwNGExLjYyIDEuNjIgMCAwIDAgMS41MzYgMi4xMzloNC43NDFhMS42MiAxLjYyIDAgMCAwIDEuNTM1LTEuMTAzbC45NzctMi44OTIgNC45NDcgMy42NzVjLjI4LjIwOC42MTguMzIuOTY2LjMybS0zLjA4NC0xMi41MzEgMy42MjQgMTAuNzM5YS41NC41NCAwIDAgMS0uNTEuNzEzdi0uMDAxaC0uMDNhLjU0LjU0IDAgMCAxLS4zMjItLjEwNmwtOS4yODctNi45aDQuODUzbTYuMzEzIDcuMDA2Yy4xMTYtLjMyNi4xMy0uNjk0LjAwNy0xLjA1OEw5Ljc5IDEuNzZhMS43MjIgMS43MjIgMCAwIDAtLjAwNy0uMDJoNi4wMzRhLjU0LjU0IDAgMCAxIC41MTIuMzY2bDYuNTYyIDE5LjQ0NWEuNTQuNTQgMCAwIDEtLjMzOC42ODQiLz48L3N2Zz4=;" parent="1" vertex="1">
          <mxGeometry x="318.25" y="400" width="54" height="54" as="geometry" />
        </mxCell>
        <mxCell id="2_NxsiDs7d75cV97_DHz-6" value="" style="endArrow=classic;html=1;rounded=0;exitX=1;exitY=0.5;exitDx=0;exitDy=0;entryX=0;entryY=0.5;entryDx=0;entryDy=0;strokeColor=#0066CC;" parent="1" source="tmFguLVLCGUOgxoaLgUV-3" target="2_NxsiDs7d75cV97_DHz-3" edge="1">
          <mxGeometry width="50" height="50" relative="1" as="geometry">
            <mxPoint x="120" y="320" as="sourcePoint" />
            <mxPoint x="170" y="270" as="targetPoint" />
          </mxGeometry>
        </mxCell>
        <mxCell id="2_NxsiDs7d75cV97_DHz-7" value="&lt;font color=&quot;#0066cc&quot;&gt;Upload&lt;/font&gt;" style="edgeLabel;html=1;align=center;verticalAlign=middle;resizable=0;points=[];" parent="2_NxsiDs7d75cV97_DHz-6" vertex="1" connectable="0">
          <mxGeometry x="-0.0251" y="2" relative="1" as="geometry">
            <mxPoint as="offset" />
          </mxGeometry>
        </mxCell>
        <mxCell id="SDPW6XIpB1vGcOdaVHzk-1" value="" style="shape=image;verticalLabelPosition=bottom;labelBackgroundColor=default;verticalAlign=top;aspect=fixed;imageAspect=0;image=data:image/png,iVBORw0KGgoAAAANSUhEUgAAAlgAAADxCAYAAAAX6snTAAAAAXNSR0IArs4c6QAAAERlWElmTU0AKgAAAAgAAYdpAAQAAAABAAAAGgAAAAAAA6ABAAMAAAABAAEAAKACAAQAAAABAAACWKADAAQAAAABAAAA8QAAAACfY950AAA7xklEQVR4Ae2dQXbbtvb/AdlOMrPfCuxO2mRUvxVYXYH9VhB1BXEHSc8bVR39T5xB3BU8dQV1VvDkFTx3FKeT2iv4xbM4tsX/vYAlESBIkQBIUeIX5yQmQeAC+IAiL4GLCyEQQAAEQAAEQAAEQAAEQAAEQAAEQAAEQAAEQAAEQAAEQAAEQAAEQAAEQAAEQAAEQAAEQAAEQAAEQAAEQAAEQAAEQAAEQAAEQAAEQAAEQAAEQAAEQAAEQAAEQAAEQAAEQAAEQAAEQAAEQAAEQAAEQAAEQAAEQAAEQAAEQAAEQAAEQAAEQAAEQAAEQAAEQAAEQAAEQAAEQAAEQAAEQAAEQAAEQAAEQAAEQAAEQAAEQAAEQAAEQAAEQAAEQAAEQAAEQAAEQAAEQAAEQAAEQAAEQAAEQAAEQAAEQAAEQAAEQAAEQAAEQAAEQAAEQAAEQAAEQAAEQAAEQAAEQAAEQAAEQAAEQAAEQAAEQAAEQAAEQAAEQAAEQAAEQAAEQAAEQAAEQAAEQAAEQAAEQAAEQAAEQAAEQAAEQAAEQAAEQAAEQAAEQAAEQAAEQAAEQAAEQAAEQAAEQAAEQAAEQAAEQAAEQAAEQAAEQAAEQAAEQAAEQAAEQAAEQAAEQAAEQAAEQAAEQAAEQAAEQAAEQAAEQAAEQAAEQAAEQAAEQAAEQAAEQAAEQAAEQAAEQAAEQAAEQAAEQAAEQAAEQAAEQAAEQAAEQAAEQAAEQAAEQAAEQAAEQAAEQAAEQAAEQAAEQAAEQAAEQAAEQAAEQAAEVpSAXNF6o9ogAALvPvYVhInQf/lEyn36f4cPC0OSjOfXexeiN/ks7sWV+PeLq3k8jkAABEAABHwJQMHyJYd8INAUAaVIkeKUiD0qkhUo/rdN/+oK1yT4SrASJukv/3v9YlxXYZALAiAAAutIAArWOvYq2rTaBFihSuQRNYIVqYMWNeZcK10bZ+LNtxctqheqAgIgAAKtIwAFq3Vdggp1jsD/+7gnNniaTylVhyvSfh7lOhMyOcPo1or0GKoJAiDQKAEoWI3iRmEg8Ejg/d874u7LEdlMHdPU3/crzkUrWw/JKWy4VrwnUX0QAIFoBKBgRUMJQSBQgoCyp+oNaKrtZYnUq5jkXIhkJN68GK1i5VFnEAABEIhFAApWLJKQAwJFBE4+DmgKcEhJdouSrdG1a1K0hlC01qhH0RQQAIFKBKBgVcKFxCBQgQBPA379cqymAetd9VehUo0nhaLVOHIUCAIg0AYCULDa0Auow3oRgGLl6s9rMogfwCDehQZxIAAC60gACtY69iratDwCeirwlCpQp5+q5bUvvOQP4iE5hjF8OEhIAAEQaDcBKFjt7h/UblUIaN9VI6puV2ysQnrmhpyXDsXr56yIIoAACIDAWhKAgrWW3YpGNUZAuVu4HVF5q+K/qjE0JQr6ILaeDsRP33wukRZJQAAEQGClCEDBWqnuQmVbReDdJfuwGlKdMB3o3zE3QvT68AzvDxA5QQAE2kkAClY7+wW1ajMB5XldjqiKbdrGps3EStQt+REuHUpgQhIQAIGVIQAFa2W6ChVtBYG3n8j7OjnSxKhV/O6Q8nfx+rtBfMGQCAIgAALNE4CC1TxzlLiKBNjW6v7raSs9sEvxJ01Vsh3TBdXv0Z6pdyF6kwLbJrkvJsmO6gpJx0LwMf9d7nQnlCzVJfgPBEBg9QlAwVr9PkQL6iZw8te+kJNRC/YMJHslpUSNyW7pghyYXkW3XVKK5BdStFjpon9J0qcym10ZCSWLkCOAAAisOgEoWKveg6h/vQSWPyV4Ti4NzkTSG0dXpsqSUzZnoi9kr08K1xFlq3+UC0pW2d5BOhAAgZYSgILV0o5BtVpA4O3HIY0S/bKEmnygffzOxNazs1a6MOARPTEZEBf+V5+yBSWL8CKAAAisKgEoWKvac6h3vQTefaIpweRlvYWkpCs7quS0tUpVqqrGoR7hG1DcoREf6wRKViySkAMCINAwAShYDQNHcS0noGyQbseN2VuxApHI06VN/8XqDp5G7NGIlpTHJDLyqBZcOMTqJsgBARBojgAUrOZYo6S2E2hOubqh0bFT8eTZaSunAEP6STMckILKilY843iZ/ICNokM6BnlBAASaJgAFq2niKK+dBJpRrtZXsbJ7lXl+/XIccUTrhrbV2Vs7hdTmhnMQAIG1IQAFa226Eg3xJtCEcsVTgZtPjjunIDDbu9sh9c0r7/6ZZzwXb57356c4AgEQAIH2EoCC1d6+Qc2aIFC/cnVOPquOV97GKrQv9MrDUxJzECQqSX4VP78YBslAZhAAARBogAAUrAYgo4gSBN597KtUE/K3NA1Szo+ncfO/n8mO6WJ22hNjdbz57KLSKNG7S/J+Lr6fyYl3cEP+q4bi9XNWKhCmBKJskN37Z+cV1ilP/AUBEGgtAShYre2aNa2Yss352ic/SuQdXSlQe9TSeMbQc2zkoJM8nQtWwujf6xfj+aXHo/pcMZyLh2Qg/v2CykfIEOAVh5uSnKd6K7aYKsxARQQIgEDbCEDBaluPrGN9tK8k8gROo1P+L9VwMnrPvrFSuGSP6lKDnytMYZXvp5NLHt3ztM2C64byoJESBEBgGQSgYC2DehfKZKWqJ45IiTmi5m53oMk0JUhtdY2UdaDx3k3034oIqwq9oSMjCIBAEwSgYDVBuStlqD3rlKNJVqrqmPZrJ0keGdt82q9k+9XOliynVr6baWO0cDn9hVJBAARKEYCCVQoTEhUSYAP1RClWh4Xp1vFiV90vxO5L39WcD8k3sHWL3RmQBwIgEIMAFKwYFLsqQytWQ2p+2NL7VeWHffLi91zVhQfog/h9AIkgAAJRCEDBioKxY0L0VOCIWt1NxUp392/k9PK4Yz3fTHOrKlkYxWqmX1AKCIBAJQK9SqmRuNsEeBqHV35tyL8JRIeVK17BBuWqth/D6+940+jfS8vnTaYRQAAEQKBlBDCC1bIOaW11/Fd7tbZJXhWDYbUXNq9M5UeysKLQCzAygQAI1EkAI1h10l0H2XrU6oxcEPxBzemCu4X8XuNRFWzTks8n9pXyI1nb4u4Lr1xFAAEQAIHWEICC1ZquaGFFeNTq7vaKata91YF2d8CY2ibSzDkrWUKcLyxMqlWsC5MhAQiAAAg0RQAKVlOkV60ctrXCqJXuNeXn6gkM2pd1D289PaJdAP4sLJ53CFAbShemwkUQAAEQaIwAFKzGUK9IQXpKcEy1fbUiNa67mjdwIlo34gXyf/rms7hXOwLcFKecDIqv4yoIgAAINEcAClZzrNtfEo8A3N1eUEU7vELQ6ibe/oZf8AjLJcAbZ3NfFIdB8WVcBQEQAIHmCGAVYXOs211SG1YJ6s2Yr2j/wgvRk6TU0N904H3+1LYqDzvzaLkvJskOLevfpziOj6ccYsXgHHNbjt5+HFJf/5JbnUT+S/z83VnudVwAARAAgYYIQMFqCHSrizn5OBBC/mcJdTwnZWpMm0KPo26SrPe261Ob9kk+/fXaF/GcfF1xXoS2EXh3eSHY5sod4ADWzQWxIAACDROAgtUw8NYV17xy9YFGps7E1rOzxqbeZgoXOaTMfzGnuwZ+ldI02nasdxK4oGptO6p2TYrxniMeUSAAAiDQKAEoWI3ibllhzSlX17QK7JSMxUeNKVV5qPnlzJ6/pRxQkl1nMkwzObG0KrJwqrD3T/HmW1bAEEAABEBgaQSgYC0N/ZILbka5oilAedpamxjerFr0aFQreZnqDUwxpWC0+jBvqlCKn8Tr56etrjsqBwIgsPYEoGCtfRc7Gli/cnVOK76GUe2qHM2IFqWnnI5J3j7srqJRrV8QK8iJ/K+joA/Uj0eOeESBAAiAQGMEoGA1hrolBdWrXF2TfdVQvHkxaklrUY11J3ByOaYmHljNvCEFa8eKwykIgAAINEoAfrAaxb3kwtjYu67VguzSYOspjQBBuVpyL3er+Idk4GjwtuBRSQQQAAEQWCIBKFhLhN9o0eqFMxlHL1NtYUJGxbwJMhxyRscLgQsIKAektAm3HTZE347COQiAAAg0SWCzycJQ1hIJbMozclHgWtbuXyketXpDihUCCCyTwP1kKDZkeqEC1UY5nl1mrVA2CIBAxwlgBKsLNwBv3FzO/1NZGjdkxP6DGrUqmwPpQKAuAjyKJcS5JZ6mwxFAAARAYHkEoGAtj30zJStXBBE3buYpwYdkf2VWCDZDGaUsmwC7AzEDFCyTB85AAAQaJoBVhA0Db7S493/vPG7evBulXFauNp/2YWsVhSaExCZwcnlFIuf3+tbTf+BejQ0Z8kAABMoSwAhWWVKrmO7rl2Oq9vyFE9IGSYbEUK5CCCJv3QSSZGQUcf8Fo1gGEJyAAAg0SQBG7k3SbrIsXjUo5S+RivwgXn83iCQLYkCgHgITMRIbYn7PJ2KvnoIgFQRAAAQWE8AI1mJGq5liQ46iVJynBbeeDqLIghAQqJOActlA9+s0QMGaksBfEACBJRCAgrUE6LUXqQ3bD4LLgc1VMEIIaJjAJDmbldjr7c2OcQACIAACDROAgtUw8EaKS+QwQjk3IukNYCQcgSRENEdAbswVrCTZa65glAQCIAACJgEoWCaP1T+LNXolkmPx5tuL1QeCFnSKgL5nbzrVZjQWBECglQSgYLWyWwIqlcjjgNw6K68YxJ6CwRghYGkExo8l7y+tBigYBECg8wSgYK3TLaA3uD0MbNKN2HwSrqQFVgLZQcCbgBTjx7xxt4byrhAyggAIdJEAFKx16vWNCKNXiYTd1TrdE51sS4Kp7U72OxoNAu0iAAWrXf0RWptBoIBz8fN3Z4EykB0Elkvg9YvxciuA0kEABEBACChY63IXvP10RE0JnBLpYWpwXe4HtOMaCEAABEBgmQSgYC2Tfsyye4IVLP+gDNuxatAfIHK2jMCVqo+2S2xZ1VAdEACBLhCAgrUuvZwkYQpWIk/XBQXaAQIiScaKwia2y8HdAAIgsBwCULCWwz1uqeHTg+fweRW3SyANBEAABECg2wSgYK1D/4dOD2L0ah3uArQhTaA3c9WQjsUxCIAACDRGAApWY6hrKujkr32aDgmZHrzBysGa+gZil08AKwqX3weoAQh0lMBmR9vd3mazUS7bjUxEX0i5QxXdf6zsHv3dfTxO/Zmkjr0OR165kAkEQAAEQAAEQCCXABSsXDQNXeARKDnpi4QUKqH+bdOxELKh8kVv1FRJKAcEQAAEQAAEukIACtYyelptyNwb0NReX4jJrlKollEPIW5g3L4c8CgVBEAABEBgvQlAwWqqf9//vSO+fjmmaT9SrHiqj4eplhykPFtyDVA8CNRDYPPZhbj/8kM9wiEVBEAABBYTgIK1mFFYCmVT1RuKu9uXpFyFyYqdO5mMY4uEPBBoBYGfvvlM9Ri3oi6oBAiAQCcJQMGqq9unilWSvKSpwLpKCZS7cREoANlBAARAAARAAAQcBFo2pOKo4apFzacCf2l51cn+6vlOy+uI6oEACIAACIDAShLACFbMbmPj9bvbEU0Fko1V6wNGr1rfRaggCIAACIDAqhKAghWj53jU6u52SHbrr2KIa0gGFKyGQKMYEAABEACB7hGAghXa5+zH6p5GrYT4PlRUo/mluGq0PBQGAiAAAiAAAh0i0OtQW+M39eTjgPxYjWnkarWUK0UiwQhW/DsCEkEABEAABEBAEYCC5XsjvLs8Jnfr/6Hs274ikA8EQAAEQAAEQGA9CWAVoU+/vvs0ItcLL32ytibPm+fo+9Z0BioCAiAAAiCwbgQwglW1R9dBuaraZqQHARAAARAAARCoRAAKVhVcUK6q0EJaEAABEAABEOgsAawiLNv1bHPV5LSgFH+S8fyY9iy8ELzi757+/fvFVaa67CLi/ss+pd0jm7B9us7/DjLpEAECIAACIAACINAYAdjhlEGtVgsqg/Yyqf3TSPm74P0Bt56dCb2Xmr+st5+OhEz6pJz1Hascz8mLe99fOHKCAAiAAAiAAAgUEYCCVUSHr7GfK3bFUN9qwWtSgk7F5tNRsFLF9XUFtX3PV1K2ZgrX5+gK1snl2FV0t+KSkXjzYuRss1Z4aeVpxJDIU/Hzd2cRJZqi1KitODIjQ896x+LNtxehUpz5Ty5PKX7fec0nMuZHiHqOPOiRZin7PtVZkTwX9Gw5jlLXoGdKzm+x6HdYtr+z9TLbrD/IBwYDKc7E6+d8f5ohK0uIh2SQma14+3FIO4T0zcw5vyXeB3dDjsy0j2cu2a6Ert+SlFfi9XcDV3LhanNZnk6B6xGJKcKiftQe2s8oSR2uGK5p+m+Y+0IuqlfVa3o0jNvB/+oKmJZUU7o5ePnhJJK4jKTyZVZnnw6oNZF9vJGSIcQF/asjvIoo9DxYFr/Me6SgJskRfaTRM4S+Z/FJWwWr/+8l77eo+iPHhIK3Onv9YlyigsX1Snqf6WPWTJMoqaeGbP3xbqbjBL0e/0au+HAWepLuI+u3mPehsqnSZuWyML4m6IN+ceA6mDISatPJx7HzncUmKtJKv7iMtU8BI/eiLuZ9BYXYLUrice2GHri/0lfenvNG9RCILCtAQD8MbyLXlB+C9QX7gR6lJGUnGEWSIUS9rIyYsJMkGXsJ4I8yHm04ueSX7B+PdpukXCG0goBSdnNqkijlI+dihejJ5MKR2vFbVR8bjqSTbNrsb7HoA2DgEKqjEjIZCQpyKPgeRyhFAApWHib++hTiMO+yZ/w5Df/ui59fDD3zI9tqExhHrn72QRyrAP6aryfUVOe8l5VnI3q8wKRi4GmSu9srmsr5hXJCqaqIr/bk+p4u6hd+5ocHvRjp2hK0LXjqLh1kr58+nR3bU4Gu32LeBwArP1llbCaaDg4DFaRd8fXLcVogjvMJYIrQxUZPDY5cl7zjeNQKipU3vrXImPCKUBlTadcPbdfq0mBgNY002dMOwfWcCoha35uSU0W6cP28OKMTc0plWjX89SPAz0w7SDmgKHNWwZXOpSBnR6hYCUrL2lU2t3lTb3Zdis6lHGdWnW+KPcpyNc9GH9vusGdGO+5tV/s4090XUhJlOjuPmptKpUojRulElY6lPCZlcZSxE6skpBuJoWC5+vn+6ylFmzelK125OLrBk2NSrkblkiPV2hLgh2IieHQjXsg8tGOJ5od6EkuYKYe/5OMrhXkvK7PscmfjcskoFU9N3t1y+ljPi9JFr31C1wfpyWWf2p1WikSFD1dSPlIhIUN4Pdo4j5STPp1czCM8j3g1uJAvjdwTNT1H8Y8hf6RpV40yzVaSZ36LBR8AmWnOEZU2oH/z+1P2+nQ+on++YVts9oaUeeAroCv5MEVo9zQPx8bzd0XKVa8PWysbckfPyxnQVoOjH9rV8pRKnft1XSp3YSJtxFuYxOPigUcedxZZcnpQGymPScj85eWWiNhlE9A2eqZiNlFKBo9ipcMgfeJ9/OC4h2RqJCo77WfaZ7Jvw1nI/BbHs0vZg0MjKqGRNGHVpcgOzchsnJj143dktg1GBpzQ2x8QLAIJGfHFCY/K1bfhX0Nx6gMp7SBwHrUa6Yd2TMH5X9cRSnEY8YZIjW7g3hsvrA6Uq4WIWpVAj0ylq3T9OIp6lo5U9ku2rZSRoOSJHqE1lRIp9ua5U8qWjjTfE+kPJ/u3mPcBoO2G50Xw0ZMnYxqJNtvIHwSutJw+P4zoktmeeO/K/FJX/AoUrHQHao08xpcwlKs0VxzPCeQZp85TVDsyHtrVsuamrvvL1Dbiza1I2QtRDdxvFvrpUquoavWNV7bhSFeewMBIyjZSHPQIjzqc/addGcxOAw7GRl5DUbIVLJquTIfph5Prt5jkfACwC4p04N1AeJrRNZpmp03ncx0nyWea2Tm1Lh14KGqWiPU+hYKV7t9YGrkkvzcxDCXTdcPxmhDomV+qoa0yHtqhwh7zp7+eI4m0xOxZ54Gn9ssqSNx4Ye67Wx4RwLTgQlAtScAjUvbvZPLoE1A76rVGZkQ/Ss1dI00zhSk17ceKEG+Hlg6zD6fMvZ3/AZCQI+l0mDyOXPFoGpeRDnba9LW84yfPWMEyWclHpSvP6D5PVkfioWBNOzrW6JUUP1VagTQtH3+7QUAN2Udu6uyhHUnu9Os5kjiHGG3E67jgGbXvmS+bzfVSTKdi7/ZYLZgm0v7jDYfCZP4Ox1YjQl0ZaHGukSa1ZyxdNhQ+eZF5Z0yvT9PPKzieH6aOXDZmaaVnqmzNs+gVk/PzxUc8GpYdxSI55J4EwUkACtYUS5zRqw/O7RCmZeAvCPBDyv6aDKaS+coNlRhPYcmriWHEm5eodHyMaX1dmOulOK2G9jE0nJ7i76oQyKysuxZ8//GHif44ucq0RLsyyERXinDOYtBvNfNBpHZkYNGmwb1WmszfYu4HwGTgrNu0jT35OXs9J0824TzGNYolotktz8tZkyMoWNyR2qgx9CF9LbaeDtbkvkAz6iSQt42Hb5nZr1xfSeLRCaG52spfWn7OWNOQcQ3crwun9rWDRUwN5vdqW6+YK+vYzUMi/zv7J8SrTMVlr5+J84uwF7WQwmR9EM2V+gujiCTZo3PzvTRPaySlj7a+GUFn6TYm4n3muitPJpEVkTeKFev3bBW36qdQsLgHN8hxWmiQtEEn33wIILCIgMuwdlGe4uv00I4U4o4s5Vcq2jRkRAP3qeGzq9Y8esUOFhFWi0D11XK6fX6uDLJssota6LdqKVjTkS52RJwOWUN09weAy8YsLSfvmKchfVZM6lEsc7RNO4DNK6mz8VCwdNcPAu8Amhp8MQ6UgexdIeDeqyyk9eZXboikpr5EZ0a8IZXlvNbLKkSccg6ZI+D+dkBXtnOuIrqtBLJKStma+rgyyMpO20Hpq9tkx7SXSjgf4bLT2oboeR8AIaseffKqgYRkmGoDH9Y/6m0VuAqn8OSuDfTCHpwP5KkdAQTKEuBVPSeX/AUY76HEX6IxvKNHG1laAGNqxLsgWYnLNCIQKbiWs89FD+aHtR3d0CjZmeAVblJeFU5X1laFNROcHYm6cRhqk54u+9Ry80NFqlV5Z0FE+MP75NIWMS8nPcK1+eyCdgVIpzWfD3kfAInlnoElOLcP6tFqSnIQaoYBnZ6aUSXO3tDOJLzgI97vuEShq5cECpbIGEBW60W+kWO82KqV2r7Urh90jFr2nA8Ff8lS/i4mkyt/AQU57S/QgqT0QB87HnZFOYqvae/oV8WJSl3tl0oVIxEb4IaP/M5fVmF1mjqezErRew1+n70QNeY3suEcwswgIlPtDNb+eB47t9bhe5FtlsxwRKfHZpTXGY9S5dynKbctPDJU9OHl+gDQ96Yt+9rZRp32pdECVpA43su8hQcWMswM8V0/6baCpW+4w4Cb4Ebo+egAEWuS1bVvWIymqRU31p5eQXInI3r4jINExMjs2qssSK7yjn4WJELbY9gvpCCRxZnV9N64OE3BVf0CLUhQ4VLe9AuL+Pq1T0bEdQUatSK/eeGKZl31W2G5rlVyGa/mun16pIl9PKXv/1ibP1+QXFsJ0uWa7iI4jtPu6ovG/+4PgOzmzpzJ/RxgJerd5Z+ZUSffzZ81swLl0ah/J0+6bYMVuhSXh/O9NP9O3mtodJqA62s0fb3qcYypvXr2CCxoSaj9VEQD97zpF1X7yFv7zInQC70XYxRvLhFHaQJH6RN1XPS74+d5JriUtEyi4oj8RS3XmfeHbeg+lZz3ASB7/WmS2d/88jjJaJZudhAyi9M7nonBQYZAtxWs0OnB+8kwQxQRIFCGgJ5WNr0il8mXn2Y//1LZK7UpEu4KmMa+7jSFsaEKWkp48Yu3n0oZ8ZCmWKYryCJKhSgioEdj7ZEg9yjQFJhLyfZxZTCVN/2bHaWaXrmYHsz/pqYM55FkU6W2ZkrH6OOsjZkQ2jt9Ni3HuN08+M/i8P3LZhcITgLdniIUou+kUi7yHLZX5UAhVS6BMV3xf7iZYu2XiXm1zFn0PQIXFuqeNlmYbZYgglJJstjxa/N2lLTkngyFESoSoD37yviR29jYEcnDr6bwHOVlmmjr2Zn4+mVveqr+JsaZPrHtTaW1zY2dRU/N/SQmyY5xyWWzySuMe8KqN+WaiLGRl09YibQ9qy+qCytEbz9m5WcWyVicXXWdVogHGnoLGEzTduyv7Fh7583V9hv/m0dUPUp+xAOyKjOP9G7jUw9Bj1lk8kNr7F30Kpz3/o2xcoa27eTyM0nctqTWfNr7p/cozsml6/XnU9/fxJvnx7kZ45UzL0JtqfX8dB6BIxAAgXUj0N0pwuThKKgz+WsHAQRCCLiH6wMkBkyZ+Ru4B05zetpRxfTgXmyzEtAfRVktp5JFSXENBEBgJQl0V8EKMwo+zxgnrmT3o9JLJaDtbwIVlFQLQrbMcW2ImxJdcHhRcK3EJV+l0FMxc9Uo30bGlTpOHFYNxuEIKSDQYgLdVbBC7K/SzuFa3Lmo2koQCFRQjDbuG2eVTnwVHbWs/LpSUWZizzp719csne2vsBLYZIIzEACBKAS6qWCx/6sQW5Mig78o3QIhnSEQV1kPMRr3U3SS5DP11VVAf/mVK4RvPrOqZQymzRw4AwEQAIFSBLqpYIVuaIvh/VI3FxKVIBBbWfe3TfJTzrj+vK2Lf9j22nA2z3Fj1Xosxf6qaiWRHgRAYBUJdFPBCtkglqcUEEAgFoHYyrqPbyl/pUyIexq9Ct16qKqD05D62v1W5DPIThvzXC8qiCkRskAABFpGoJsKlu2PpEqnJEHTIVVKQtruEDiP19SJx9RZgME4+49a5HtnYeOq1jmgvmZdInI3BS88819UsFA0EoAACLSDQDcVrBCHinlbGbSjP1GL1SRwEa3aXve2t8G4VlBCFazKdfaur4m5rP1bLaPWIduTmM3AGQiAQDsJdFPBamdfoFZdJRDXDmjPA6PHqBeVMrW94mnCsLBXMbtffe1Cytq/JeKznTXC+aGn7VmEoiECBECgCQJQsKpSLvtQrioX6btLIK4fpl2hV8lW4eln4D61vQrfZqZqnf3qaxMpb/8Wb4QxXYcNOUqf4hgEQGC9CHR1L8I4D+j1uhfQmmUR0HuV/Ul7rH0fpQp6ley4lCy1FVGplNlE6Y8NnkYLqX/ZOisD90m2LtVjKthfsdd1Wb2ExTkOxLtPI/H6u8HipB1MwfemHVxKMS8Y2BR7RlIeVbUVf/7wsFeQJxufja2a+P6SDzuGrEUndp3S5UxE35ldTatvXBhlOxMicpUJdFXBWuU+Q93XkYD2xxRHwdKrZMflMAXYM20+m4/shE6j6RdRiTqzgXsEZaes/RVDfCBXFBvlaFZOlSQvxbvLfXGfHGUUgsrC1ixDIs+oRebemCd/Zfeu3JCnpNwfGq3fEKxA9424r1/7NK39hxEnJr/R+fE8bkKyZNUPcPOGZCUukf9VMs0r82LUEX0onFxe04bNI/Hzi6F1EadrQABThGvQiWjCOhCIuTddFaWpSlqD843hAb2KwmKIeTwpvXWVd33NUuUGv7zLBT0Scl0usUcqHvnbkH/Ty/ZMvP105DHF61HoSmQZZ2rpdkNCSncmOOIcq1VlUv4+yBQRJWKXlL5fSMm+QL9H4dkqIRjBalV3oDKdJRBzlMT9EspBmzheRDlJzegL4zR4JaHYM+Tln/jWNy3xxmNqhl/Er9JCajg+FDI5FHe3PLLB4s9rKGORyAsaUfksePqXRyiXuY0Qr9iW0hyZEkpJ4r7Qgafj7m53p6epv9qBbXqa0LVa1Z7eSwlo9JCV7K9fjqnMYaPlorBaCUDBqhUvhINASQL8IuDpAiFcL4uSQmbJyk9x+NpN2SNWrGAls/KrH5SvRwwFa1y5gg/JKY0y1a1g2dUq3492Tv/zA1JqBPXlL0rRe3fJjpVHNIV51vgUJit5XI90sJUkZVNF9XUFbZd1lbpk3zvlFNgk+TUlw+9Qip/E6+enKrOye5SsTJnKo1RxQ78CkKuNBLqqYF1TZ+x6dUhpWxEv6cjUZQJS0guFbHJiBDbWffPtRaGoEAN3e8SKRzt45CUkcH2KRhS09/PtkCJUXkkv7qqBFeB3n36P1j9Vy19Weq34vifl8j19AJzTCNuwsI9i1pPvBT2Sl5a6lz4R/DzO0a/UNfHY1657x/5IMASnTqLYR6VMAPQ9zm27olLS76HweztVbRwun0BXbbCulo8eNQABi0AyGVsxAadlvJ2H2DPRCqh00FNJN+mo6scL6mOvFKtegM6R9MZeWe8nQ69865PpQBlvn1ySckAKfDPBHmUyXXrYI1rpOqXt+lzbMaVXwabzNXUsa/Gv1lTtUU4JAl1VsEqgyUmS/tHmJEE0CPgRsJQWPyE6VyL2FmdfoNAUCXCPjplKV1F+17VFdc5b8u6SlR/nY3+lpWl7Hl511vVwIMTkf+Ltx2HtIFyjTKarhbmil/W4P7+mbbfM6haNlpop45/xYobstPiH+AVB4jIJdHOKkD1QJwk9JLzCjlcuZAKBRQRYaTm55FGg8KmCoi/7WT28DdztUYWpRFawfH9XLCP1QpyKTP3t9fbod5uK8Doce+WaZtp6OqSp0CM63Z1GdfYvr347udwXW08H9RnD9+iesvtcfRiMHz3hz38rE7ITk/L7VH/o0S4eXc3+HvLu4VT2x8MiRZJHwUopar0BKaR9JVF9pNNiBjPciIfk2IzC2aoT6KaCxR6o2ZDTL4S8QPxKRK4uERhTY+2Hr0/79xZmyn5BL8zymIBeeq7AdibevysWuOC35a0QzivrY381zy2UIvHu42Dm5yh9rZvHh+L+dkwuBvq1KFlPnoyztn2PI69q2i+tfJEyJhPT4a0e7RpT1+wb3SPFmXFedMKKZF6YqPLHeZdn8Wxbmf/OOSflatD4IoJZ5XBQF4GOThHyV1FAaM7+IKCSyLqSBEIVgHmjTVuVebw+cnnJttPknqcMdtNpbMP39LWyx9oY2Z3aXyGcy+PVcKFBjVgkP4aKWZv83C9aydqJ3iY1+kS7BKTDzA2J5ddKzUzY+2KSMqa3jpqPdLEsXzu8dD3iHe8Jl41YPPmQtCQC3VSw+IcYEuSkH5IdeUEgn0CO8pKfIf+KaatipXscBbBiy53m2IqVmipZUEKeIXucj5rraKMEb16MaETi9wWt6c5lVrLubke1NFjvcpAWfaBOzGk/bVvHvrPSge36sr8Dfzu8tOx4x+RsNPmDnI0exxMJSW0g0E0Fy22gW74/EtEvnxgpQaACgRhKyqy4IiWq6NpMgOug+OWUNTR2yciPyzVkL7MqMl+susJuMGIG3kMwho+kmHVarqzDWpSExNFveqRzP9VcrVhlVwbuP7prSCUlu6kqgfs471+2PLdkmfwg3jyXZK/2D5pe/hclyhq0J+L9o12ZWwZiV45AN22wdDed0x/9JVS922LYyFQvFTm6QiDk3pwzKlyV523PZI4QzEvTR4maovneji59zobsrsBtka4LFeKiusF4LJd9JL39xLY/I4oxp6EqVG1tkmolIa5T0snkgvxwmYi0/dWc93S1YdYf2z5Nv10ZiyOqTsNH8YP1WH3tzuSMzs5ogQD/Nd8lG8rZ6LHZWJytKoFujmBxb01/kL49x8tsEUCgDgKh9+a8TvvzQ+vI155pUd3sKRqr2IWnM/saK6U5HWRdLHnK2xHVEX7+7oyMlJk1K8YIG3IUFYJ2j3FtyJTWirvpSJJWYNJpt+lZv2fkbYv9VeLklP+bNRqBk1Ug0F0Fa/qD9O0lSas+EECgDgKh9+a8Tu6HdYiB+6K6Lbo+r1veUd6o8l5ehpLx8eyvXAWyEvDmeZ9Gsn6gy11XtA5EyD3m4pud3jXvEx65mof0Mcem0xZPcc9l1H8kJzv1F4ISlkmguwqWtnVhn0O+4RC7n/uiQ75CAvHssPSGt5nCvO2vhNoAOCMvFWG+6FIXKhzaKwn1KrDdChKySbMv6GyaGDHcd1NFSxvBhzxjYtRoOTISOYxacNH0Ltv96ZErXWTxKOo4ar18halFG/I0k33RCHEmAyLaTKDLNljcL2P6Z86Bc2zZgN3Py5JCuqoE+KXhO42XLiu74S1dZQUrSacqd2y/yFy5+EUXumm1XWe1Cky6SisfV/SCLi+lfEqtJI9VBh7NUXvmKcWW2HfCSemB2k4ndEHRlDhP725MT+y/8sKI4VFUe5PoWQIPNx0nl8U/Fh61XPhR1LMcjU7c750JbayNsDYEOq5g8Y9Num/0Ml2M3c/LUEIaHwJ6afr3PlmNPHpV3tiIs21SjItFJ9aLLD/pFV3yH3HK1DlgxG1ax61n9FtfUkgrW9Mq8Khc1n3A9Go9f9WiB8XyiArw75/StZsMKOlx6eRFCXkKNm+XA1t5vqeFFnnKWF12eEV152vFjkZ1bil+iuZGZFF9cL0RAt1WsPihe3d7SqS3PWlvq2XJr5+zDAQQiEeAl6bL5FWwQPeqvAMvufaLLE8IT3NI6VcGy5RyxxBduBrSSOk+KTPy5s5ZX6ye0hrXV0Ch5GNxQt7ohZrGq1PROqJaHBfWpNrFMSV3fBBbftnylbF67fCqtSWdmqaRyWj/NflWQ1grAt21weJu5IeclGdBPZqIIWyxgggis4vAkydjV3TlOHu0Kshhp/Uiy61M4E4J9rYm2fPckp0Xso4qnck6FcmOUree7lObs/6Y4oHYjerXye1eIc9o/SLTjKbs8JKNz5mysxHXFEXsaUeArad7gvsDYe0IdHsES3XnZERfci8DenZbwBYrAB+yOgmw8v/uMoYdljWSxA47veyZ8l5k2eq7/BZlUxXF8Is/Hezz9LXFxy5HlYtzrX8KPYp2JN59GqkprDpavCH6JHYURbSeKTgtJYsXGvgE33zpsrTdmdePLC0Gx6tPoNsjWNx/bB/BUwghQe0q/1fYSyCkfORdUwKlbZ6K259elec/3XZRXEjqqvZbRNMe3mE+Ze/aR66q2FijgVXLXZX07JE+9BmY11b/+y1PIuJBYGUIQMHirkqScl9Fhd06iSCjsABc7BqBsjZPi7ik9/fzddhZffl4eYXMVf+pH6VQQ/A22l+52rvsuIRWudURfO+3OuoCmSDQMAEoWAxcz3/znHhIOBBvPw5DBCAvCBgEoq14Mlbh7RlllD2p6kC0ukJm1mTS29ERRt3NNGXOYH9VhhI9A79lhbhOe6xy9UAqEFgjAlCwZp2ZDGeHvgc8VTj98vaVgXwgMCWgp9pCFX8aoRV7SmSIw87KDkRDDd0n+6rOk+RR0ZpCqfgX9lcVgHn4iFosXffj4nRIAQJrRwAK1rRL44xi0cuMViWmbV6m8vEXBHwIxFn5pF9yvtNtPtNsbOgeEuTjyFXoFBPvE4hQjkC0EVOjuLk9nRGNExBYfwJQsIw+jjCKxT61NknJ0qMFhnScgEB1AkmYoqIL1AqW8uBevQa06rB6HcIN3Xcea7rnU+PHPOcBebuXVfdZ99qNFoNATQSgYKXB6lGs8Icyb3FyfzuGkpWGi2MvAklv7JXPzLSt7sXpVKF5bfGZv7F9dcVsXptHpTDA43ioHdi8LjgCARAAgcoEoGBlkPWOM1E+EVCyfKghj01AGx+HuDzQEvX04FRpsUtZcF7WwaglJkzB2VZ72VkiK51WNcyvJByJQQAEQKCYABQsm49+of1mR3udT5Us2GR54UOmGYHx7Mj7QNk0+SlY+jfhUXKgoXvycORR6DzLwg1450lxRARg1oDbAASiEoCC5cK59XRI0eGrt1g2K1kbZMOC1YVMA8GHQBLBDktPD/oYHPtPmYcauvdkiILlX2+fPlqHPF+/9tehGWgDCLSFALbKcfWE2qaENkNN5H9dlz3itpWstx9/FT+/GHrkR5YuE+CprkT8EojglVf+kGk+Npo+ufQqVmXijxPfEFJv3zJXPV9PHNF9FjvEV3T5Y1X5SSNXHlJcqX/39LdJI32elUg78GVqvAeh92hvbOwe8ngEk00JbLar3i4PFLGyQMHKI8nTCyeXPFXo92JyyVVb6lz2hSA7r1X+Ibrahrj6COh7sT75hZIDp/mE4BfsQWERdVyUG2d1iF1bmawwJMnL1rZPKTS9IdWRlcBtIVkTlLq6fLhB/04urynqVOg9C/W16f8nl5yqfEiS7MewvWdjRuKE68DV+lNMyKfYk2enQu/3OC/3hD7chfzPPEIdXYs3z/esuPkpKz53t/83j3g8eki+mSmV7OSa3y/p4GpD+vr0mOsk5TGVQR80xNRmK1S7btSOJ+kBAlZ0qw5CyOQHtT3dtOw1/4spwqIOfvP8WP1YitJUv3YgxOR/9EM8hc1DdXgdzhF/JKAMzPB9/C7KFBM5TfmNqSMXvLLiNuSoprqH9//bT0fKzEIrgNsF9dwl5atfcD3sUpLslRLAI6+s7Nzd0giutUft1jOX4r+bSZcuyDV1y0pc6Igd1+3k8oo0qv8QN1KuCkMR98KMXb4IBWtR79/TF5MQ4au4suW8Uj9A/vKAEXyWDmJMAsuZ8rrOfIGbtSpxFsF+rEQpVpKxdY7TIgJ6iy/68Ksh8BReSOBno0xGJKLkC74Wb/S+LaA6T8bG812PaH3ICJSTfiZuGsFTt9kwykZViFEjafShLyq4QcGq3AqAdVIoWIuQ8VdCIgeLknlep6Fu+tLZkH/Tl8SZ4C81BBBwEVjGwy2KF3lPFw8uBmXjJNmsIZQjwCPp9tRSuZzlUoX6cdukaUG3cvWBpqx+pbr/bswy1OONPr+tXIfpP/dejtv0fD82BLjuz8SpROlsPC1qh/sARVItuMpMU6ZL4NHy3xRbPcWvBxiwKjfNqNQxbLDKYOLtNk4+/qiGUsuk90tzSF9qh2oOn3+o6kdIX/+4qf1orlsu3gvw7rbhVkUYfWJbwxBDd58Wh77UfcpctTxq6mpyStWuZ+RK8wifqs3ahdHLvtfP2LAqO6UvRxWmzc7J7qmvqxnwf9omicW8uzym6bb3lsR945yVow1ppzlQJiMZmy2eYpzQSJgRziu008ioyri7HZmR6kzbWLnsxviyPdXpEKCiytp95eVfs3goWGU7lL28v/tERn2NGIIe0o/0kBQ6bTSppygvyla13elg4O/VP2pl6+WfJWwlvMQ7M8VTVPiLuM4Xebr64S/1tLR1Oubptg22UeIR+Un9/SHlWQ34LjLKFReiFZNRDeVVE8kG9ieXQ8qUVopM1jwr8s7xW9a2VhazySBbATVlmo0uE3N/y/J2s0l7ffEzfQzlBSzKyiNTGA8FqxCPdfH1dwNSskRDSla6cP6xmj/S9NVVOpYPO6tU3VbVNVFTX983Vqd4D1V+cDd1/46j8/FZLRW9EisocCIsZSFKGw5oNmEg9LZmUQQ2IIQ/MOwwooj3RqS2tTKZSVKIEyOVEG5DeStR7ukgc0WNOhUoV5kMiChLAApWWVLTdMtTsqY1wN+uEkjkmKaRXzXUfNdLwbNonmqk0dgmgsu+pYlyUYZN4FqwaUVo4NVymRVuZD90cjkg29hT7zKk2Cl0/uxrmqGMx43RK7r15VUGg2uaMEn6Rjoeccy0ncxH7GlEI1PBiXb3kP1A42nBWKHX28vl2kF/WlCwfG4sKFk+1JAnlMCTJ+PG7LCirlpkQ3fypdNECDH+baJ+nSkjGUZp6kQO6aPiD4esA4qn0SzyfZXQlFme7ZAjo4pSikuhI+lyXwTKYPyxkETtPGB/AN2I+8kwUw33NOGusnWajhxvkjx79EoEGLer/UgzzTr3VtgyjaIIZUIjX7ou0TOAP9r67mvrGdtbz2Y10CpWsqT4qYGSUAQIaAL6y/W6GRzBDkbn1Zy+MOYxdR1dexv/1lWjLsrlUadYU3g8CsYrBfPDLl3XPqeWsQqbHW1O/2WdUpNBfnKce0+yM1I7pN01uHx6hUwPKg/tdoHicyYGEdEIQMEKQak8Bic/kgi9jDVEFvKCQBkCUVwnlCiIR8viBv56rTc0xabeVqyBdFIqYgb+mBULn7Ps3f0PZZ8Vs2x/WdfiIdkvVDRduw2Y7hoOreL9pweVINpaCKFRAlCwQnGrL7Ven0az/gwVhfwgsJBAQo4L6w8RHIxmKnmRiYkd0Qyb2LVeN3m/1eJahp+zW0/31KxB4bOW7LLKOW7mj2JW+vP+hfbLrtA+vPLl6JHdayuBXgySnnqcJXCMeM2ulThw+9LbKZGzShJuTx7T+p8BVWraQFrYYMWAzD+U93/3yT5mSOLsOfgYJUAGCGgC7EiR912rM9QyEtSAoXvTTibr7INVlM2Kz2vaXqyuoKfIT0n8qTKkTsg+K7s6dVuw7RKnKQ7k7iGCHyzeW4+n3qQyUDef/WyPdPJxXDiKJdRKSzMfK1cTslWSVgNCpgctUalTt/+tVIJKh2wPZ/sGqyRgvRJjBCtWf/KPX+1dSD84IViLRwCB+AT0/mM1T0lHcDBqt1wGbpliy8uew/4qy6TJmGux+bTfWIG8yk8rSB+yZcr9bFxNMVwPthPT+9b+lCmFN1EuDL1R5rJSrmTfig+cHiRpeSsjtW8sqzicxiAABSsGxbQM/cPXQ9mwzUqTwXE8AuN4olySalCw8h7uruJ94moZdfOpSCfzkMLfO4q6Gq0sRplkR6qSZKds9qjplE2u9XHNqxXZPUJecE0TSqVc6anCWb7A6cGZHHLzYIdEDEt7arfz4ryQABSsQjwBF/nHxjYD7MQNilYASGTNEKjb11NdylCh7UymldUiYH9VjVes1Nyn/Jyra6Uo+5Xif3lKSuIYIUpq+EAoy8ul6N99OVqQ/cy6bilXdDXW9KBLIVVe58m2U/vwsqryeJrH350asY8EYINV562gbQaG9HA4FTwMm4hjKm63ziIhuwME1BY2tfmVOq+PoLyg1WDf1yI/1guolsqtrdDfaFpwWO/IlRwQvQOyb2Xnouf0wTqe0ewpP1HZ+8m1Om+WaXawT/LmsmbRqQMfGy2l6Ft+oGSvT1JH9M8dJI1OJfKV+6KKDZ8enArnj6eTSx7FOpxGPf7dFkI5cB2S24uxmEyuVDw7DhW0GvLulv6Sc9ZFQVJ/nVz2C5Kx7Ru/BzsRoGA10c22cabokbKldkinmxoBBCoS4NGCk0ualrE8RlcUk5OclKC6ghpZeBldOo+i6N9YdNEQ6CRwTUbdg1ybHmcW78j0aA45F5Xz88Qp80PJ0TR+9s5lOUV5RLoWodge2m2xWukp+D1Hmx7UJW89HdAH/9jhJZ6v7ypnoVLqtEkKMq/O1Dag+pr7/10lw32tc7GYImy6y/nHxH5d3jzfoa+Wf1Hxv8HFQ9OdsBbl1aMI8XY8tYWapm70Ho211RqCZwSuaTTjR3p27TWiXDldFczqkj3Q05WD7IUGY7QCQpyMsLvQdUTRxtixR2f5Y0QvSOCRrPKh19svnxgpmQAUrGXeB9PVJ6+f75Mdwz/oq/CHR5stvvHPl1k1lN1yAumpkphVnUzqUdy4jnXZdtWqFMaEu5KybpQndf4YZMUqlof2MijuaeWp9uLOoztFQSt+/Bxtx0jmWaay2nVEJnoWkb8xdrzpwVlhdMCc3jw/Uu8c4TB8T6fVx3QfTHay0YgpIoApwiI6TV7TD4YxFcn/zHDy176QD+txc28+q/YC5/T3X34wgQScVS0/oKhas/Lea/dfxtHLWDwFEFYkf0TEDltPq91TsctfF3k8ApSorVOIJ4820h6SdRmvl2Gm78WBSsqjWYnYU/+meZXrj5J1jHLf9Y5LPYe3yC7t/svZtJrqL290XBT4Y/vdx+xvg5XMMmFCNl6bKfs0zvNQIq/+6BmrRQR6r8J9MUmtwmTG/M/1ceTzbF7EoUxbkQYEQAAEQAAEQAAEQAAEQAAEQAAEQAAEQAAEQAAEQAAEQAAEQAAEQAAEQAAEQAAEQAAEQAAEQAAEQAAEQAAEQAAEQAAEQAAEQAAEQAAEQAAEQAAEQAAEQAAEQAAEQAAEQAAEQAAEQAAEQAAEQAAEQAAEQAAEQAAEQAAEQAAEQAAEQAAEQAAEQAAEQAAEQAAEQAAEQAAEQAAEQAAEQAAEQAAEQAAEQAAEQAAEQAAEQAAEQAAEQAAEQAAEQAAEQAAEQAAEQAAEQAAEQAAEQAAEQAAEQAAEQAAEQAAEQAAEQAAEQAAEQAAEQAAEQAAEQAAEQAAEQAAEQAAEQAAEQAAEQAAEQAAEQAAEQAAEQAAEQAAEQAAEQAAEQAAEQAAEQAAEQAAEQAAEQAAEQAAEQAAEQAAEQAAEQAAEQAAEQAAEQAAEQAAEQAAEQAAEQAAEQAAEQAAEQAAEQAAEQAAEQAAEQAAEQAAEQAAEQAAEQAAEQAAEQAAEQAAEQAAEQAAEQAAEQAAEQAAEQAAEQAAEQAAEQAAEQAAEQAAEQAAEQAAEQAAEQAAEQAAEQAAEQAAEQAAEQAAEQAAEQAAEQAAEQAAEQAAEQAAEQAAEQAAEQAAEQAAEQAAEQAAEQAAEQMBB4P8D0UlJmujLyYoAAAAASUVORK5CYII=;" parent="1" vertex="1">
          <mxGeometry x="560" y="290" width="126.97" height="51" as="geometry" />
        </mxCell>
        <mxCell id="SDPW6XIpB1vGcOdaVHzk-2" value="" style="shape=image;verticalLabelPosition=bottom;labelBackgroundColor=default;verticalAlign=top;aspect=fixed;imageAspect=0;image=data:image/svg+xml,PHN2ZyB4bWxucz0iaHR0cDovL3d3dy53My5vcmcvMjAwMC9zdmciIHZpZXdCb3g9IjAgMCAyNCAyNCIgcm9sZT0iaW1nIiBmaWxsPSIjMDQ2N0RGIj48dGl0bGU+TWV0YTwvdGl0bGU+PHBhdGggZD0iTTYuOTE1IDQuMDNjLTEuOTY4IDAtMy42ODMgMS4yOC00Ljg3MSAzLjExM0MuNzA0IDkuMjA4IDAgMTEuODgzIDAgMTQuNDQ5YzAgLjcwNi4wNyAxLjM2OS4yMSAxLjk3M2E2LjYyNCA2LjYyNCAwIDAgMCAuMjY1Ljg2IDUuMjk3IDUuMjk3IDAgMCAwIC4zNzEuNzYxYy42OTYgMS4xNTkgMS44MTggMS45MjcgMy41OTMgMS45MjcgMS40OTcgMCAyLjYzMy0uNjcxIDMuOTY1LTIuNDQ0Ljc2LTEuMDEyIDEuMTQ0LTEuNjI2IDIuNjYzLTQuMzJsLjc1Ni0xLjMzOS4xODYtLjMyNWMuMDYxLjEuMTIxLjE5Ni4xODMuM2wyLjE1MiAzLjU5NWMuNzI0IDEuMjEgMS42NjUgMi41NTYgMi40NyAzLjMxNCAxLjA0Ni45ODcgMS45OTIgMS4yMiAzLjA2IDEuMjIgMS4wNzUgMCAxLjg3Ni0uMzU1IDIuNDU1LS44NDNhMy43NDMgMy43NDMgMCAwIDAgLjgxLS45NzNjLjU0Mi0uOTM5Ljg2MS0yLjEyNy44NjEtMy43NDUgMC0yLjcyLS42ODEtNS4zNTctMi4wODQtNy40NS0xLjI4Mi0xLjkxMi0yLjk1Ny0yLjkzLTQuNzE2LTIuOTMtMS4wNDcgMC0yLjA4OC40NjctMy4wNTMgMS4zMDgtLjY1Mi41Ny0xLjI1NyAxLjI5LTEuODIgMi4wNS0uNjktLjg3NS0xLjMzNS0xLjU0Ny0xLjk1OC0yLjA1Ni0xLjE4Mi0uOTY2LTIuMzE1LTEuMzAzLTMuNDU0LTEuMzAzem0xMC4xNiAyLjA1M2MxLjE0NyAwIDIuMTg4Ljc1OCAyLjk5MiAxLjk5OSAxLjEzMiAxLjc0OCAxLjY0NyA0LjE5NSAxLjY0NyA2LjQgMCAxLjU0OC0uMzY4IDIuOS0xLjgzOSAyLjktLjU4IDAtMS4wMjctLjIzLTEuNjY0LTEuMDA0LS40OTYtLjYwMS0xLjM0My0xLjg3OC0yLjgzMi00LjM1OGwtLjYxNy0xLjAyOGE0NC45MDggNDQuOTA4IDAgMCAwLTEuMjU1LTEuOThjLjA3LS4xMDkuMTQxLS4yMjQuMjExLS4zMjcgMS4xMi0xLjY2NyAyLjExOC0yLjYwMiAzLjM1OC0yLjYwMnptLTEwLjIwMS41NTNjMS4yNjUgMCAyLjA1OC43OTEgMi42NzUgMS40NDYuMzA3LjMyNy43MzcuODcxIDEuMjM0IDEuNTc5bC0xLjAyIDEuNTY2Yy0uNzU3IDEuMTYzLTEuODgyIDMuMDE3LTIuODM3IDQuMzM4LTEuMTkxIDEuNjQ5LTEuODEgMS44MTctMi40ODYgMS44MTctLjUyNCAwLTEuMDM4LS4yMzctMS4zODMtLjc5NC0uMjYzLS40MjYtLjQ2NC0xLjEzLS40NjQtMi4wNDYgMC0yLjIyMS42My00LjUzNSAxLjY2LTYuMDg4LjQ1NC0uNjg3Ljk2NC0xLjIyNiAxLjUzMy0xLjUzM2EyLjI2NCAyLjI2NCAwIDAgMSAxLjA4OC0uMjg1eiIvPjwvc3ZnPg==;" parent="1" vertex="1">
          <mxGeometry x="706.97" y="291" width="50" height="50" as="geometry" />
        </mxCell>
        <mxCell id="SDPW6XIpB1vGcOdaVHzk-3" value="" style="shape=image;verticalLabelPosition=bottom;labelBackgroundColor=default;verticalAlign=top;aspect=fixed;imageAspect=0;image=data:image/svg+xml,PHN2ZyB4bWxucz0iaHR0cDovL3d3dy53My5vcmcvMjAwMC9zdmciIHZpZXdCb3g9IjAgMCAxNiAxNiIgY2xhc3M9ImJpIGJpLXBsdXMtbGciIGZpbGw9ImN1cnJlbnRDb2xvciIgaGVpZ2h0PSIxNiIgd2lkdGg9IjE2Ij4mI3hhOyAgPHBhdGggZD0iTTggMmEuNS41IDAgMCAxIC41LjV2NWg1YS41LjUgMCAwIDEgMCAxaC01djVhLjUuNSAwIDAgMS0xIDB2LTVoLTVhLjUuNSAwIDAgMSAwLTFoNXYtNUEuNS41IDAgMCAxIDggMiIgZmlsbC1ydWxlPSJldmVub2RkIi8+JiN4YTs8L3N2Zz4=;" parent="1" vertex="1">
          <mxGeometry x="681.97" y="308" width="16" height="16" as="geometry" />
        </mxCell>
        <mxCell id="SDPW6XIpB1vGcOdaVHzk-4" value="&lt;div style=&quot;&quot;&gt;FFM Llama3 LLM Model&lt;/div&gt;" style="rounded=1;whiteSpace=wrap;html=1;align=center;fillColor=#CC99FF;" parent="1" vertex="1">
          <mxGeometry x="602.45" y="342" width="154.52" height="19" as="geometry" />
        </mxCell>
        <mxCell id="SDPW6XIpB1vGcOdaVHzk-5" value="" style="endArrow=classic;html=1;rounded=0;entryX=0;entryY=0.5;entryDx=0;entryDy=0;strokeColor=#FF0000;" parent="1" target="SDPW6XIpB1vGcOdaVHzk-1" edge="1">
          <mxGeometry width="50" height="50" relative="1" as="geometry">
            <mxPoint x="110" y="320" as="sourcePoint" />
            <mxPoint x="160" y="270" as="targetPoint" />
          </mxGeometry>
        </mxCell>
        <mxCell id="Oo_8GvqBKNH258N3MCEw-2" value="&lt;font color=&quot;#ff0000&quot;&gt;Query&lt;/font&gt;&lt;div&gt;&lt;font color=&quot;#ff0000&quot;&gt;(Any)&lt;/font&gt;&lt;/div&gt;" style="edgeLabel;html=1;align=center;verticalAlign=middle;resizable=0;points=[];" parent="SDPW6XIpB1vGcOdaVHzk-5" vertex="1" connectable="0">
          <mxGeometry x="-0.0093" relative="1" as="geometry">
            <mxPoint y="1" as="offset" />
          </mxGeometry>
        </mxCell>
        <mxCell id="SDPW6XIpB1vGcOdaVHzk-6" value="" style="endArrow=classic;html=1;rounded=0;exitX=1;exitY=0.5;exitDx=0;exitDy=0;entryX=0;entryY=0;entryDx=0;entryDy=0;strokeColor=#FF8000;" parent="1" source="tmFguLVLCGUOgxoaLgUV-1" target="SDPW6XIpB1vGcOdaVHzk-1" edge="1">
          <mxGeometry width="50" height="50" relative="1" as="geometry">
            <mxPoint x="120" y="130" as="sourcePoint" />
            <mxPoint x="170" y="80" as="targetPoint" />
          </mxGeometry>
        </mxCell>
        <mxCell id="Oo_8GvqBKNH258N3MCEw-1" value="&lt;font color=&quot;#ff8000&quot;&gt;Query&lt;/font&gt;&lt;div&gt;&lt;font color=&quot;#ff8000&quot;&gt;(Article, News)&lt;/font&gt;&lt;/div&gt;" style="edgeLabel;html=1;align=center;verticalAlign=middle;resizable=0;points=[];" parent="SDPW6XIpB1vGcOdaVHzk-6" vertex="1" connectable="0">
          <mxGeometry x="-0.0045" y="-2" relative="1" as="geometry">
            <mxPoint as="offset" />
          </mxGeometry>
        </mxCell>
        <mxCell id="2Q7hdySaH-166Zbdf3qq-2" value="" style="endArrow=classic;html=1;rounded=0;exitX=1;exitY=0.5;exitDx=0;exitDy=0;entryX=0;entryY=1;entryDx=0;entryDy=0;strokeColor=#0066CC;" parent="1" source="2_NxsiDs7d75cV97_DHz-3" target="SDPW6XIpB1vGcOdaVHzk-1" edge="1">
          <mxGeometry width="50" height="50" relative="1" as="geometry">
            <mxPoint x="470" y="400" as="sourcePoint" />
            <mxPoint x="520" y="350" as="targetPoint" />
          </mxGeometry>
        </mxCell>
        <mxCell id="2Q7hdySaH-166Zbdf3qq-3" value="&lt;font color=&quot;#0066cc&quot;&gt;Generation&lt;/font&gt;" style="edgeLabel;html=1;align=center;verticalAlign=middle;resizable=0;points=[];" parent="2Q7hdySaH-166Zbdf3qq-2" vertex="1" connectable="0">
          <mxGeometry x="-0.0051" y="-1" relative="1" as="geometry">
            <mxPoint as="offset" />
          </mxGeometry>
        </mxCell>
        <mxCell id="-iWXsH0Fe9-dAFwlGBQV-3" value="&lt;p style=&quot;margin:0px;margin-top:4px;text-align:center;text-decoration:underline;&quot;&gt;Web TXT File&lt;/p&gt;&lt;p style=&quot;margin:0px;margin-top:4px;text-align:center;text-decoration:underline;&quot;&gt;Web TXT Input&lt;/p&gt;" style="verticalAlign=top;align=left;overflow=fill;html=1;whiteSpace=wrap;fillColor=#b0e3e6;strokeColor=#0e8088;" parent="1" vertex="1">
          <mxGeometry x="1010" y="256.5" width="140" height="127" as="geometry" />
        </mxCell>
        <mxCell id="-iWXsH0Fe9-dAFwlGBQV-4" value="&lt;font style=&quot;font-size: 14px;&quot;&gt;Summary&lt;/font&gt;&lt;div style=&quot;font-size: 14px;&quot;&gt;&lt;font style=&quot;font-size: 14px;&quot;&gt;Result&lt;/font&gt;&lt;/div&gt;" style="rounded=1;whiteSpace=wrap;html=1;fillColor=#bac8d3;strokeColor=#23445d;" parent="1" vertex="1">
          <mxGeometry x="1020" y="308" width="120" height="60" as="geometry" />
        </mxCell>
        <mxCell id="-iWXsH0Fe9-dAFwlGBQV-5" value="&lt;font color=&quot;#ff8000&quot;&gt;Response&lt;/font&gt;" style="endArrow=classic;html=1;rounded=0;entryX=0;entryY=0.25;entryDx=0;entryDy=0;strokeColor=#FF8000;" parent="1" edge="1">
          <mxGeometry x="-0.04" width="50" height="50" relative="1" as="geometry">
            <mxPoint x="760" y="280" as="sourcePoint" />
            <mxPoint x="1010" y="280.25" as="targetPoint" />
            <mxPoint as="offset" />
          </mxGeometry>
        </mxCell>
        <mxCell id="-iWXsH0Fe9-dAFwlGBQV-6" value="" style="endArrow=classic;html=1;rounded=0;entryX=0;entryY=0.5;entryDx=0;entryDy=0;strokeColor=#FF0000;" parent="1" edge="1">
          <mxGeometry width="50" height="50" relative="1" as="geometry">
            <mxPoint x="760" y="319.5" as="sourcePoint" />
            <mxPoint x="1010" y="319.5" as="targetPoint" />
          </mxGeometry>
        </mxCell>
        <mxCell id="ykLDILVzxv2o84yosszh-1" value="&lt;font color=&quot;#ff0000&quot;&gt;Response&lt;/font&gt;" style="edgeLabel;html=1;align=center;verticalAlign=middle;resizable=0;points=[];" parent="-iWXsH0Fe9-dAFwlGBQV-6" vertex="1" connectable="0">
          <mxGeometry x="-0.048" y="3" relative="1" as="geometry">
            <mxPoint as="offset" />
          </mxGeometry>
        </mxCell>
        <mxCell id="-iWXsH0Fe9-dAFwlGBQV-7" value="" style="endArrow=classic;html=1;rounded=0;entryX=0;entryY=0.5;entryDx=0;entryDy=0;strokeColor=#0066CC;" parent="1" edge="1">
          <mxGeometry width="50" height="50" relative="1" as="geometry">
            <mxPoint x="760" y="356.5" as="sourcePoint" />
            <mxPoint x="1010" y="356.5" as="targetPoint" />
          </mxGeometry>
        </mxCell>
        <mxCell id="ykLDILVzxv2o84yosszh-2" value="&lt;font color=&quot;#0066cc&quot;&gt;Response&lt;/font&gt;" style="edgeLabel;html=1;align=center;verticalAlign=middle;resizable=0;points=[];" parent="-iWXsH0Fe9-dAFwlGBQV-7" vertex="1" connectable="0">
          <mxGeometry x="-0.008" y="-2" relative="1" as="geometry">
            <mxPoint x="-4" y="-2" as="offset" />
          </mxGeometry>
        </mxCell>
        <mxCell id="wfscv_PQN3rVCHpf3NMP-1" style="edgeStyle=orthogonalEdgeStyle;rounded=0;orthogonalLoop=1;jettySize=auto;html=1;strokeColor=#0066CC;entryX=0.5;entryY=1;entryDx=0;entryDy=0;exitX=0.5;exitY=1;exitDx=0;exitDy=0;" parent="1" source="uuBmSbrLrov6eUD0asJv-1" target="-iWXsH0Fe9-dAFwlGBQV-3" edge="1">
          <mxGeometry relative="1" as="geometry">
            <mxPoint x="1090" y="390" as="targetPoint" />
            <mxPoint x="330" y="570" as="sourcePoint" />
            <Array as="points">
              <mxPoint x="345" y="550" />
              <mxPoint x="1080" y="550" />
            </Array>
          </mxGeometry>
        </mxCell>
        <mxCell id="wfscv_PQN3rVCHpf3NMP-2" value="&lt;font color=&quot;#0066cc&quot;&gt;Select the Test File from Azure Storage&lt;/font&gt;" style="edgeLabel;html=1;align=center;verticalAlign=middle;resizable=0;points=[];" parent="wfscv_PQN3rVCHpf3NMP-1" vertex="1" connectable="0">
          <mxGeometry x="0.0114" relative="1" as="geometry">
            <mxPoint x="-19" as="offset" />
          </mxGeometry>
        </mxCell>
        <mxCell id="EMhZ1d6koD_MZb9Y9gVB-1" value="&lt;h1 style=&quot;box-sizing: border-box; margin-right: 0px; margin-bottom: 16px; margin-left: 0px; font-weight: var(--base-text-weight-semibold, 600); line-height: 1.25; padding-bottom: 0.3em; border-bottom: 1px solid var(--borderColor-muted, var(--color-border-muted)); font-family: -apple-system, &amp;quot;system-ui&amp;quot;, &amp;quot;Segoe UI&amp;quot;, &amp;quot;Noto Sans&amp;quot;, Helvetica, Arial, sans-serif, &amp;quot;Apple Color Emoji&amp;quot;, &amp;quot;Segoe UI Emoji&amp;quot;; margin-top: 0px !important; font-size: 32px;&quot; dir=&quot;auto&quot; class=&quot;heading-element&quot; tabindex=&quot;-1&quot;&gt;&lt;span style=&quot;color: rgb(230, 237, 243);&quot;&gt;🦜️🔗 &lt;/span&gt;&lt;font style=&quot;font-size: 32px;&quot; color=&quot;#333333&quot;&gt;LangChain&lt;/font&gt;&lt;/h1&gt;" style="text;html=1;whiteSpace=wrap;overflow=hidden;rounded=0;" parent="1" vertex="1">
          <mxGeometry x="564.97" y="210" width="250" height="55.5" as="geometry" />
        </mxCell>
      </root>
    </mxGraphModel>
  </diagram>
  <diagram id="1HO4zkV02orKFDX44gbN" name="聊天機器人">
    <mxGraphModel dx="1026" dy="655" grid="1" gridSize="10" guides="1" tooltips="1" connect="1" arrows="1" fold="1" page="1" pageScale="1" pageWidth="827" pageHeight="1169" math="0" shadow="0">
      <root>
        <mxCell id="0" />
        <mxCell id="1" parent="0" />
        <mxCell id="jb_iqBjmAWC4msFi5dK2-1" value="" style="shape=image;verticalLabelPosition=bottom;labelBackgroundColor=default;verticalAlign=top;aspect=fixed;imageAspect=0;image=data:image/svg+xml,PHN2ZyB4bWxucz0iaHR0cDovL3d3dy53My5vcmcvMjAwMC9zdmciIHZpZXdCb3g9IjAgMCAxNiAxNiIgY2xhc3M9ImJpIGJpLXBlb3BsZS1maWxsIiBmaWxsPSJjdXJyZW50Q29sb3IiIGhlaWdodD0iMTYiIHdpZHRoPSIxNiI+JiN4YTsgIDxwYXRoIGQ9Ik03IDE0cy0xIDAtMS0xIDEtNCA1LTQgNSAzIDUgNC0xIDEtMSAxem00LTZhMyAzIDAgMSAwIDAtNiAzIDMgMCAwIDAgMCA2bS01Ljc4NCA2QTIuMjQgMi4yNCAwIDAgMSA1IDEzYzAtMS4zNTUuNjgtMi43NSAxLjkzNi0zLjcyQTYuMyA2LjMgMCAwIDAgNSA5Yy00IDAtNSAzLTUgNHMxIDEgMSAxek00LjUgOGEyLjUgMi41IDAgMSAwIDAtNSAyLjUgMi41IDAgMCAwIDAgNSIvPiYjeGE7PC9zdmc+;" vertex="1" parent="1">
          <mxGeometry x="40" y="360" width="60" height="60" as="geometry" />
        </mxCell>
        <mxCell id="jb_iqBjmAWC4msFi5dK2-2" value="User" style="rounded=1;whiteSpace=wrap;html=1;" vertex="1" parent="1">
          <mxGeometry x="40" y="420" width="60" height="20" as="geometry" />
        </mxCell>
        <mxCell id="jb_iqBjmAWC4msFi5dK2-3" value="&lt;h1 style=&quot;box-sizing: border-box; margin-right: 0px; margin-bottom: 16px; margin-left: 0px; font-weight: var(--base-text-weight-semibold, 600); line-height: 1.25; padding-bottom: 0.3em; border-bottom: 1px solid var(--borderColor-muted, var(--color-border-muted)); font-family: -apple-system, &amp;quot;system-ui&amp;quot;, &amp;quot;Segoe UI&amp;quot;, &amp;quot;Noto Sans&amp;quot;, Helvetica, Arial, sans-serif, &amp;quot;Apple Color Emoji&amp;quot;, &amp;quot;Segoe UI Emoji&amp;quot;; margin-top: 0px !important; font-size: 32px;&quot; dir=&quot;auto&quot; class=&quot;heading-element&quot; tabindex=&quot;-1&quot;&gt;&lt;span style=&quot;color: rgb(230, 237, 243);&quot;&gt;🦜️🔗 &lt;/span&gt;&lt;font style=&quot;font-size: 32px;&quot; color=&quot;#333333&quot;&gt;LangChain&lt;/font&gt;&lt;/h1&gt;" style="text;html=1;whiteSpace=wrap;overflow=hidden;rounded=1;fillColor=#CC99FF;strokeColor=default;" vertex="1" parent="1">
          <mxGeometry x="270" y="362.5" width="250" height="55.5" as="geometry" />
        </mxCell>
        <mxCell id="jb_iqBjmAWC4msFi5dK2-4" value="" style="endArrow=classic;html=1;rounded=0;entryX=0;entryY=0.5;entryDx=0;entryDy=0;strokeColor=#FF0000;exitX=1;exitY=0.5;exitDx=0;exitDy=0;" edge="1" parent="1" target="jb_iqBjmAWC4msFi5dK2-3" source="jb_iqBjmAWC4msFi5dK2-1">
          <mxGeometry width="50" height="50" relative="1" as="geometry">
            <mxPoint x="110" y="378" as="sourcePoint" />
            <mxPoint x="160" y="340" as="targetPoint" />
          </mxGeometry>
        </mxCell>
        <mxCell id="jb_iqBjmAWC4msFi5dK2-5" value="&lt;font color=&quot;#ff0000&quot;&gt;Question&lt;/font&gt;" style="edgeLabel;html=1;align=center;verticalAlign=middle;resizable=0;points=[];" vertex="1" connectable="0" parent="jb_iqBjmAWC4msFi5dK2-4">
          <mxGeometry x="-0.0001" y="3" relative="1" as="geometry">
            <mxPoint as="offset" />
          </mxGeometry>
        </mxCell>
        <mxCell id="OQmvY03P2CP98hC-OCcr-1" value="" style="shape=image;verticalLabelPosition=bottom;labelBackgroundColor=default;verticalAlign=top;aspect=fixed;imageAspect=0;image=data:image/png,iVBORw0KGgoAAAANSUhEUgAAAlgAAADxCAYAAAAX6snTAAAAAXNSR0IArs4c6QAAAERlWElmTU0AKgAAAAgAAYdpAAQAAAABAAAAGgAAAAAAA6ABAAMAAAABAAEAAKACAAQAAAABAAACWKADAAQAAAABAAAA8QAAAACfY950AAA7xklEQVR4Ae2dQXbbtvb/AdlOMrPfCuxO2mRUvxVYXYH9VhB1BXEHSc8bVR39T5xB3BU8dQV1VvDkFTx3FKeT2iv4xbM4tsX/vYAlESBIkQBIUeIX5yQmQeAC+IAiL4GLCyEQQAAEQAAEQAAEQAAEQAAEQAAEQAAEQAAEQAAEQAAEQAAEQAAEQAAEQAAEQAAEQAAEQAAEQAAEQAAEQAAEQAAEQAAEQAAEQAAEQAAEQAAEQAAEQAAEQAAEQAAEQAAEQAAEQAAEQAAEQAAEQAAEQAAEQAAEQAAEQAAEQAAEQAAEQAAEQAAEQAAEQAAEQAAEQAAEQAAEQAAEQAAEQAAEQAAEQAAEQAAEQAAEQAAEQAAEQAAEQAAEQAAEQAAEQAAEQAAEQAAEQAAEQAAEQAAEQAAEQAAEQAAEQAAEQAAEQAAEQAAEQAAEQAAEQAAEQAAEQAAEQAAEQAAEQAAEQAAEQAAEQAAEQAAEQAAEQAAEQAAEQAAEQAAEQAAEQAAEQAAEQAAEQAAEQAAEQAAEQAAEQAAEQAAEQAAEQAAEQAAEQAAEQAAEQAAEQAAEQAAEQAAEQAAEQAAEQAAEQAAEQAAEQAAEQAAEQAAEQAAEQAAEQAAEQAAEQAAEQAAEQAAEQAAEQAAEQAAEQAAEQAAEQAAEQAAEQAAEQAAEQAAEQAAEQAAEQAAEQAAEQAAEQAAEQAAEQAAEQAAEQAAEQAAEQAAEQAAEQAAEQAAEQAAEQAAEQAAEQAAEQAAEQAAEQAAEQAAEQAAEQAAEQAAEVpSAXNF6o9ogAALvPvYVhInQf/lEyn36f4cPC0OSjOfXexeiN/ks7sWV+PeLq3k8jkAABEAABHwJQMHyJYd8INAUAaVIkeKUiD0qkhUo/rdN/+oK1yT4SrASJukv/3v9YlxXYZALAiAAAutIAArWOvYq2rTaBFihSuQRNYIVqYMWNeZcK10bZ+LNtxctqheqAgIgAAKtIwAFq3Vdggp1jsD/+7gnNniaTylVhyvSfh7lOhMyOcPo1or0GKoJAiDQKAEoWI3iRmEg8Ejg/d874u7LEdlMHdPU3/crzkUrWw/JKWy4VrwnUX0QAIFoBKBgRUMJQSBQgoCyp+oNaKrtZYnUq5jkXIhkJN68GK1i5VFnEAABEIhFAApWLJKQAwJFBE4+DmgKcEhJdouSrdG1a1K0hlC01qhH0RQQAIFKBKBgVcKFxCBQgQBPA379cqymAetd9VehUo0nhaLVOHIUCAIg0AYCULDa0Auow3oRgGLl6s9rMogfwCDehQZxIAAC60gACtY69iratDwCeirwlCpQp5+q5bUvvOQP4iE5hjF8OEhIAAEQaDcBKFjt7h/UblUIaN9VI6puV2ysQnrmhpyXDsXr56yIIoAACIDAWhKAgrWW3YpGNUZAuVu4HVF5q+K/qjE0JQr6ILaeDsRP33wukRZJQAAEQGClCEDBWqnuQmVbReDdJfuwGlKdMB3o3zE3QvT68AzvDxA5QQAE2kkAClY7+wW1ajMB5XldjqiKbdrGps3EStQt+REuHUpgQhIQAIGVIQAFa2W6ChVtBYG3n8j7OjnSxKhV/O6Q8nfx+rtBfMGQCAIgAALNE4CC1TxzlLiKBNjW6v7raSs9sEvxJ01Vsh3TBdXv0Z6pdyF6kwLbJrkvJsmO6gpJx0LwMf9d7nQnlCzVJfgPBEBg9QlAwVr9PkQL6iZw8te+kJNRC/YMJHslpUSNyW7pghyYXkW3XVKK5BdStFjpon9J0qcym10ZCSWLkCOAAAisOgEoWKveg6h/vQSWPyV4Ti4NzkTSG0dXpsqSUzZnoi9kr08K1xFlq3+UC0pW2d5BOhAAgZYSgILV0o5BtVpA4O3HIY0S/bKEmnygffzOxNazs1a6MOARPTEZEBf+V5+yBSWL8CKAAAisKgEoWKvac6h3vQTefaIpweRlvYWkpCs7quS0tUpVqqrGoR7hG1DcoREf6wRKViySkAMCINAwAShYDQNHcS0noGyQbseN2VuxApHI06VN/8XqDp5G7NGIlpTHJDLyqBZcOMTqJsgBARBojgAUrOZYo6S2E2hOubqh0bFT8eTZaSunAEP6STMckILKilY843iZ/ICNokM6BnlBAASaJgAFq2niKK+dBJpRrtZXsbJ7lXl+/XIccUTrhrbV2Vs7hdTmhnMQAIG1IQAFa226Eg3xJtCEcsVTgZtPjjunIDDbu9sh9c0r7/6ZZzwXb57356c4AgEQAIH2EoCC1d6+Qc2aIFC/cnVOPquOV97GKrQv9MrDUxJzECQqSX4VP78YBslAZhAAARBogAAUrAYgo4gSBN597KtUE/K3NA1Szo+ncfO/n8mO6WJ22hNjdbz57KLSKNG7S/J+Lr6fyYl3cEP+q4bi9XNWKhCmBKJskN37Z+cV1ilP/AUBEGgtAShYre2aNa2Yss352ic/SuQdXSlQe9TSeMbQc2zkoJM8nQtWwujf6xfj+aXHo/pcMZyLh2Qg/v2CykfIEOAVh5uSnKd6K7aYKsxARQQIgEDbCEDBaluPrGN9tK8k8gROo1P+L9VwMnrPvrFSuGSP6lKDnytMYZXvp5NLHt3ztM2C64byoJESBEBgGQSgYC2DehfKZKWqJ45IiTmi5m53oMk0JUhtdY2UdaDx3k3034oIqwq9oSMjCIBAEwSgYDVBuStlqD3rlKNJVqrqmPZrJ0keGdt82q9k+9XOliynVr6baWO0cDn9hVJBAARKEYCCVQoTEhUSYAP1RClWh4Xp1vFiV90vxO5L39WcD8k3sHWL3RmQBwIgEIMAFKwYFLsqQytWQ2p+2NL7VeWHffLi91zVhQfog/h9AIkgAAJRCEDBioKxY0L0VOCIWt1NxUp392/k9PK4Yz3fTHOrKlkYxWqmX1AKCIBAJQK9SqmRuNsEeBqHV35tyL8JRIeVK17BBuWqth/D6+940+jfS8vnTaYRQAAEQKBlBDCC1bIOaW11/Fd7tbZJXhWDYbUXNq9M5UeysKLQCzAygQAI1EkAI1h10l0H2XrU6oxcEPxBzemCu4X8XuNRFWzTks8n9pXyI1nb4u4Lr1xFAAEQAIHWEICC1ZquaGFFeNTq7vaKata91YF2d8CY2ibSzDkrWUKcLyxMqlWsC5MhAQiAAAg0RQAKVlOkV60ctrXCqJXuNeXn6gkM2pd1D289PaJdAP4sLJ53CFAbShemwkUQAAEQaIwAFKzGUK9IQXpKcEy1fbUiNa67mjdwIlo34gXyf/rms7hXOwLcFKecDIqv4yoIgAAINEcAClZzrNtfEo8A3N1eUEU7vELQ6ibe/oZf8AjLJcAbZ3NfFIdB8WVcBQEQAIHmCGAVYXOs211SG1YJ6s2Yr2j/wgvRk6TU0N904H3+1LYqDzvzaLkvJskOLevfpziOj6ccYsXgHHNbjt5+HFJf/5JbnUT+S/z83VnudVwAARAAgYYIQMFqCHSrizn5OBBC/mcJdTwnZWpMm0KPo26SrPe261Ob9kk+/fXaF/GcfF1xXoS2EXh3eSHY5sod4ADWzQWxIAACDROAgtUw8NYV17xy9YFGps7E1rOzxqbeZgoXOaTMfzGnuwZ+ldI02nasdxK4oGptO6p2TYrxniMeUSAAAiDQKAEoWI3ibllhzSlX17QK7JSMxUeNKVV5qPnlzJ6/pRxQkl1nMkwzObG0KrJwqrD3T/HmW1bAEEAABEBgaQSgYC0N/ZILbka5oilAedpamxjerFr0aFQreZnqDUwxpWC0+jBvqlCKn8Tr56etrjsqBwIgsPYEoGCtfRc7Gli/cnVOK76GUe2qHM2IFqWnnI5J3j7srqJRrV8QK8iJ/K+joA/Uj0eOeESBAAiAQGMEoGA1hrolBdWrXF2TfdVQvHkxaklrUY11J3ByOaYmHljNvCEFa8eKwykIgAAINEoAfrAaxb3kwtjYu67VguzSYOspjQBBuVpyL3er+Idk4GjwtuBRSQQQAAEQWCIBKFhLhN9o0eqFMxlHL1NtYUJGxbwJMhxyRscLgQsIKAektAm3HTZE347COQiAAAg0SWCzycJQ1hIJbMozclHgWtbuXyketXpDihUCCCyTwP1kKDZkeqEC1UY5nl1mrVA2CIBAxwlgBKsLNwBv3FzO/1NZGjdkxP6DGrUqmwPpQKAuAjyKJcS5JZ6mwxFAAARAYHkEoGAtj30zJStXBBE3buYpwYdkf2VWCDZDGaUsmwC7AzEDFCyTB85AAAQaJoBVhA0Db7S493/vPG7evBulXFauNp/2YWsVhSaExCZwcnlFIuf3+tbTf+BejQ0Z8kAABMoSwAhWWVKrmO7rl2Oq9vyFE9IGSYbEUK5CCCJv3QSSZGQUcf8Fo1gGEJyAAAg0SQBG7k3SbrIsXjUo5S+RivwgXn83iCQLYkCgHgITMRIbYn7PJ2KvnoIgFQRAAAQWE8AI1mJGq5liQ46iVJynBbeeDqLIghAQqJOActlA9+s0QMGaksBfEACBJRCAgrUE6LUXqQ3bD4LLgc1VMEIIaJjAJDmbldjr7c2OcQACIAACDROAgtUw8EaKS+QwQjk3IukNYCQcgSRENEdAbswVrCTZa65glAQCIAACJgEoWCaP1T+LNXolkmPx5tuL1QeCFnSKgL5nbzrVZjQWBECglQSgYLWyWwIqlcjjgNw6K68YxJ6CwRghYGkExo8l7y+tBigYBECg8wSgYK3TLaA3uD0MbNKN2HwSrqQFVgLZQcCbgBTjx7xxt4byrhAyggAIdJEAFKx16vWNCKNXiYTd1TrdE51sS4Kp7U72OxoNAu0iAAWrXf0RWptBoIBz8fN3Z4EykB0Elkvg9YvxciuA0kEABEBACChY63IXvP10RE0JnBLpYWpwXe4HtOMaCEAABEBgmQSgYC2Tfsyye4IVLP+gDNuxatAfIHK2jMCVqo+2S2xZ1VAdEACBLhCAgrUuvZwkYQpWIk/XBQXaAQIiScaKwia2y8HdAAIgsBwCULCWwz1uqeHTg+fweRW3SyANBEAABECg2wSgYK1D/4dOD2L0ah3uArQhTaA3c9WQjsUxCIAACDRGAApWY6hrKujkr32aDgmZHrzBysGa+gZil08AKwqX3weoAQh0lMBmR9vd3mazUS7bjUxEX0i5QxXdf6zsHv3dfTxO/Zmkjr0OR165kAkEQAAEQAAEQCCXABSsXDQNXeARKDnpi4QUKqH+bdOxELKh8kVv1FRJKAcEQAAEQAAEukIACtYyelptyNwb0NReX4jJrlKollEPIW5g3L4c8CgVBEAABEBgvQlAwWqqf9//vSO+fjmmaT9SrHiqj4eplhykPFtyDVA8CNRDYPPZhbj/8kM9wiEVBEAABBYTgIK1mFFYCmVT1RuKu9uXpFyFyYqdO5mMY4uEPBBoBYGfvvlM9Ri3oi6oBAiAQCcJQMGqq9unilWSvKSpwLpKCZS7cREoANlBAARAAARAAAQcBFo2pOKo4apFzacCf2l51cn+6vlOy+uI6oEACIAACIDAShLACFbMbmPj9bvbEU0Fko1V6wNGr1rfRaggCIAACIDAqhKAghWj53jU6u52SHbrr2KIa0gGFKyGQKMYEAABEACB7hGAghXa5+zH6p5GrYT4PlRUo/mluGq0PBQGAiAAAiAAAh0i0OtQW+M39eTjgPxYjWnkarWUK0UiwQhW/DsCEkEABEAABEBAEYCC5XsjvLs8Jnfr/6Hs274ikA8EQAAEQAAEQGA9CWAVoU+/vvs0ItcLL32ytibPm+fo+9Z0BioCAiAAAiCwbgQwglW1R9dBuaraZqQHARAAARAAARCoRAAKVhVcUK6q0EJaEAABEAABEOgsAawiLNv1bHPV5LSgFH+S8fyY9iy8ELzi757+/fvFVaa67CLi/ss+pd0jm7B9us7/DjLpEAECIAACIAACINAYAdjhlEGtVgsqg/Yyqf3TSPm74P0Bt56dCb2Xmr+st5+OhEz6pJz1Hascz8mLe99fOHKCAAiAAAiAAAgUEYCCVUSHr7GfK3bFUN9qwWtSgk7F5tNRsFLF9XUFtX3PV1K2ZgrX5+gK1snl2FV0t+KSkXjzYuRss1Z4aeVpxJDIU/Hzd2cRJZqi1KitODIjQ896x+LNtxehUpz5Ty5PKX7fec0nMuZHiHqOPOiRZin7PtVZkTwX9Gw5jlLXoGdKzm+x6HdYtr+z9TLbrD/IBwYDKc7E6+d8f5ohK0uIh2SQma14+3FIO4T0zcw5vyXeB3dDjsy0j2cu2a6Ert+SlFfi9XcDV3LhanNZnk6B6xGJKcKiftQe2s8oSR2uGK5p+m+Y+0IuqlfVa3o0jNvB/+oKmJZUU7o5ePnhJJK4jKTyZVZnnw6oNZF9vJGSIcQF/asjvIoo9DxYFr/Me6SgJskRfaTRM4S+Z/FJWwWr/+8l77eo+iPHhIK3Onv9YlyigsX1Snqf6WPWTJMoqaeGbP3xbqbjBL0e/0au+HAWepLuI+u3mPehsqnSZuWyML4m6IN+ceA6mDISatPJx7HzncUmKtJKv7iMtU8BI/eiLuZ9BYXYLUrice2GHri/0lfenvNG9RCILCtAQD8MbyLXlB+C9QX7gR6lJGUnGEWSIUS9rIyYsJMkGXsJ4I8yHm04ueSX7B+PdpukXCG0goBSdnNqkijlI+dihejJ5MKR2vFbVR8bjqSTbNrsb7HoA2DgEKqjEjIZCQpyKPgeRyhFAApWHib++hTiMO+yZ/w5Df/ui59fDD3zI9tqExhHrn72QRyrAP6aryfUVOe8l5VnI3q8wKRi4GmSu9srmsr5hXJCqaqIr/bk+p4u6hd+5ocHvRjp2hK0LXjqLh1kr58+nR3bU4Gu32LeBwArP1llbCaaDg4DFaRd8fXLcVogjvMJYIrQxUZPDY5cl7zjeNQKipU3vrXImPCKUBlTadcPbdfq0mBgNY002dMOwfWcCoha35uSU0W6cP28OKMTc0plWjX89SPAz0w7SDmgKHNWwZXOpSBnR6hYCUrL2lU2t3lTb3Zdis6lHGdWnW+KPcpyNc9GH9vusGdGO+5tV/s4090XUhJlOjuPmptKpUojRulElY6lPCZlcZSxE6skpBuJoWC5+vn+6ylFmzelK125OLrBk2NSrkblkiPV2hLgh2IieHQjXsg8tGOJ5od6EkuYKYe/5OMrhXkvK7PscmfjcskoFU9N3t1y+ljPi9JFr31C1wfpyWWf2p1WikSFD1dSPlIhIUN4Pdo4j5STPp1czCM8j3g1uJAvjdwTNT1H8Y8hf6RpV40yzVaSZ36LBR8AmWnOEZU2oH/z+1P2+nQ+on++YVts9oaUeeAroCv5MEVo9zQPx8bzd0XKVa8PWysbckfPyxnQVoOjH9rV8pRKnft1XSp3YSJtxFuYxOPigUcedxZZcnpQGymPScj85eWWiNhlE9A2eqZiNlFKBo9ipcMgfeJ9/OC4h2RqJCo77WfaZ7Jvw1nI/BbHs0vZg0MjKqGRNGHVpcgOzchsnJj143dktg1GBpzQ2x8QLAIJGfHFCY/K1bfhX0Nx6gMp7SBwHrUa6Yd2TMH5X9cRSnEY8YZIjW7g3hsvrA6Uq4WIWpVAj0ylq3T9OIp6lo5U9ku2rZSRoOSJHqE1lRIp9ua5U8qWjjTfE+kPJ/u3mPcBoO2G50Xw0ZMnYxqJNtvIHwSutJw+P4zoktmeeO/K/FJX/AoUrHQHao08xpcwlKs0VxzPCeQZp85TVDsyHtrVsuamrvvL1Dbiza1I2QtRDdxvFvrpUquoavWNV7bhSFeewMBIyjZSHPQIjzqc/addGcxOAw7GRl5DUbIVLJquTIfph5Prt5jkfACwC4p04N1AeJrRNZpmp03ncx0nyWea2Tm1Lh14KGqWiPU+hYKV7t9YGrkkvzcxDCXTdcPxmhDomV+qoa0yHtqhwh7zp7+eI4m0xOxZ54Gn9ssqSNx4Ye67Wx4RwLTgQlAtScAjUvbvZPLoE1A76rVGZkQ/Ss1dI00zhSk17ceKEG+Hlg6zD6fMvZ3/AZCQI+l0mDyOXPFoGpeRDnba9LW84yfPWMEyWclHpSvP6D5PVkfioWBNOzrW6JUUP1VagTQtH3+7QUAN2Udu6uyhHUnu9Os5kjiHGG3E67jgGbXvmS+bzfVSTKdi7/ZYLZgm0v7jDYfCZP4Ox1YjQl0ZaHGukSa1ZyxdNhQ+eZF5Z0yvT9PPKzieH6aOXDZmaaVnqmzNs+gVk/PzxUc8GpYdxSI55J4EwUkACtYUS5zRqw/O7RCmZeAvCPBDyv6aDKaS+coNlRhPYcmriWHEm5eodHyMaX1dmOulOK2G9jE0nJ7i76oQyKysuxZ8//GHif44ucq0RLsyyERXinDOYtBvNfNBpHZkYNGmwb1WmszfYu4HwGTgrNu0jT35OXs9J0824TzGNYolotktz8tZkyMoWNyR2qgx9CF9LbaeDtbkvkAz6iSQt42Hb5nZr1xfSeLRCaG52spfWn7OWNOQcQ3crwun9rWDRUwN5vdqW6+YK+vYzUMi/zv7J8SrTMVlr5+J84uwF7WQwmR9EM2V+gujiCTZo3PzvTRPaySlj7a+GUFn6TYm4n3muitPJpEVkTeKFev3bBW36qdQsLgHN8hxWmiQtEEn33wIILCIgMuwdlGe4uv00I4U4o4s5Vcq2jRkRAP3qeGzq9Y8esUOFhFWi0D11XK6fX6uDLJssota6LdqKVjTkS52RJwOWUN09weAy8YsLSfvmKchfVZM6lEsc7RNO4DNK6mz8VCwdNcPAu8Amhp8MQ6UgexdIeDeqyyk9eZXboikpr5EZ0a8IZXlvNbLKkSccg6ZI+D+dkBXtnOuIrqtBLJKStma+rgyyMpO20Hpq9tkx7SXSjgf4bLT2oboeR8AIaseffKqgYRkmGoDH9Y/6m0VuAqn8OSuDfTCHpwP5KkdAQTKEuBVPSeX/AUY76HEX6IxvKNHG1laAGNqxLsgWYnLNCIQKbiWs89FD+aHtR3d0CjZmeAVblJeFU5X1laFNROcHYm6cRhqk54u+9Ry80NFqlV5Z0FE+MP75NIWMS8nPcK1+eyCdgVIpzWfD3kfAInlnoElOLcP6tFqSnIQaoYBnZ6aUSXO3tDOJLzgI97vuEShq5cECpbIGEBW60W+kWO82KqV2r7Urh90jFr2nA8Ff8lS/i4mkyt/AQU57S/QgqT0QB87HnZFOYqvae/oV8WJSl3tl0oVIxEb4IaP/M5fVmF1mjqezErRew1+n70QNeY3suEcwswgIlPtDNb+eB47t9bhe5FtlsxwRKfHZpTXGY9S5dynKbctPDJU9OHl+gDQ96Yt+9rZRp32pdECVpA43su8hQcWMswM8V0/6baCpW+4w4Cb4Ebo+egAEWuS1bVvWIymqRU31p5eQXInI3r4jINExMjs2qssSK7yjn4WJELbY9gvpCCRxZnV9N64OE3BVf0CLUhQ4VLe9AuL+Pq1T0bEdQUatSK/eeGKZl31W2G5rlVyGa/mun16pIl9PKXv/1ibP1+QXFsJ0uWa7iI4jtPu6ovG/+4PgOzmzpzJ/RxgJerd5Z+ZUSffzZ81swLl0ah/J0+6bYMVuhSXh/O9NP9O3mtodJqA62s0fb3qcYypvXr2CCxoSaj9VEQD97zpF1X7yFv7zInQC70XYxRvLhFHaQJH6RN1XPS74+d5JriUtEyi4oj8RS3XmfeHbeg+lZz3ASB7/WmS2d/88jjJaJZudhAyi9M7nonBQYZAtxWs0OnB+8kwQxQRIFCGgJ5WNr0il8mXn2Y//1LZK7UpEu4KmMa+7jSFsaEKWkp48Yu3n0oZ8ZCmWKYryCJKhSgioEdj7ZEg9yjQFJhLyfZxZTCVN/2bHaWaXrmYHsz/pqYM55FkU6W2ZkrH6OOsjZkQ2jt9Ni3HuN08+M/i8P3LZhcITgLdniIUou+kUi7yHLZX5UAhVS6BMV3xf7iZYu2XiXm1zFn0PQIXFuqeNlmYbZYgglJJstjxa/N2lLTkngyFESoSoD37yviR29jYEcnDr6bwHOVlmmjr2Zn4+mVveqr+JsaZPrHtTaW1zY2dRU/N/SQmyY5xyWWzySuMe8KqN+WaiLGRl09YibQ9qy+qCytEbz9m5WcWyVicXXWdVogHGnoLGEzTduyv7Fh7583V9hv/m0dUPUp+xAOyKjOP9G7jUw9Bj1lk8kNr7F30Kpz3/o2xcoa27eTyM0nctqTWfNr7p/cozsml6/XnU9/fxJvnx7kZ45UzL0JtqfX8dB6BIxAAgXUj0N0pwuThKKgz+WsHAQRCCLiH6wMkBkyZ+Ru4B05zetpRxfTgXmyzEtAfRVktp5JFSXENBEBgJQl0V8EKMwo+zxgnrmT3o9JLJaDtbwIVlFQLQrbMcW2ImxJdcHhRcK3EJV+l0FMxc9Uo30bGlTpOHFYNxuEIKSDQYgLdVbBC7K/SzuFa3Lmo2koQCFRQjDbuG2eVTnwVHbWs/LpSUWZizzp719csne2vsBLYZIIzEACBKAS6qWCx/6sQW5Mig78o3QIhnSEQV1kPMRr3U3SS5DP11VVAf/mVK4RvPrOqZQymzRw4AwEQAIFSBLqpYIVuaIvh/VI3FxKVIBBbWfe3TfJTzrj+vK2Lf9j22nA2z3Fj1Xosxf6qaiWRHgRAYBUJdFPBCtkglqcUEEAgFoHYyrqPbyl/pUyIexq9Ct16qKqD05D62v1W5DPIThvzXC8qiCkRskAABFpGoJsKlu2PpEqnJEHTIVVKQtruEDiP19SJx9RZgME4+49a5HtnYeOq1jmgvmZdInI3BS88819UsFA0EoAACLSDQDcVrBCHinlbGbSjP1GL1SRwEa3aXve2t8G4VlBCFazKdfaur4m5rP1bLaPWIduTmM3AGQiAQDsJdFPBamdfoFZdJRDXDmjPA6PHqBeVMrW94mnCsLBXMbtffe1Cytq/JeKznTXC+aGn7VmEoiECBECgCQJQsKpSLvtQrioX6btLIK4fpl2hV8lW4eln4D61vQrfZqZqnf3qaxMpb/8Wb4QxXYcNOUqf4hgEQGC9CHR1L8I4D+j1uhfQmmUR0HuV/Ul7rH0fpQp6ley4lCy1FVGplNlE6Y8NnkYLqX/ZOisD90m2LtVjKthfsdd1Wb2ExTkOxLtPI/H6u8HipB1MwfemHVxKMS8Y2BR7RlIeVbUVf/7wsFeQJxufja2a+P6SDzuGrEUndp3S5UxE35ldTatvXBhlOxMicpUJdFXBWuU+Q93XkYD2xxRHwdKrZMflMAXYM20+m4/shE6j6RdRiTqzgXsEZaes/RVDfCBXFBvlaFZOlSQvxbvLfXGfHGUUgsrC1ixDIs+oRebemCd/Zfeu3JCnpNwfGq3fEKxA9424r1/7NK39hxEnJr/R+fE8bkKyZNUPcPOGZCUukf9VMs0r82LUEX0onFxe04bNI/Hzi6F1EadrQABThGvQiWjCOhCIuTddFaWpSlqD843hAb2KwmKIeTwpvXWVd33NUuUGv7zLBT0Scl0usUcqHvnbkH/Ty/ZMvP105DHF61HoSmQZZ2rpdkNCSncmOOIcq1VlUv4+yBQRJWKXlL5fSMm+QL9H4dkqIRjBalV3oDKdJRBzlMT9EspBmzheRDlJzegL4zR4JaHYM+Tln/jWNy3xxmNqhl/Er9JCajg+FDI5FHe3PLLB4s9rKGORyAsaUfksePqXRyiXuY0Qr9iW0hyZEkpJ4r7Qgafj7m53p6epv9qBbXqa0LVa1Z7eSwlo9JCV7K9fjqnMYaPlorBaCUDBqhUvhINASQL8IuDpAiFcL4uSQmbJyk9x+NpN2SNWrGAls/KrH5SvRwwFa1y5gg/JKY0y1a1g2dUq3492Tv/zA1JqBPXlL0rRe3fJjpVHNIV51vgUJit5XI90sJUkZVNF9XUFbZd1lbpk3zvlFNgk+TUlw+9Qip/E6+enKrOye5SsTJnKo1RxQ78CkKuNBLqqYF1TZ+x6dUhpWxEv6cjUZQJS0guFbHJiBDbWffPtRaGoEAN3e8SKRzt45CUkcH2KRhS09/PtkCJUXkkv7qqBFeB3n36P1j9Vy19Weq34vifl8j19AJzTCNuwsI9i1pPvBT2Sl5a6lz4R/DzO0a/UNfHY1657x/5IMASnTqLYR6VMAPQ9zm27olLS76HweztVbRwun0BXbbCulo8eNQABi0AyGVsxAadlvJ2H2DPRCqh00FNJN+mo6scL6mOvFKtegM6R9MZeWe8nQ69865PpQBlvn1ySckAKfDPBHmUyXXrYI1rpOqXt+lzbMaVXwabzNXUsa/Gv1lTtUU4JAl1VsEqgyUmS/tHmJEE0CPgRsJQWPyE6VyL2FmdfoNAUCXCPjplKV1F+17VFdc5b8u6SlR/nY3+lpWl7Hl511vVwIMTkf+Ltx2HtIFyjTKarhbmil/W4P7+mbbfM6haNlpop45/xYobstPiH+AVB4jIJdHOKkD1QJwk9JLzCjlcuZAKBRQRYaTm55FGg8KmCoi/7WT28DdztUYWpRFawfH9XLCP1QpyKTP3t9fbod5uK8Doce+WaZtp6OqSp0CM63Z1GdfYvr347udwXW08H9RnD9+iesvtcfRiMHz3hz38rE7ITk/L7VH/o0S4eXc3+HvLu4VT2x8MiRZJHwUopar0BKaR9JVF9pNNiBjPciIfk2IzC2aoT6KaCxR6o2ZDTL4S8QPxKRK4uERhTY+2Hr0/79xZmyn5BL8zymIBeeq7AdibevysWuOC35a0QzivrY381zy2UIvHu42Dm5yh9rZvHh+L+dkwuBvq1KFlPnoyztn2PI69q2i+tfJEyJhPT4a0e7RpT1+wb3SPFmXFedMKKZF6YqPLHeZdn8Wxbmf/OOSflatD4IoJZ5XBQF4GOThHyV1FAaM7+IKCSyLqSBEIVgHmjTVuVebw+cnnJttPknqcMdtNpbMP39LWyx9oY2Z3aXyGcy+PVcKFBjVgkP4aKWZv83C9aydqJ3iY1+kS7BKTDzA2J5ddKzUzY+2KSMqa3jpqPdLEsXzu8dD3iHe8Jl41YPPmQtCQC3VSw+IcYEuSkH5IdeUEgn0CO8pKfIf+KaatipXscBbBiy53m2IqVmipZUEKeIXucj5rraKMEb16MaETi9wWt6c5lVrLubke1NFjvcpAWfaBOzGk/bVvHvrPSge36sr8Dfzu8tOx4x+RsNPmDnI0exxMJSW0g0E0Fy22gW74/EtEvnxgpQaACgRhKyqy4IiWq6NpMgOug+OWUNTR2yciPyzVkL7MqMl+susJuMGIG3kMwho+kmHVarqzDWpSExNFveqRzP9VcrVhlVwbuP7prSCUlu6kqgfs471+2PLdkmfwg3jyXZK/2D5pe/hclyhq0J+L9o12ZWwZiV45AN22wdDed0x/9JVS922LYyFQvFTm6QiDk3pwzKlyV523PZI4QzEvTR4maovneji59zobsrsBtka4LFeKiusF4LJd9JL39xLY/I4oxp6EqVG1tkmolIa5T0snkgvxwmYi0/dWc93S1YdYf2z5Nv10ZiyOqTsNH8YP1WH3tzuSMzs5ogQD/Nd8lG8rZ6LHZWJytKoFujmBxb01/kL49x8tsEUCgDgKh9+a8TvvzQ+vI155pUd3sKRqr2IWnM/saK6U5HWRdLHnK2xHVEX7+7oyMlJk1K8YIG3IUFYJ2j3FtyJTWirvpSJJWYNJpt+lZv2fkbYv9VeLklP+bNRqBk1Ug0F0Fa/qD9O0lSas+EECgDgKh9+a8Tu6HdYiB+6K6Lbo+r1veUd6o8l5ehpLx8eyvXAWyEvDmeZ9Gsn6gy11XtA5EyD3m4pud3jXvEx65mof0Mcem0xZPcc9l1H8kJzv1F4ISlkmguwqWtnVhn0O+4RC7n/uiQ75CAvHssPSGt5nCvO2vhNoAOCMvFWG+6FIXKhzaKwn1KrDdChKySbMv6GyaGDHcd1NFSxvBhzxjYtRoOTISOYxacNH0Ltv96ZErXWTxKOo4ar18halFG/I0k33RCHEmAyLaTKDLNljcL2P6Z86Bc2zZgN3Py5JCuqoE+KXhO42XLiu74S1dZQUrSacqd2y/yFy5+EUXumm1XWe1Cky6SisfV/SCLi+lfEqtJI9VBh7NUXvmKcWW2HfCSemB2k4ndEHRlDhP725MT+y/8sKI4VFUe5PoWQIPNx0nl8U/Fh61XPhR1LMcjU7c750JbayNsDYEOq5g8Y9Num/0Ml2M3c/LUEIaHwJ6afr3PlmNPHpV3tiIs21SjItFJ9aLLD/pFV3yH3HK1DlgxG1ax61n9FtfUkgrW9Mq8Khc1n3A9Go9f9WiB8XyiArw75/StZsMKOlx6eRFCXkKNm+XA1t5vqeFFnnKWF12eEV152vFjkZ1bil+iuZGZFF9cL0RAt1WsPihe3d7SqS3PWlvq2XJr5+zDAQQiEeAl6bL5FWwQPeqvAMvufaLLE8IT3NI6VcGy5RyxxBduBrSSOk+KTPy5s5ZX6ye0hrXV0Ch5GNxQt7ohZrGq1PROqJaHBfWpNrFMSV3fBBbftnylbF67fCqtSWdmqaRyWj/NflWQ1grAt21weJu5IeclGdBPZqIIWyxgggis4vAkydjV3TlOHu0Kshhp/Uiy61M4E4J9rYm2fPckp0Xso4qnck6FcmOUree7lObs/6Y4oHYjerXye1eIc9o/SLTjKbs8JKNz5mysxHXFEXsaUeArad7gvsDYe0IdHsES3XnZERfci8DenZbwBYrAB+yOgmw8v/uMoYdljWSxA47veyZ8l5k2eq7/BZlUxXF8Is/Hezz9LXFxy5HlYtzrX8KPYp2JN59GqkprDpavCH6JHYURbSeKTgtJYsXGvgE33zpsrTdmdePLC0Gx6tPoNsjWNx/bB/BUwghQe0q/1fYSyCkfORdUwKlbZ6K259elec/3XZRXEjqqvZbRNMe3mE+Ze/aR66q2FijgVXLXZX07JE+9BmY11b/+y1PIuJBYGUIQMHirkqScl9Fhd06iSCjsABc7BqBsjZPi7ik9/fzddhZffl4eYXMVf+pH6VQQ/A22l+52rvsuIRWudURfO+3OuoCmSDQMAEoWAxcz3/znHhIOBBvPw5DBCAvCBgEoq14Mlbh7RlllD2p6kC0ukJm1mTS29ERRt3NNGXOYH9VhhI9A79lhbhOe6xy9UAqEFgjAlCwZp2ZDGeHvgc8VTj98vaVgXwgMCWgp9pCFX8aoRV7SmSIw87KDkRDDd0n+6rOk+RR0ZpCqfgX9lcVgHn4iFosXffj4nRIAQJrRwAK1rRL44xi0cuMViWmbV6m8vEXBHwIxFn5pF9yvtNtPtNsbOgeEuTjyFXoFBPvE4hQjkC0EVOjuLk9nRGNExBYfwJQsIw+jjCKxT61NknJ0qMFhnScgEB1AkmYoqIL1AqW8uBevQa06rB6HcIN3Xcea7rnU+PHPOcBebuXVfdZ99qNFoNATQSgYKXB6lGs8Icyb3FyfzuGkpWGi2MvAklv7JXPzLSt7sXpVKF5bfGZv7F9dcVsXptHpTDA43ioHdi8LjgCARAAgcoEoGBlkPWOM1E+EVCyfKghj01AGx+HuDzQEvX04FRpsUtZcF7WwaglJkzB2VZ72VkiK51WNcyvJByJQQAEQKCYABQsm49+of1mR3udT5Us2GR54UOmGYHx7Mj7QNk0+SlY+jfhUXKgoXvycORR6DzLwg1450lxRARg1oDbAASiEoCC5cK59XRI0eGrt1g2K1kbZMOC1YVMA8GHQBLBDktPD/oYHPtPmYcauvdkiILlX2+fPlqHPF+/9tehGWgDCLSFALbKcfWE2qaENkNN5H9dlz3itpWstx9/FT+/GHrkR5YuE+CprkT8EojglVf+kGk+Npo+ufQqVmXijxPfEFJv3zJXPV9PHNF9FjvEV3T5Y1X5SSNXHlJcqX/39LdJI32elUg78GVqvAeh92hvbOwe8ngEk00JbLar3i4PFLGyQMHKI8nTCyeXPFXo92JyyVVb6lz2hSA7r1X+Ibrahrj6COh7sT75hZIDp/mE4BfsQWERdVyUG2d1iF1bmawwJMnL1rZPKTS9IdWRlcBtIVkTlLq6fLhB/04urynqVOg9C/W16f8nl5yqfEiS7MewvWdjRuKE68DV+lNMyKfYk2enQu/3OC/3hD7chfzPPEIdXYs3z/esuPkpKz53t/83j3g8eki+mSmV7OSa3y/p4GpD+vr0mOsk5TGVQR80xNRmK1S7btSOJ+kBAlZ0qw5CyOQHtT3dtOw1/4spwqIOfvP8WP1YitJUv3YgxOR/9EM8hc1DdXgdzhF/JKAMzPB9/C7KFBM5TfmNqSMXvLLiNuSoprqH9//bT0fKzEIrgNsF9dwl5atfcD3sUpLslRLAI6+s7Nzd0giutUft1jOX4r+bSZcuyDV1y0pc6Igd1+3k8oo0qv8QN1KuCkMR98KMXb4IBWtR79/TF5MQ4au4suW8Uj9A/vKAEXyWDmJMAsuZ8rrOfIGbtSpxFsF+rEQpVpKxdY7TIgJ6iy/68Ksh8BReSOBno0xGJKLkC74Wb/S+LaA6T8bG812PaH3ICJSTfiZuGsFTt9kwykZViFEjafShLyq4QcGq3AqAdVIoWIuQ8VdCIgeLknlep6Fu+tLZkH/Tl8SZ4C81BBBwEVjGwy2KF3lPFw8uBmXjJNmsIZQjwCPp9tRSuZzlUoX6cdukaUG3cvWBpqx+pbr/bswy1OONPr+tXIfpP/dejtv0fD82BLjuz8SpROlsPC1qh/sARVItuMpMU6ZL4NHy3xRbPcWvBxiwKjfNqNQxbLDKYOLtNk4+/qiGUsuk90tzSF9qh2oOn3+o6kdIX/+4qf1orlsu3gvw7rbhVkUYfWJbwxBDd58Wh77UfcpctTxq6mpyStWuZ+RK8wifqs3ahdHLvtfP2LAqO6UvRxWmzc7J7qmvqxnwf9omicW8uzym6bb3lsR945yVow1ppzlQJiMZmy2eYpzQSJgRziu008ioyri7HZmR6kzbWLnsxviyPdXpEKCiytp95eVfs3goWGU7lL28v/tERn2NGIIe0o/0kBQ6bTSppygvyla13elg4O/VP2pl6+WfJWwlvMQ7M8VTVPiLuM4Xebr64S/1tLR1Oubptg22UeIR+Un9/SHlWQ34LjLKFReiFZNRDeVVE8kG9ieXQ8qUVopM1jwr8s7xW9a2VhazySBbATVlmo0uE3N/y/J2s0l7ffEzfQzlBSzKyiNTGA8FqxCPdfH1dwNSskRDSla6cP6xmj/S9NVVOpYPO6tU3VbVNVFTX983Vqd4D1V+cDd1/46j8/FZLRW9EisocCIsZSFKGw5oNmEg9LZmUQQ2IIQ/MOwwooj3RqS2tTKZSVKIEyOVEG5DeStR7ukgc0WNOhUoV5kMiChLAApWWVLTdMtTsqY1wN+uEkjkmKaRXzXUfNdLwbNonmqk0dgmgsu+pYlyUYZN4FqwaUVo4NVymRVuZD90cjkg29hT7zKk2Cl0/uxrmqGMx43RK7r15VUGg2uaMEn6Rjoeccy0ncxH7GlEI1PBiXb3kP1A42nBWKHX28vl2kF/WlCwfG4sKFk+1JAnlMCTJ+PG7LCirlpkQ3fypdNECDH+baJ+nSkjGUZp6kQO6aPiD4esA4qn0SzyfZXQlFme7ZAjo4pSikuhI+lyXwTKYPyxkETtPGB/AN2I+8kwUw33NOGusnWajhxvkjx79EoEGLer/UgzzTr3VtgyjaIIZUIjX7ou0TOAP9r67mvrGdtbz2Y10CpWsqT4qYGSUAQIaAL6y/W6GRzBDkbn1Zy+MOYxdR1dexv/1lWjLsrlUadYU3g8CsYrBfPDLl3XPqeWsQqbHW1O/2WdUpNBfnKce0+yM1I7pN01uHx6hUwPKg/tdoHicyYGEdEIQMEKQak8Bic/kgi9jDVEFvKCQBkCUVwnlCiIR8viBv56rTc0xabeVqyBdFIqYgb+mBULn7Ps3f0PZZ8Vs2x/WdfiIdkvVDRduw2Y7hoOreL9pweVINpaCKFRAlCwQnGrL7Ven0az/gwVhfwgsJBAQo4L6w8RHIxmKnmRiYkd0Qyb2LVeN3m/1eJahp+zW0/31KxB4bOW7LLKOW7mj2JW+vP+hfbLrtA+vPLl6JHdayuBXgySnnqcJXCMeM2ulThw+9LbKZGzShJuTx7T+p8BVWraQFrYYMWAzD+U93/3yT5mSOLsOfgYJUAGCGgC7EiR912rM9QyEtSAoXvTTibr7INVlM2Kz2vaXqyuoKfIT0n8qTKkTsg+K7s6dVuw7RKnKQ7k7iGCHyzeW4+n3qQyUDef/WyPdPJxXDiKJdRKSzMfK1cTslWSVgNCpgctUalTt/+tVIJKh2wPZ/sGqyRgvRJjBCtWf/KPX+1dSD84IViLRwCB+AT0/mM1T0lHcDBqt1wGbpliy8uew/4qy6TJmGux+bTfWIG8yk8rSB+yZcr9bFxNMVwPthPT+9b+lCmFN1EuDL1R5rJSrmTfig+cHiRpeSsjtW8sqzicxiAABSsGxbQM/cPXQ9mwzUqTwXE8AuN4olySalCw8h7uruJ94moZdfOpSCfzkMLfO4q6Gq0sRplkR6qSZKds9qjplE2u9XHNqxXZPUJecE0TSqVc6anCWb7A6cGZHHLzYIdEDEt7arfz4ryQABSsQjwBF/nHxjYD7MQNilYASGTNEKjb11NdylCh7UymldUiYH9VjVes1Nyn/Jyra6Uo+5Xif3lKSuIYIUpq+EAoy8ul6N99OVqQ/cy6bilXdDXW9KBLIVVe58m2U/vwsqryeJrH350asY8EYINV562gbQaG9HA4FTwMm4hjKm63ziIhuwME1BY2tfmVOq+PoLyg1WDf1yI/1guolsqtrdDfaFpwWO/IlRwQvQOyb2Xnouf0wTqe0ewpP1HZ+8m1Om+WaXawT/LmsmbRqQMfGy2l6Ft+oGSvT1JH9M8dJI1OJfKV+6KKDZ8enArnj6eTSx7FOpxGPf7dFkI5cB2S24uxmEyuVDw7DhW0GvLulv6Sc9ZFQVJ/nVz2C5Kx7Ru/BzsRoGA10c22cabokbKldkinmxoBBCoS4NGCk0ualrE8RlcUk5OclKC6ghpZeBldOo+i6N9YdNEQ6CRwTUbdg1ybHmcW78j0aA45F5Xz88Qp80PJ0TR+9s5lOUV5RLoWodge2m2xWukp+D1Hmx7UJW89HdAH/9jhJZ6v7ypnoVLqtEkKMq/O1Dag+pr7/10lw32tc7GYImy6y/nHxH5d3jzfoa+Wf1Hxv8HFQ9OdsBbl1aMI8XY8tYWapm70Ho211RqCZwSuaTTjR3p27TWiXDldFczqkj3Q05WD7IUGY7QCQpyMsLvQdUTRxtixR2f5Y0QvSOCRrPKh19svnxgpmQAUrGXeB9PVJ6+f75Mdwz/oq/CHR5stvvHPl1k1lN1yAumpkphVnUzqUdy4jnXZdtWqFMaEu5KybpQndf4YZMUqlof2MijuaeWp9uLOoztFQSt+/Bxtx0jmWaay2nVEJnoWkb8xdrzpwVlhdMCc3jw/Uu8c4TB8T6fVx3QfTHay0YgpIoApwiI6TV7TD4YxFcn/zHDy176QD+txc28+q/YC5/T3X34wgQScVS0/oKhas/Lea/dfxtHLWDwFEFYkf0TEDltPq91TsctfF3k8ApSorVOIJ4820h6SdRmvl2Gm78WBSsqjWYnYU/+meZXrj5J1jHLf9Y5LPYe3yC7t/svZtJrqL290XBT4Y/vdx+xvg5XMMmFCNl6bKfs0zvNQIq/+6BmrRQR6r8J9MUmtwmTG/M/1ceTzbF7EoUxbkQYEQAAEQAAEQAAEQAAEQAAEQAAEQAAEQAAEQAAEQAAEQAAEQAAEQAAEQAAEQAAEQAAEQAAEQAAEQAAEQAAEQAAEQAAEQAAEQAAEQAAEQAAEQAAEQAAEQAAEQAAEQAAEQAAEQAAEQAAEQAAEQAAEQAAEQAAEQAAEQAAEQAAEQAAEQAAEQAAEQAAEQAAEQAAEQAAEQAAEQAAEQAAEQAAEQAAEQAAEQAAEQAAEQAAEQAAEQAAEQAAEQAAEQAAEQAAEQAAEQAAEQAAEQAAEQAAEQAAEQAAEQAAEQAAEQAAEQAAEQAAEQAAEQAAEQAAEQAAEQAAEQAAEQAAEQAAEQAAEQAAEQAAEQAAEQAAEQAAEQAAEQAAEQAAEQAAEQAAEQAAEQAAEQAAEQAAEQAAEQAAEQAAEQAAEQAAEQAAEQAAEQAAEQAAEQAAEQAAEQAAEQAAEQAAEQAAEQAAEQAAEQAAEQAAEQAAEQAAEQAAEQAAEQAAEQAAEQAAEQAAEQAAEQAAEQAAEQAAEQAAEQAAEQAAEQAAEQAAEQAAEQAAEQAAEQAAEQAAEQAAEQAAEQAAEQAAEQAAEQAAEQAAEQAAEQAAEQAAEQAAEQAAEQAAEQAAEQAAEQAAEQAAEQAAEQMBB4P8D0UlJmujLyYoAAAAASUVORK5CYII=;" vertex="1" parent="1">
          <mxGeometry x="960" y="364.75" width="126.97" height="51" as="geometry" />
        </mxCell>
        <mxCell id="OQmvY03P2CP98hC-OCcr-2" value="" style="shape=image;verticalLabelPosition=bottom;labelBackgroundColor=default;verticalAlign=top;aspect=fixed;imageAspect=0;image=data:image/svg+xml,PHN2ZyB4bWxucz0iaHR0cDovL3d3dy53My5vcmcvMjAwMC9zdmciIHZpZXdCb3g9IjAgMCAyNCAyNCIgcm9sZT0iaW1nIiBmaWxsPSIjMDQ2N0RGIj48dGl0bGU+TWV0YTwvdGl0bGU+PHBhdGggZD0iTTYuOTE1IDQuMDNjLTEuOTY4IDAtMy42ODMgMS4yOC00Ljg3MSAzLjExM0MuNzA0IDkuMjA4IDAgMTEuODgzIDAgMTQuNDQ5YzAgLjcwNi4wNyAxLjM2OS4yMSAxLjk3M2E2LjYyNCA2LjYyNCAwIDAgMCAuMjY1Ljg2IDUuMjk3IDUuMjk3IDAgMCAwIC4zNzEuNzYxYy42OTYgMS4xNTkgMS44MTggMS45MjcgMy41OTMgMS45MjcgMS40OTcgMCAyLjYzMy0uNjcxIDMuOTY1LTIuNDQ0Ljc2LTEuMDEyIDEuMTQ0LTEuNjI2IDIuNjYzLTQuMzJsLjc1Ni0xLjMzOS4xODYtLjMyNWMuMDYxLjEuMTIxLjE5Ni4xODMuM2wyLjE1MiAzLjU5NWMuNzI0IDEuMjEgMS42NjUgMi41NTYgMi40NyAzLjMxNCAxLjA0Ni45ODcgMS45OTIgMS4yMiAzLjA2IDEuMjIgMS4wNzUgMCAxLjg3Ni0uMzU1IDIuNDU1LS44NDNhMy43NDMgMy43NDMgMCAwIDAgLjgxLS45NzNjLjU0Mi0uOTM5Ljg2MS0yLjEyNy44NjEtMy43NDUgMC0yLjcyLS42ODEtNS4zNTctMi4wODQtNy40NS0xLjI4Mi0xLjkxMi0yLjk1Ny0yLjkzLTQuNzE2LTIuOTMtMS4wNDcgMC0yLjA4OC40NjctMy4wNTMgMS4zMDgtLjY1Mi41Ny0xLjI1NyAxLjI5LTEuODIgMi4wNS0uNjktLjg3NS0xLjMzNS0xLjU0Ny0xLjk1OC0yLjA1Ni0xLjE4Mi0uOTY2LTIuMzE1LTEuMzAzLTMuNDU0LTEuMzAzem0xMC4xNiAyLjA1M2MxLjE0NyAwIDIuMTg4Ljc1OCAyLjk5MiAxLjk5OSAxLjEzMiAxLjc0OCAxLjY0NyA0LjE5NSAxLjY0NyA2LjQgMCAxLjU0OC0uMzY4IDIuOS0xLjgzOSAyLjktLjU4IDAtMS4wMjctLjIzLTEuNjY0LTEuMDA0LS40OTYtLjYwMS0xLjM0My0xLjg3OC0yLjgzMi00LjM1OGwtLjYxNy0xLjAyOGE0NC45MDggNDQuOTA4IDAgMCAwLTEuMjU1LTEuOThjLjA3LS4xMDkuMTQxLS4yMjQuMjExLS4zMjcgMS4xMi0xLjY2NyAyLjExOC0yLjYwMiAzLjM1OC0yLjYwMnptLTEwLjIwMS41NTNjMS4yNjUgMCAyLjA1OC43OTEgMi42NzUgMS40NDYuMzA3LjMyNy43MzcuODcxIDEuMjM0IDEuNTc5bC0xLjAyIDEuNTY2Yy0uNzU3IDEuMTYzLTEuODgyIDMuMDE3LTIuODM3IDQuMzM4LTEuMTkxIDEuNjQ5LTEuODEgMS44MTctMi40ODYgMS44MTctLjUyNCAwLTEuMDM4LS4yMzctMS4zODMtLjc5NC0uMjYzLS40MjYtLjQ2NC0xLjEzLS40NjQtMi4wNDYgMC0yLjIyMS42My00LjUzNSAxLjY2LTYuMDg4LjQ1NC0uNjg3Ljk2NC0xLjIyNiAxLjUzMy0xLjUzM2EyLjI2NCAyLjI2NCAwIDAgMSAxLjA4OC0uMjg1eiIvPjwvc3ZnPg==;" vertex="1" parent="1">
          <mxGeometry x="1106.97" y="365.75" width="50" height="50" as="geometry" />
        </mxCell>
        <mxCell id="OQmvY03P2CP98hC-OCcr-3" value="" style="shape=image;verticalLabelPosition=bottom;labelBackgroundColor=default;verticalAlign=top;aspect=fixed;imageAspect=0;image=data:image/svg+xml,PHN2ZyB4bWxucz0iaHR0cDovL3d3dy53My5vcmcvMjAwMC9zdmciIHZpZXdCb3g9IjAgMCAxNiAxNiIgY2xhc3M9ImJpIGJpLXBsdXMtbGciIGZpbGw9ImN1cnJlbnRDb2xvciIgaGVpZ2h0PSIxNiIgd2lkdGg9IjE2Ij4mI3hhOyAgPHBhdGggZD0iTTggMmEuNS41IDAgMCAxIC41LjV2NWg1YS41LjUgMCAwIDEgMCAxaC01djVhLjUuNSAwIDAgMS0xIDB2LTVoLTVhLjUuNSAwIDAgMSAwLTFoNXYtNUEuNS41IDAgMCAxIDggMiIgZmlsbC1ydWxlPSJldmVub2RkIi8+JiN4YTs8L3N2Zz4=;" vertex="1" parent="1">
          <mxGeometry x="1081.97" y="382.75" width="16" height="16" as="geometry" />
        </mxCell>
        <mxCell id="OQmvY03P2CP98hC-OCcr-4" value="&lt;div style=&quot;&quot;&gt;FFM Llama3 LLM Model&lt;/div&gt;" style="rounded=1;whiteSpace=wrap;html=1;align=center;fillColor=none;" vertex="1" parent="1">
          <mxGeometry x="1002.45" y="416.75" width="154.52" height="19" as="geometry" />
        </mxCell>
        <mxCell id="lr4IIuhga8-bPh0eWAdH-1" value="是否選取Memory，即是否要&lt;div&gt;紀錄前面的對話紀錄。&lt;/div&gt;" style="rhombus;whiteSpace=wrap;html=1;" vertex="1" parent="1">
          <mxGeometry x="630" y="339.75" width="220" height="100.25" as="geometry" />
        </mxCell>
        <mxCell id="lr4IIuhga8-bPh0eWAdH-2" value="" style="endArrow=classic;html=1;rounded=0;exitX=1;exitY=0.5;exitDx=0;exitDy=0;entryX=0;entryY=0.5;entryDx=0;entryDy=0;strokeColor=#FF0000;" edge="1" parent="1" source="jb_iqBjmAWC4msFi5dK2-3" target="lr4IIuhga8-bPh0eWAdH-1">
          <mxGeometry width="50" height="50" relative="1" as="geometry">
            <mxPoint x="560" y="390" as="sourcePoint" />
            <mxPoint x="610" y="340" as="targetPoint" />
          </mxGeometry>
        </mxCell>
        <mxCell id="vVmhuR8fg3P0trWH6u4G-1" value="&lt;font color=&quot;#ff0000&quot;&gt;Memory or not&lt;/font&gt;" style="edgeLabel;html=1;align=center;verticalAlign=middle;resizable=0;points=[];" vertex="1" connectable="0" parent="lr4IIuhga8-bPh0eWAdH-2">
          <mxGeometry x="0.0365" y="2" relative="1" as="geometry">
            <mxPoint as="offset" />
          </mxGeometry>
        </mxCell>
        <mxCell id="8Prs5l_Al-9rhkf4T_A--1" value="" style="endArrow=classic;html=1;rounded=0;exitX=0.5;exitY=0;exitDx=0;exitDy=0;strokeColor=#3399FF;entryX=0;entryY=0.5;entryDx=0;entryDy=0;" edge="1" parent="1" source="lr4IIuhga8-bPh0eWAdH-1" target="8Prs5l_Al-9rhkf4T_A--8">
          <mxGeometry width="50" height="50" relative="1" as="geometry">
            <mxPoint x="740" y="330" as="sourcePoint" />
            <mxPoint x="910" y="160" as="targetPoint" />
            <Array as="points">
              <mxPoint x="740" y="160" />
            </Array>
          </mxGeometry>
        </mxCell>
        <mxCell id="8Prs5l_Al-9rhkf4T_A--6" value="&lt;font color=&quot;#3399ff&quot;&gt;有&lt;/font&gt;" style="edgeLabel;html=1;align=center;verticalAlign=middle;resizable=0;points=[];" vertex="1" connectable="0" parent="8Prs5l_Al-9rhkf4T_A--1">
          <mxGeometry x="-0.6431" relative="1" as="geometry">
            <mxPoint as="offset" />
          </mxGeometry>
        </mxCell>
        <mxCell id="8Prs5l_Al-9rhkf4T_A--8" value="" style="shape=image;verticalLabelPosition=bottom;labelBackgroundColor=default;verticalAlign=top;aspect=fixed;imageAspect=0;image=data:image/svg+xml,PHN2ZyB4bWxucz0iaHR0cDovL3d3dy53My5vcmcvMjAwMC9zdmciIHZpZXdCb3g9IjAgMCAyNCAyNCIgcm9sZT0iaW1nIiBmaWxsPSIjRkZEMjFFIj48dGl0bGU+SHVnZ2luZyBGYWNlPC90aXRsZT48cGF0aCBkPSJNMS40NDQ2IDExLjUwNTljMCAxLjEwMjEuMTY3MyAyLjE1ODUuNDg0NyAzLjE1NjMtLjAzNzgtLjAwMjgtLjA2OTEtLjAwNTgtLjEwNTgtLjAwNTgtLjQyMDkgMC0uODAxNS4xNi0xLjA3MDQuNDUxMi0uMzQ1NC4zNzM3LS40OTg0LjgzMzUtLjQzMTYgMS4yOTNhMS41NzYgMS41NzYgMCAwIDAgLjIxNDguNTk3OGMtLjIzMTkuMTg2NC0uNDAxOC40NDU2LS40ODQ0Ljc1NzgtLjA2NDYuMjQ0OC0uMTMxLjc1NDMuMjE0OSAxLjI3OTRhMS40NTUyIDEuNDU1MiAwIDAgMC0uMDYyNS4xMDU1Yy0uMjA4LjM5MjMtLjIyMDcuODM3Mi0uMDM3MSAxLjI1LjI3ODMuNjI1OC45Njk2IDEuMTE3NSAyLjMxMjYgMS42NDY3LjgzNTYuMzI5MiAxLjU5ODguNTQxMSAxLjYwNTYuNTQzIDEuMTA0Ni4yODQ3IDIuMTA0LjQyNzcgMi45NjkuNDI3NyAxLjQxNzMgMCAyLjQ3NTQtLjM4NDkgMy4xNTI1LTEuMTQ0NiAxLjUzOC4yNjUxIDIuNzkxLjE0MDMgMy41OTIuMDA2LjY3NzMuNzU1NSAxLjczMzIgMS4xMzg3IDMuMTQ2NyAxLjEzODcuODY0OSAwIDEuODY0My0uMTQzIDIuOTY5LS40Mjc4LjAwNjgtLjAwMTkuNzctLjIxMzggMS42MDU2LS41NDMgMS4zNDMtLjUyOTIgMi4wMzQzLTEuMDIwOCAyLjMxMjYtMS42NDY2LjE4MzYtLjQxMjkuMTcxLS44NTc3LS4wMzctMS4yNWExLjQ2ODUgMS40Njg1IDAgMCAwLS4wNjI2LS4xMDU2Yy4zNDYtLjUyNS4yNzk1LTEuMDM0Ni4yMTQ5LTEuMjc5My0uMDgyNi0uMzEyMi0uMjUyNS0uNTcxNC0uNDg0NC0uNzU3OS4xMS0uMTgxNi4xODMxLS4zNzg4LjIxNDgtLjU5NzcuMDY2OS0uNDU5NS0uMDg2Mi0uOTE5My0uNDMxNi0xLjI5My0uMjY4OC0uMjkxMy0uNjQ5NS0uNDUxMy0xLjA3MDQtLjQ1MTMtLjAyMDkgMC0uMDM3Ni4wMDA4LS4wNTg4LjAwMTguMzE2Mi0uOTk2Ni40ODQ2LTIuMDUxOC40ODQ2LTMuMTUyMyAwLTUuODA3LTQuNzM2Mi0xMC41MTQ0LTEwLjU3ODktMTAuNTE0NC01Ljg0MjYgMC0xMC41Nzg4IDQuNzA3My0xMC41Nzg4IDEwLjUxNDRabTEwLjU3ODgtOS40ODMxYzUuMjcyNyAwIDkuNTQ3NiA0LjI0NiA5LjU0NzYgOS40ODNhOS40MjAxIDkuNDIwMSAwIDAgMS0uMjY5NiAyLjIzNjVjLS4wMDM5LS4wMDQ3LS4wMDc5LS4wMTEtLjAxMTctLjAxNTYtLjI3NC0uMzI1NS0uNjY3OS0uNTA1OS0xLjEwNzUtLjUwNTktLjM1MiAwLS43MTQuMTE1NS0xLjA3NjMuMzQzOC0uMjQwMy4xNTE3LS41MDU4LjQyMi0uNzc5My43NTk4LS4yNTM0LS4zNDkyLS42MDgtLjU4MzItMS4wMTM3LS42NDY1YTEuNTE3NCAxLjUxNzQgMCAwIDAtLjIzNDQtLjAxNzZjLS45MjYzIDAtMS40ODI4Ljc5OTMtMS42OTM1IDEuNTE3Ny0uMTA0Ni4yNDI2LS42MDY1IDEuMzQ4Mi0xLjM2MTQgMi4wOTc4LTEuMTY4MSAxLjE2MDEtMS40NDU4IDIuMzUzNC0uODM5NiAzLjYzODItLjg0My4xMDI5LTEuNTgzNi4wOTI3LTIuMzY1LS4wMDYuNTkwNi0xLjIxMi4zNjI2LTIuNDM4OC0uODQyNi0zLjYzMjItLjc1NS0uNzQ5Ni0xLjI1NjgtMS44NTUyLTEuMzYxNC0yLjA5NzgtLjIxMDctLjcxODQtLjc2NzMtMS41MTc3LTEuNjkzNS0xLjUxNzctLjA3OCAwLS4xNTY4LjAwNTQtLjIzNDQuMDE3Ni0uNDA1Ny4wNjMzLS43NjA0LjI5NzMtMS4wMTM3LjY0NjUtLjI3MzUtLjMzNzktLjUzOS0uNjA4MS0uNzc5NC0uNzU5OC0uMzYyMi0uMjI4My0uNzI0My0uMzQzOC0xLjA3NjItLjM0MzgtLjQyNjYgMC0uODA5NC4xNzEtMS4wODIxLjQ3ODZhOS40MjA4IDkuNDIwOCAwIDAgMS0uMjU5OC0yLjE5MzZjMC01LjIzNyA0LjI3NDktOS40ODMgOS41NDc1LTkuNDgzek04LjY0NDMgNy4wMDM2Yy0uNDgzOC4wMDQzLS45NTAzLjI2NjctMS4xOTM0LjcyMjctLjM1MzYuNjYzMy0uMTAwNiAxLjQ4NzMuNTY0NSAxLjg0LjM1MS4xODYyLjQ4ODMtLjUyNjEuODM2LS42NDg1LjMxMDctLjEwOTUuODQxLjM5OSAxLjAwNzguMDg2LjM1MzYtLjY2MzQuMTAyNS0xLjQ4NzQtLjU2MjUtMS44NGExLjM2NTkgMS4zNjU5IDAgMCAwLS42NTI0LS4xNjAyWm02Ljg0MDMgMGMtLjIxOTktLjAwMi0uNDQyNi4wNS0uNjUwNC4xNjAyLS42NjUuMzUyNi0uOTE4MSAxLjE3NjYtLjU2NDUgMS44NC4xNjY5LjMxMy42OTcxLS4xOTU1IDEuMDA3OS0uMDg2LjM0NzYuMTIyNC40ODY3LjgzNDcuODM4LjY0ODUuNjY0OS0uMzUyNy45MTYtMS4xNzY3LjU2MjQtMS44NC0uMjQzLS40NTYtLjcwOTYtLjcxODQtMS4xOTM0LS43MjI3Wm0tOS43NTY1IDEuNDE4YS44NzY4Ljg3NjggMCAwIDAtLjg3Ny44NzdjMCAuNDg0Ni4zOTI1Ljg3Ny44NzcuODc3YS44NzY4Ljg3NjggMCAwIDAgLjg3Ny0uODc3Ljg3NjguODc2OCAwIDAgMC0uODc3LS44Nzd6bTEyLjY0MzQgMGMtLjQ4NDUgMC0uODc5LjM5MjUtLjg3OS44NzcgMCAuNDg0Ni4zOTQ1Ljg3Ny44NzkuODc3YS44NzY4Ljg3NjggMCAwIDAgLjg3Ny0uODc3Ljg3NjguODc2OCAwIDAgMC0uODc3LS44Nzd6TTguNzkyNyAxMS40NTljLS4xNzktLjAwMy0uMjc5My4xMTA3LS4yNzkzLjQxNiAwIC44MDk3LjM4NzQgMi4xMjUgMS40Mjc5IDIuOTI0LjIwNy0uNzEyMyAxLjM0NTMtMS4yODMyIDEuNTA3OS0xLjIwMTIuMjMxNS4xMTY3LjIxOTEuNDQxNy42MDc0LjcyNjYuMzg4NC0uMjg1LjM3NC0uNjA5OC42MDU2LS43MjY2LjE2MjctLjA4MiAxLjMwMDkuNDg4OSAxLjUwNzkgMS4yMDEyIDEuMDQwNC0uNzk5IDEuNDI3OC0yLjExNDQgMS40Mjc4LTIuOTI0IDAtMS4yMjEyLTEuNTgzLjY0MDItMy41NDEzLjY0ODUtMS40Njg2LS4wMDYxLTIuNzI2Ni0xLjA1NTgtMy4yNjM5LTEuMDY0NXpNNC4zMTIgMTQuNDc2OGMuNTc5Mi4zNjUgMS42OTY0IDIuMjc1MSAyLjEwNTYgMy4wMTc3LjEzNzEuMjQ4OC4zNzEuMzUzNi41ODIuMzUzNi40MTg4IDAgLjc0NjUtLjQxMzguMDM5MS0uOTM5NS0xLjA2MzYtLjc5MS0uNjkxNC0yLjA4NDYtLjE4MzYtMi4xNjQyYS40MzAyLjQzMDIgMCAwIDEgLjA2NjQtLjAwNGMuNDYxNiAwIC42NjYuNzg5Mi42NjYuNzg5MnMuNTk1OSAxLjQ4OTggMS42MjEzIDIuNTA4Yy45NDIuOTM1NiAxLjA2MiAxLjcwMy40OTYxIDIuNjY2MS0uMDE2NC0uMDA0LS4wMTU5LjAyMzYtLjE0ODQuMjE0OS0uMTg1My4yNjczLS40MzIyLjQ2ODgtLjcxODguNjE1Mi0uNTA2Mi4yMjY5LTEuMTM5Ny4yNjk2LTEuNzgzMy4yNjk2LTEuMDM3IDAtMi4xMDE3LS4xODI0LTIuNjk3NS0uMzM2LS4wMjkzLS4wMDc1LTMuNjUwNS0uOTU2Ny0zLjE5MTYtMS44MjI0LjA3NzEtLjE0NTQuMjAzMy0uMjAzMS4zNjMzLS4yMDMxLjY0NjMgMCAxLjgyMy45NTUxIDIuMzI4My45NTUxLjExMyAwIC4xOTYtLjA4NjUuMjI4NS0uMjAzMS4yMjQ5LS44MDQ1LTMuMjc4Ny0xLjA1MjItMi45ODQ2LTIuMTY0Mi4wNTE5LS4xOTY3LjE5My0uMjc1Ny4zOTA3LS4yNzU0Ljg1NCAwIDIuNzcwNCAxLjQ5MjMgMy4xNzIgMS40OTIzLjAzMDcgMCAuMDUyNS0uMDA4NS4wNjQ1LS4wMjc0LjIwMTItLjMyMjcuMTA5Ni0uNTg2NS0xLjMwODctMS40Mzk1LTEuNDE4Mi0uODUzMy0yLjQzMTUtMS4zMjktMS44NjUzLTEuOTQxNi4wNjUxLS4wNzA3LjE1NzQtLjEwMTUuMjY5NS0uMTAxNS44NjExLjAwMDIgMi44OTQ4IDEuODQgMi44OTQ4IDEuODRzLjU0ODcuNTY4My44ODA5LjU2ODNjLjA3NjIgMCAuMTQxNi0uMDMxNS4xODU1LS4xMDU0LjIzNTUtLjM5NDYtMi4xODU4LTIuMjE4My0yLjMyMjQtMi45NzEtLjA5MjYtLjUxLjA2NDEtLjc2NzYuMzU1NS0uNzY3Ni0uMDAwNi4wMDguMTcwMS0uMDI4NS40OTQyLjE3NTl6bTE2LjIyNTcuNTkxOGMtLjEzNjYuNzUyNi0yLjU1NzkgMi41NzY0LTIuMzIyNCAyLjk3MDkuMDQ0LjA3NC4xMDkyLjEwNTUuMTg1NS4xMDU1LjMzMjEgMCAuODgxLS41Njg0Ljg4MS0uNTY4NHMyLjAzMzYtMS44Mzk3IDIuODk0Ny0xLjg0Yy4xMTIxIDAgLjIwNDQuMDMwOC4yNjk1LjEwMTYuNTY2Mi42MTI1LS40NDcgMS4wODgyLTEuODY1MyAxLjk0MTUtMS40MTgzLjg1My0xLjUxIDEuMTE2OC0xLjMwODcgMS40Mzk2LjAxMi4wMTg4LjAzMzcuMDI3My4wNjQ0LjAyNzMuNDAxNiAwIDIuMzE4MS0xLjQ5MjMgMy4xNzIxLTEuNDkyMy4xOTc3LS4wMDAyLjMzODguMDc4Ny4zOTA3LjI3NTQuMjk0IDEuMTEyLTMuMjA5NSAxLjM1OTctMi45ODQ2IDIuMTY0Mi4wMzI1LjExNjYuMTE1Ni4yMDMyLjIyODUuMjAzMi41MDU0IDAgMS42ODItLjk1NTIgMi4zMjgzLS45NTUyLjE2IDAgLjI4NjIuMDU3Ny4zNjMzLjIwMzIuNDU5Ljg2NTYtMy4xNjIzIDEuODE0OS0zLjE5MTYgMS44MjI0LS41OTU4LjE1MzUtMS42NjA1LjMzNi0yLjY5NzUuMzM2LS42MzUxIDAtMS4yNjEtLjA0MDktMS43NjM4LS4yNTk5LS4yOTQ5LS4xNDcyLS41NDg4LS4zNTE2LS43MzgzLS42MjUtLjA0MTEtLjA2ODItLjEwMjYtLjE0NzYtLjE0MjYtLjIwNS0uNTcyNi0uOTY3OS0uNDU1LTEuNzM3MS40OTAzLTIuNjc2IDEuMDI1NC0xLjAxODIgMS42MjEyLTIuNTA4IDEuNjIxMi0yLjUwOHMuMjA0NC0uNzg5MS42NjYtLjc4OTFhLjQzMTguNDMxOCAwIDAgMSAuMDY2NS4wMDM5Yy41MDc4LjA3OTYuODggMS4zNzMyLS4xODM2IDIuMTY0Mi0uNzA3NC41MjU3LS4zNzk3LjkzOTUuMDM5LjkzOTUuMjExIDAgLjQ0NS0uMTA0Ny41ODIxLS4zNTM1LjQwOTItLjc0MjYgMS41MjY0LTIuNjUyNyAyLjEwNTYtMy4wMTc4LjU1ODgtLjM1MjQuOTktLjE4MTYuODQ5Ny41OTE4eiIvPjwvc3ZnPg==;" vertex="1" parent="1">
          <mxGeometry x="930" y="134" width="50" height="50" as="geometry" />
        </mxCell>
        <mxCell id="8Prs5l_Al-9rhkf4T_A--10" value="&lt;div style=&quot;&quot;&gt;Transformers&lt;/div&gt;" style="rounded=1;whiteSpace=wrap;html=1;align=center;fillColor=none;" vertex="1" parent="1">
          <mxGeometry x="910" y="190" width="90" height="19" as="geometry" />
        </mxCell>
        <mxCell id="8Prs5l_Al-9rhkf4T_A--11" value="" style="endArrow=classic;html=1;rounded=0;exitX=1;exitY=0.5;exitDx=0;exitDy=0;strokeColor=#3399FF;" edge="1" parent="1">
          <mxGeometry width="50" height="50" relative="1" as="geometry">
            <mxPoint x="983" y="159" as="sourcePoint" />
            <mxPoint x="1090" y="370" as="targetPoint" />
            <Array as="points">
              <mxPoint x="1090" y="159" />
            </Array>
          </mxGeometry>
        </mxCell>
        <mxCell id="8Prs5l_Al-9rhkf4T_A--12" value="&lt;font color=&quot;#3399ff&quot;&gt;Memory Summary&lt;/font&gt;" style="edgeLabel;html=1;align=center;verticalAlign=middle;resizable=0;points=[];" vertex="1" connectable="0" parent="8Prs5l_Al-9rhkf4T_A--11">
          <mxGeometry x="0.341" relative="1" as="geometry">
            <mxPoint as="offset" />
          </mxGeometry>
        </mxCell>
        <mxCell id="8Prs5l_Al-9rhkf4T_A--13" value="" style="endArrow=classic;html=1;rounded=0;entryX=0;entryY=0.5;entryDx=0;entryDy=0;strokeColor=#FF0000;" edge="1" parent="1" target="OQmvY03P2CP98hC-OCcr-1">
          <mxGeometry width="50" height="50" relative="1" as="geometry">
            <mxPoint x="850" y="390" as="sourcePoint" />
            <mxPoint x="900" y="340" as="targetPoint" />
          </mxGeometry>
        </mxCell>
        <mxCell id="8Prs5l_Al-9rhkf4T_A--14" value="&lt;font color=&quot;#ff0000&quot;&gt;無&lt;/font&gt;" style="edgeLabel;html=1;align=center;verticalAlign=middle;resizable=0;points=[];" vertex="1" connectable="0" parent="8Prs5l_Al-9rhkf4T_A--13">
          <mxGeometry x="-0.0182" y="1" relative="1" as="geometry">
            <mxPoint as="offset" />
          </mxGeometry>
        </mxCell>
        <mxCell id="8Prs5l_Al-9rhkf4T_A--15" value="" style="endArrow=classic;html=1;rounded=0;entryX=0.75;entryY=1;entryDx=0;entryDy=0;strokeColor=#FF0000;" edge="1" parent="1" target="jb_iqBjmAWC4msFi5dK2-2">
          <mxGeometry width="50" height="50" relative="1" as="geometry">
            <mxPoint x="1040" y="436" as="sourcePoint" />
            <mxPoint x="140" y="530" as="targetPoint" />
            <Array as="points">
              <mxPoint x="1040" y="490" />
              <mxPoint x="85" y="490" />
            </Array>
          </mxGeometry>
        </mxCell>
        <mxCell id="8Prs5l_Al-9rhkf4T_A--16" value="&lt;font color=&quot;#ff0000&quot;&gt;Response&lt;/font&gt;" style="edgeLabel;html=1;align=center;verticalAlign=middle;resizable=0;points=[];" vertex="1" connectable="0" parent="8Prs5l_Al-9rhkf4T_A--15">
          <mxGeometry x="0.0066" y="-3" relative="1" as="geometry">
            <mxPoint as="offset" />
          </mxGeometry>
        </mxCell>
        <mxCell id="8Prs5l_Al-9rhkf4T_A--17" value="" style="endArrow=classic;html=1;rounded=0;exitX=0.75;exitY=1;exitDx=0;exitDy=0;entryX=0.25;entryY=1;entryDx=0;entryDy=0;strokeColor=#3399FF;" edge="1" parent="1" source="OQmvY03P2CP98hC-OCcr-4" target="jb_iqBjmAWC4msFi5dK2-2">
          <mxGeometry width="50" height="50" relative="1" as="geometry">
            <mxPoint x="1120" y="570" as="sourcePoint" />
            <mxPoint x="420" y="560" as="targetPoint" />
            <Array as="points">
              <mxPoint x="1118" y="560" />
              <mxPoint x="770" y="560" />
              <mxPoint x="390" y="560" />
              <mxPoint x="55" y="560" />
            </Array>
          </mxGeometry>
        </mxCell>
        <mxCell id="8Prs5l_Al-9rhkf4T_A--18" value="&lt;font color=&quot;#3399ff&quot;&gt;Response According to Memory Summary&lt;/font&gt;" style="edgeLabel;html=1;align=center;verticalAlign=middle;resizable=0;points=[];" vertex="1" connectable="0" parent="8Prs5l_Al-9rhkf4T_A--17">
          <mxGeometry x="0.0407" relative="1" as="geometry">
            <mxPoint as="offset" />
          </mxGeometry>
        </mxCell>
      </root>
    </mxGraphModel>
  </diagram>
</mxfile>
